<?xml version="1.0" standalone="no"?>
<!DOCTYPE svg PUBLIC "-//W3C//DTD SVG 1.1//EN" "http://www.w3.org/Graphics/SVG/1.1/DTD/svg11.dtd" >
<svg xmlns="http://www.w3.org/2000/svg">
<metadata></metadata>
<defs>
<font id="bbcnassimregular" horiz-adv-x="942" >
<font-face units-per-em="2048" ascent="1331" descent="-717" />
<missing-glyph horiz-adv-x="389" />
<glyph unicode="&#xfedf;&#xfe82;" horiz-adv-x="940" arabic-form="isolated" d="M289 162q104 76 177 142.5t122 131.5q-68 92 -157 177t-185 149l-43 -55q-27 49 -66 92t-76 71l52 170q61 -37 136 -93t149.5 -121.5t142 -137.5t114.5 -135q53 127 54 309q0 84 -8.5 163t-20.5 130l137 115q8 -53 14.5 -134t6.5 -173q0 -154 -32 -274t-95 -222 q39 -68 60.5 -126t23.5 -93q0 -16 -5.5 -41t-13.5 -50.5t-19.5 -50t-21.5 -43.5q-29 -45 -77 -70.5t-134 -25.5t-156.5 13.5t-123.5 29.5zM717 166q-12 90 -80 199q-102 -117 -258 -224q47 -8 88 -10t92 -2q53 0 94 8.5t64 28.5zM464 1397q25 -14 25 -47q0 -47 -58.5 -80 t-160.5 -45q-119 -16 -180.5 -48t-81.5 -73q-20 8 -34.5 28.5t-14.5 43.5q0 53 57 83.5t186 45.5q125 14 180 33.5t82 58.5z" />
<glyph unicode="&#xfee0;&#xfe82;" horiz-adv-x="1099" arabic-form="final" d="M903 1272q16 -154 23.5 -352.5t7.5 -409.5q0 -197 37.5 -280t127.5 -83q23 0 42.5 -20.5t19.5 -58.5q0 -39 -19.5 -60.5t-42.5 -21.5q-117 0 -181 72.5t-81 232.5q-23 -53 -62.5 -102.5t-92 -93.5t-112.5 -79.5t-126 -60.5l-340 88l21 41q281 16 462 108.5t240 221.5 q0 100 -3 203.5t-8 199.5t-13.5 183t-20.5 157zM153 1061q117 -66 213 -145.5t170 -171t122 -188.5t67 -198l-43 -34q-25 70 -68 138t-96 128.5t-113.5 110t-122.5 79.5l-28 -63q-23 43 -64 95t-86 87zM475 1397q25 -14 25 -47q0 -47 -58.5 -80t-160.5 -45 q-119 -16 -180.5 -48t-81.5 -73q-20 8 -34.5 28.5t-14.5 43.5q0 53 57 83.5t186 45.5q125 14 180 33.5t82 58.5z" />
<glyph unicode="&#xfedf;&#xfe84;" horiz-adv-x="940" arabic-form="isolated" d="M289 162q104 76 177 142.5t122 131.5q-68 92 -157 177t-185 149l-43 -55q-27 49 -66 92t-76 71l52 170q61 -37 136 -93t149.5 -121.5t142 -137.5t114.5 -135q53 127 54 309q0 84 -8.5 163t-20.5 130l137 115q8 -53 14.5 -134t6.5 -173q0 -154 -32 -274t-95 -222 q39 -68 60.5 -126t23.5 -93q0 -16 -5.5 -41t-13.5 -50.5t-19.5 -50t-21.5 -43.5q-29 -45 -77 -70.5t-134 -25.5t-156.5 13.5t-123.5 29.5zM717 166q-12 90 -80 199q-102 -117 -258 -224q47 -8 88 -10t92 -2q53 0 94 8.5t64 28.5zM221 1364q-31 18 -63 19q-29 0 -59.5 -17.5 t-43.5 -48.5q18 -23 53 -35t70 -12q37 0 76 14.5t82 38.5l-27 -102q-35 -10 -73.5 -24.5t-77.5 -32t-76 -38t-68 -40.5q-4 16 -4 24q0 37 29 61.5t57 32.5q-90 23 -90 87q0 78 48 128t118 50q55 0 96 -31z" />
<glyph unicode="&#xfee0;&#xfe84;" horiz-adv-x="1083" arabic-form="final" d="M887 1272q16 -154 23.5 -352.5t7.5 -409.5q0 -197 37.5 -280t127.5 -83q23 0 42.5 -20.5t19.5 -58.5q0 -39 -19.5 -60.5t-42.5 -21.5q-117 0 -181 72.5t-81 232.5q-23 -53 -62.5 -102.5t-92 -93.5t-112.5 -79.5t-126 -60.5l-340 88l21 41q281 16 462 108.5t240 221.5 q0 100 -3 203.5t-8 199.5t-13.5 183t-20.5 157zM137 1061q117 -66 213 -145.5t170 -171t122 -188.5t67 -198l-43 -34q-25 70 -68 138t-96 128.5t-113.5 110t-122.5 79.5l-28 -63q-23 43 -64 95t-86 87zM235 1384q-31 18 -63 19q-29 0 -59.5 -17.5t-43.5 -48.5q18 -23 53 -35 t70 -12q37 0 76 14.5t82 38.5l-27 -102q-35 -10 -73.5 -24.5t-77.5 -32t-76 -38t-68 -40.5q-4 16 -4 24q0 37 29 61.5t57 32.5q-90 23 -90 87q0 78 48 128t118 50q55 0 96 -31z" />
<glyph unicode="&#xfedf;&#xfe88;" horiz-adv-x="940" arabic-form="isolated" d="M289 162q104 76 177 142.5t122 131.5q-68 92 -157 177t-185 149l-43 -55q-27 49 -66 92t-76 71l52 170q61 -37 136 -93t149.5 -121.5t142 -137.5t114.5 -135q53 127 54 309q0 84 -8.5 163t-20.5 130l137 115q8 -53 14.5 -134t6.5 -173q0 -154 -32 -274t-95 -222 q39 -68 60.5 -126t23.5 -93q0 -16 -5.5 -41t-13.5 -50.5t-19.5 -50t-21.5 -43.5q-29 -45 -77 -70.5t-134 -25.5t-156.5 13.5t-123.5 29.5zM717 166q-12 90 -80 199q-102 -117 -258 -224q47 -8 88 -10t92 -2q53 0 94 8.5t64 28.5zM422 -238q-31 18 -63 18q-29 0 -59.5 -17 t-43.5 -48q18 -23 53 -35t70 -12q37 0 76 14.5t82 38.5l-27 -102q-35 -10 -73.5 -24.5t-77.5 -32t-76 -38t-68 -40.5q-4 16 -4 24q0 37 29 61.5t57 32.5q-90 23 -90 86q0 78 48 128t118 50q55 0 96 -30z" />
<glyph unicode="&#xfee0;&#xfe88;" horiz-adv-x="1083" arabic-form="final" d="M887 1272q16 -154 23.5 -352.5t7.5 -409.5q0 -197 37.5 -280t127.5 -83q23 0 42.5 -20.5t19.5 -58.5q0 -39 -19.5 -60.5t-42.5 -21.5q-117 0 -181 72.5t-81 232.5q-23 -53 -62.5 -102.5t-92 -93.5t-112.5 -79.5t-126 -60.5l-340 88l21 41q281 16 462 108.5t240 221.5 q0 100 -3 203.5t-8 199.5t-13.5 183t-20.5 157zM137 1061q117 -66 213 -145.5t170 -171t122 -188.5t67 -198l-43 -34q-25 70 -68 138t-96 128.5t-113.5 110t-122.5 79.5l-28 -63q-23 43 -64 95t-86 87zM360 -238q-31 18 -63 18q-29 0 -59.5 -17t-43.5 -48q18 -23 53 -35 t70 -12q37 0 76 14.5t82 38.5l-27 -102q-35 -10 -73.5 -24.5t-77.5 -32t-76 -38t-68 -40.5q-4 16 -4 24q0 37 29 61.5t57 32.5q-90 23 -90 86q0 78 48 128t118 50q55 0 96 -30z" />
<glyph unicode="&#xfedf;&#xfe8e;" horiz-adv-x="940" arabic-form="isolated" d="M289 162q104 76 177 142.5t122 131.5q-68 92 -157 177t-185 149l-43 -55q-27 49 -66 92t-76 71l52 170q61 -37 136 -93t149.5 -121.5t142 -137.5t114.5 -135q53 127 54 309q0 84 -8.5 163t-20.5 130l137 115q8 -53 14.5 -134t6.5 -173q0 -154 -32 -274t-95 -222 q39 -68 60.5 -126t23.5 -93q0 -16 -5.5 -41t-13.5 -50.5t-19.5 -50t-21.5 -43.5q-29 -45 -77 -70.5t-134 -25.5t-156.5 13.5t-123.5 29.5zM717 166q-12 90 -80 199q-102 -117 -258 -224q47 -8 88 -10t92 -2q53 0 94 8.5t64 28.5z" />
<glyph unicode="&#xfee0;&#xfe8e;" horiz-adv-x="1083" arabic-form="final" d="M887 1272q16 -154 23.5 -352.5t7.5 -409.5q0 -197 37.5 -280t127.5 -83q23 0 42.5 -20.5t19.5 -58.5q0 -39 -19.5 -60.5t-42.5 -21.5q-117 0 -181 72.5t-81 232.5q-23 -53 -62.5 -102.5t-92 -93.5t-112.5 -79.5t-126 -60.5l-340 88l21 41q281 16 462 108.5t240 221.5 q0 100 -3 203.5t-8 199.5t-13.5 183t-20.5 157zM137 1061q117 -66 213 -145.5t170 -171t122 -188.5t67 -198l-43 -34q-25 70 -68 138t-96 128.5t-113.5 110t-122.5 79.5l-28 -63q-23 43 -64 95t-86 87z" />
<glyph unicode="&#xfedf;&#xfb51;" horiz-adv-x="940" d="M289 162q104 76 177 142.5t122 131.5q-68 92 -157 177t-185 149l-43 -55q-27 49 -66 92t-76 71l52 170q61 -37 136 -93t149.5 -121.5t142 -137.5t114.5 -135q53 127 54 309q0 84 -8.5 163t-20.5 130l137 115q8 -53 14.5 -134t6.5 -173q0 -154 -32 -274t-95 -222 q39 -68 60.5 -126t23.5 -93q0 -16 -5.5 -41t-13.5 -50.5t-19.5 -50t-21.5 -43.5q-29 -45 -77 -70.5t-134 -25.5t-156.5 13.5t-123.5 29.5zM717 166q-12 90 -80 199q-102 -117 -258 -224q47 -8 88 -10t92 -2q53 0 94 8.5t64 28.5zM-32 1127q-12 27 -13 51q0 35 20.5 57.5 t55.5 28.5q25 86 74 132t115 46q47 0 77.5 -34t30.5 -87q0 -57 -46 -95t-142 -38q-41 0 -68 -2t-46 -9t-32.5 -19.5t-25.5 -30.5zM72 1270q18 -4 39 -4h39q115 0 115 47q0 25 -19.5 38t-48.5 13q-35 0 -70 -24.5t-55 -69.5z" />
<glyph unicode="&#xfee0;&#xfb51;" horiz-adv-x="1083" d="M887 1272q16 -154 23.5 -352.5t7.5 -409.5q0 -197 37.5 -280t127.5 -83q23 0 42.5 -20.5t19.5 -58.5q0 -39 -19.5 -60.5t-42.5 -21.5q-117 0 -181 72.5t-81 232.5q-23 -53 -62.5 -102.5t-92 -93.5t-112.5 -79.5t-126 -60.5l-340 88l21 41q281 16 462 108.5t240 221.5 q0 100 -3 203.5t-8 199.5t-13.5 183t-20.5 157zM137 1061q117 -66 213 -145.5t170 -171t122 -188.5t67 -198l-43 -34q-25 70 -68 138t-96 128.5t-113.5 110t-122.5 79.5l-28 -63q-23 43 -64 95t-86 87zM2 1147q-12 27 -13 51q0 35 20.5 57.5t55.5 28.5q25 86 74 132t115 46 q47 0 77.5 -34t30.5 -87q0 -57 -46 -95t-142 -38q-41 0 -68 -2t-46 -9t-32.5 -19.5t-25.5 -30.5zM106 1290q18 -4 39 -4h39q115 0 115 47q0 25 -19.5 38t-48.5 13q-35 0 -70 -24.5t-55 -69.5z" />
<glyph unicode="&#x671;" horiz-adv-x="444" arabic-form="final" d="M242 1237q6 -72 11 -159t8 -184t4 -202.5t1 -212.5q0 -111 11.5 -177t34 -100t55 -44.5t77.5 -10.5q23 0 42.5 -20.5t19.5 -58.5q0 -39 -19.5 -60.5t-42.5 -21.5q-90 0 -146 25.5t-81 60.5q-16 23 -28.5 47t-19.5 66t-11 108.5t-4 173.5q0 174 -7.5 340t-23.5 315z M17 1260q-12 27 -13 51q0 35 20.5 57.5t55.5 28.5q25 86 74 132t115 46q47 0 77.5 -34t30.5 -87q0 -57 -46 -95t-142 -38q-41 0 -68 -2t-46 -9t-32.5 -19.5t-25.5 -30.5zM121 1403q18 -4 39 -4h39q115 0 115 47q0 25 -19.5 38t-48.5 13q-35 0 -70 -24.5t-55 -69.5z" />
<glyph unicode="&#x67e;" horiz-adv-x="1646" arabic-form="final" d="M174 555q-4 -23 -8 -52.5t-4 -45.5q0 -90 29.5 -151.5t94 -99.5t167 -55.5t249.5 -17.5q266 0 460 65.5t327 188.5l49 -8l-72 -105q29 -127 181 -127q23 0 42 -20.5t19 -58.5q0 -39 -19.5 -60.5t-41.5 -21.5q-113 0 -174.5 52t-61.5 183q-131 -117 -335 -187.5 t-466 -70.5q-154 0 -256 22.5t-164.5 66.5t-88 109.5t-25.5 151.5q0 78 18.5 140.5t40.5 76.5zM741 -602q-37 14 -73.5 41t-59.5 55l86 119q25 -31 63 -55.5t79 -38.5zM799 -385q-29 12 -63 37t-58 51l-70 -102q-33 14 -72.5 41.5t-64.5 62.5l94 125q20 -27 51 -55.5 t60 -44.5l80 114q27 -31 67.5 -60.5t69.5 -43.5z" />
<glyph unicode="&#x67e;" horiz-adv-x="499" arabic-form="initial" d="M283 678q45 -66 69.5 -151t24.5 -169q0 -55 -19.5 -120.5t-62.5 -126.5q-41 -63 -121 -94t-174 -31q-23 0 -39 17t-16 63q0 37 14 59t41 22q90 0 157.5 16.5t123.5 49.5q-12 90 -41 167t-64 122zM288 -602q-37 14 -73.5 41t-59.5 55l86 119q25 -31 63 -55.5t79 -38.5z M346 -385q-29 12 -63 37t-58 51l-70 -102q-33 14 -72.5 41.5t-64.5 62.5l94 125q20 -27 51 -55.5t60 -44.5l80 114q27 -31 67.5 -60.5t69.5 -43.5z" />
<glyph unicode="&#x67e;" horiz-adv-x="624" arabic-form="medial" d="M301 446q35 -158 114 -228.5t210 -70.5q23 0 42 -20.5t19 -58.5q0 -39 -19.5 -60.5t-41.5 -21.5q-129 0 -210 48t-128 150q-45 -94 -116 -146t-171 -52q-23 0 -39 20.5t-16 61.5q0 39 15 59t40 20q78 0 141.5 30t110.5 104l-12 90zM366 -602q-37 14 -73.5 41t-59.5 55 l86 119q25 -31 63 -55.5t79 -38.5zM424 -385q-29 12 -63 37t-58 51l-70 -102q-33 14 -72.5 41.5t-64.5 62.5l94 125q20 -27 51 -55.5t60 -44.5l80 114q27 -31 67.5 -60.5t69.5 -43.5z" />
<glyph unicode="&#x6a4;" horiz-adv-x="1732" arabic-form="final" d="M162 524q-4 -10 -5 -23.5t-3 -27.5t-3 -26.5t-1 -20.5q0 -92 27.5 -152.5t90 -97.5t160.5 -52t240 -15q168 0 314 19t237 52q-33 39 -52.5 92.5t-19.5 102.5q0 61 23.5 118.5t60.5 100.5t81 69.5t85 26.5q35 0 71.5 -22.5t66.5 -61.5t48.5 -91t18.5 -114 q0 -53 -32 -115.5t-79 -107.5q41 -10 92 -20.5t137 -10.5q23 0 42.5 -20.5t19.5 -58.5q0 -39 -19.5 -60.5t-42.5 -21.5q-111 0 -212 26.5t-181 67.5q-264 -141 -706 -141q-154 0 -260.5 18t-172 59t-95.5 106.5t-30 162.5q0 78 18.5 140t41.5 77zM1362 223q53 29 101 74 t67 82q-8 31 -24.5 60.5t-38 53t-47 38t-50.5 14.5q-14 0 -35.5 -12.5t-44 -32t-43 -44t-30.5 -50.5q6 -61 49 -110.5t96 -72.5zM1356 1026q-12 4 -33 17.5t-40.5 31t-34.5 34t-21 26.5l98 121q18 -29 56 -64t69 -51zM1485 815q-29 12 -63 37t-58 51l-70 -102 q-33 14 -72.5 42t-64.5 62l94 125q20 -27 51 -55.5t60 -44.5l80 115q27 -31 67.5 -60.5t69.5 -44.5z" />
<glyph unicode="&#x6a4;" horiz-adv-x="626" arabic-form="initial" d="M473 254q-4 37 -7 70.5t-7 56.5q-29 -35 -76 -58.5t-92 -23.5q-47 0 -88 17.5t-71 49t-47 74.5t-17 95q0 47 17 96t47 89t68 65.5t81 25.5q49 0 98 -35t88 -96.5t63.5 -145t24.5 -182.5q0 -92 -18.5 -146t-59.5 -89q-78 -66 -197.5 -98.5t-279.5 -32.5q-23 0 -39 21.5 t-16 60.5t16 59t39 20q158 0 279.5 27t193.5 80zM137 537q23 -47 67 -70t101 -23q37 0 76 10.5t55 22.5q-14 86 -64 133t-102 47q-47 0 -82 -33.5t-51 -86.5zM236 1175q-12 4 -33 17.5t-40.5 31t-34.5 34t-21 26.5l98 121q18 -29 56 -64t69 -51zM365 964q-29 12 -63 37 t-58 51l-70 -102q-33 14 -72.5 42t-64.5 62l94 125q20 -27 51 -55.5t60 -44.5l80 115q27 -31 67.5 -60.5t69.5 -44.5z" />
<glyph unicode="&#x6a4;" horiz-adv-x="729" arabic-form="medial" d="M219 174q-35 39 -56.5 95.5t-21.5 105.5q0 37 7.5 68.5t25.5 70.5q37 78 95.5 127t121.5 49q35 0 73 -22.5t68.5 -61.5t50 -91t19.5 -114q0 -53 -35 -115.5t-82 -107.5q41 -10 99.5 -20.5t144.5 -10.5q23 0 42.5 -20.5t19.5 -58.5q0 -39 -19.5 -60.5t-42.5 -21.5 q-221 0 -385 82q-72 -37 -156 -59.5t-188 -22.5q-27 0 -41 21.5t-14 58.5q0 33 15 57t40 24q72 0 128 8.5t91 18.5zM356 223q27 14 53.5 32.5t50 40t42 43t28.5 40.5q-8 31 -25.5 60.5t-41 53t-49 38t-49.5 14.5q-14 0 -36 -12.5t-44.5 -32t-43 -44t-30.5 -50.5 q6 -61 49 -110.5t96 -72.5zM342 1028q-12 4 -33 17.5t-40.5 31t-34.5 34t-21 26.5l98 121q18 -29 56 -64t69 -51zM471 817q-29 12 -63 37t-58 51l-70 -102q-33 14 -72.5 42t-64.5 62l94 125q20 -27 51 -55.5t60 -44.5l80 115q27 -31 67.5 -60.5t69.5 -44.5z" />
<glyph unicode="&#x686;" horiz-adv-x="1056" arabic-form="final" d="M92 393q-14 18 -14 37q0 49 63 125q43 51 92.5 75.5t83.5 24.5q43 0 101.5 -19.5t156.5 -66.5q55 -25 100.5 -41t94.5 -25t106.5 -13.5t135.5 -4.5l-51 -143q-57 0 -113.5 -6t-87.5 -12q-10 -102 66.5 -139.5t230.5 -37.5q23 0 42 -20.5t19 -58.5q0 -39 -19.5 -60.5 t-41.5 -21.5q-197 0 -280 66.5t-83 172.5q0 23 4 47.5t11 40.5q-88 -23 -186.5 -68.5t-180.5 -113.5t-136 -157t-54 -195q0 -156 129 -245t362 -89q129 0 240.5 15.5t189.5 43.5l-8 -43q-4 -18 -46 -48.5t-112.5 -61.5t-164 -53.5t-197.5 -22.5q-117 0 -210 26.5t-158.5 81 t-100.5 133t-35 183.5q0 131 44 238.5t121 193.5t180 152.5t222 119.5q-74 43 -151.5 66t-155.5 31q-49 -14 -105.5 -44t-103.5 -63zM614 -444q-37 14 -73.5 41t-59.5 55l86 119q25 -31 63 -55.5t79 -38.5zM672 -227q-29 12 -63 37t-58 51l-70 -102q-33 14 -72.5 41.5 t-64.5 62.5l94 125q20 -27 51 -55.5t60 -44.5l80 114q27 -31 67.5 -60.5t69.5 -43.5z" />
<glyph unicode="&#x686;" horiz-adv-x="1034" arabic-form="initial" d="M0 -14q-23 0 -39 18.5t-16 61.5q0 37 14 59t41 22q193 0 369 46.5t309 132.5q-41 25 -90 48t-100.5 44.5t-99.5 39t-85 27.5q-51 -10 -109.5 -32.5t-109.5 -51.5q-10 16 -10 35q0 23 16 50.5t64 68.5q49 45 94 64.5t88 19.5q20 0 42.5 -5t53.5 -19.5t73 -37t101 -57.5 q70 -41 118 -64.5t89 -36.5t83 -17.5t97 -4.5l-53 -151q-59 0 -107.5 -4t-99.5 -16.5t-109.5 -36t-140.5 -64.5q-84 -43 -150.5 -70.5t-122.5 -43t-107.5 -20.5t-102.5 -5zM614 -602q-37 14 -73.5 41t-59.5 55l86 119q25 -31 63 -55.5t79 -38.5zM672 -385q-29 12 -63 37 t-58 51l-70 -102q-33 14 -72.5 41.5t-64.5 62.5l94 125q20 -27 51 -55.5t60 -44.5l80 114q27 -31 67.5 -60.5t69.5 -43.5z" />
<glyph unicode="&#x686;" horiz-adv-x="1130" arabic-form="medial" d="M96 383q-6 8 -9 18.5t-3 20.5q0 23 15.5 54.5t47.5 70.5q41 49 90.5 73.5t84.5 24.5q43 0 101 -19.5t157 -66.5q55 -25 100 -41t94 -25.5t106.5 -15.5t143.5 -6l-51 -143q-86 0 -124 -4.5t-67 -16.5q-2 -4 -2 -10v-10q0 -43 24.5 -70t65.5 -42t115 -21.5t145 -6.5 q23 0 42.5 -20.5t19.5 -58.5q0 -39 -19.5 -60.5t-42.5 -21.5q-221 0 -318 62.5t-97 166.5q0 33 10 74q-16 -8 -36.5 -19.5t-49.5 -30t-68 -45t-92 -63.5q-59 -41 -113.5 -68.5t-108.5 -44t-111.5 -24.5t-145.5 -8q-23 0 -39 20.5t-16 59.5q0 82 55 81q117 0 198 12.5 t156.5 39t151.5 70.5t164 106q-88 47 -184.5 76.5t-180.5 37.5q-49 -14 -105.5 -43.5t-103.5 -62.5zM614 -602q-37 14 -73.5 41t-59.5 55l86 119q25 -31 63 -55.5t79 -38.5zM672 -385q-29 12 -63 37t-58 51l-70 -102q-33 14 -72.5 41.5t-64.5 62.5l94 125q20 -27 51 -55.5 t60 -44.5l80 114q27 -31 67.5 -60.5t69.5 -43.5z" />
<glyph unicode="&#x698;" horiz-adv-x="804" arabic-form="final" d="M553 330q41 -51 72.5 -86t61.5 -56.5t57.5 -31t60.5 -9.5q23 0 42 -20.5t19 -58.5q0 -39 -19.5 -60.5t-41.5 -21.5q-41 0 -75 10t-66 33l-2 -2q14 -35 14 -86q0 -43 -17.5 -98.5t-54.5 -113t-93 -112.5t-134 -96l-262 33l-29 40q221 61 349 158.5t169 194.5 q-4 47 -32.5 108.5t-92.5 132.5zM521 712q-12 4 -33 17.5t-40.5 31t-34.5 34t-21 26.5l98 121q18 -29 56 -64t69 -51zM650 501q-29 12 -63 37t-58 51l-70 -102q-33 14 -72.5 42t-64.5 62l94 125q20 -27 51 -55.5t60 -44.5l80 115q27 -31 67.5 -60.5t69.5 -44.5z" />
<glyph unicode="&#x6a9;" horiz-adv-x="1576" arabic-form="final" d="M195 547q-8 -23 -11.5 -51.5t-3.5 -53.5q0 -80 18.5 -137t64.5 -96t122 -57.5t190 -18.5q129 0 222.5 7t156 21.5t100.5 34t58 44.5q-4 33 -22.5 75.5t-56.5 105t-100.5 149.5t-154.5 208q0 76 40 133.5t132 81.5l617 168l-82 -149l-590 -166l315 -434q51 -72 94.5 -122 t82 -82t75.5 -46.5t80 -14.5h35q23 0 42 -20.5t19 -58.5q0 -39 -19.5 -60.5t-41.5 -21.5h-39q-39 0 -80 11t-84 40t-88 77t-90 124q-37 -131 -156 -193q-63 -35 -192 -58.5t-297 -23.5q-127 0 -215 22.5t-141.5 66.5t-77 108.5t-23.5 148.5q0 39 5 75t14.5 65.5t19.5 50 t23 26.5l39 21v0z" />
<glyph unicode="&#x6a9;" horiz-adv-x="888" arabic-form="initial" d="M750 1010l-590 -164q195 -197 275.5 -342.5t80.5 -227.5q0 -25 -8 -51t-21.5 -53t-31 -48.5t-37.5 -35.5q-37 -25 -87 -44t-105.5 -32.5t-114 -19.5t-111.5 -6q-25 0 -40 20.5t-15 61.5t15 60t40 19q176 0 274.5 19.5t153.5 52.5q-4 27 -31.5 86.5t-77 135t-120 163.5 t-156.5 174q0 76 40 133.5t132 81.5l616 168z" />
<glyph unicode="&#x6a9;" horiz-adv-x="841" arabic-form="medial" d="M750 1012l-590 -166l315 -434q59 -80 105.5 -132.5t86.5 -81t76.5 -40t85.5 -11.5h19q23 0 42 -20.5t19 -58.5q0 -39 -19.5 -60.5t-41.5 -21.5h-31q-106 0 -188 56t-168 196q-72 -252 -461 -252q-27 0 -41 21.5t-14 55.5q0 37 15 60.5t40 23.5q166 0 257 26t120 67 q-4 33 -22.5 75.5t-56.5 105t-100.5 149.5t-154.5 208q0 76 40 133.5t132 81.5l616 168z" />
<glyph unicode="&#x6af;" horiz-adv-x="1576" arabic-form="final" d="M195 547q-8 -23 -11.5 -51.5t-3.5 -53.5q0 -80 18.5 -137t64.5 -96t122 -57.5t190 -18.5q129 0 222.5 7t156 21.5t100.5 34t58 44.5q-4 33 -22.5 75.5t-56.5 105t-100.5 149.5t-154.5 208q0 76 40 133.5t132 81.5l617 168l-82 -149l-590 -166l315 -434q51 -72 94.5 -122 t82 -82t75.5 -46.5t80 -14.5h35q23 0 42 -20.5t19 -58.5q0 -39 -19.5 -60.5t-41.5 -21.5h-39q-39 0 -80 11t-84 40t-88 77t-90 124q-37 -131 -156 -193q-63 -35 -192 -58.5t-297 -23.5q-127 0 -215 22.5t-141.5 66.5t-77 108.5t-23.5 148.5q0 39 5 75t14.5 65.5t19.5 50 t23 26.5l39 21v0zM932 1200l690 197h13l-52 -107l-686 -192h-10z" />
<glyph unicode="&#x6af;" horiz-adv-x="897" arabic-form="initial" d="M750 1010l-590 -164q195 -197 275.5 -342.5t80.5 -227.5q0 -25 -8 -51t-21.5 -53t-31 -48.5t-37.5 -35.5q-37 -25 -87 -44t-105.5 -32.5t-114 -19.5t-111.5 -6q-25 0 -40 20.5t-15 61.5t15 60t40 19q176 0 274.5 19.5t153.5 52.5q-4 27 -31.5 86.5t-77 135t-120 163.5 t-156.5 174q0 76 40 133.5t132 81.5l616 168zM195 1218l690 197h13l-52 -107l-686 -192h-10z" />
<glyph unicode="&#x6af;" horiz-adv-x="841" arabic-form="medial" d="M750 1012l-590 -166l315 -434q59 -80 105.5 -132.5t86.5 -81t76.5 -40t85.5 -11.5h19q23 0 42 -20.5t19 -58.5q0 -39 -19.5 -60.5t-41.5 -21.5h-31q-106 0 -188 56t-168 196q-72 -252 -461 -252q-27 0 -41 21.5t-14 55.5q0 37 15 60.5t40 23.5q166 0 257 26t120 67 q-4 33 -22.5 75.5t-56.5 105t-100.5 149.5t-154.5 208q0 76 40 133.5t132 81.5l616 168zM195 1200l690 197h13l-52 -107l-686 -192h-10z" />
<glyph unicode="&#x6c0;" horiz-adv-x="817" arabic-form="final" d="M483 838q18 -39 32.5 -79t29 -92.5t30 -119t31.5 -158.5q14 -74 30.5 -121t40 -73.5t57.5 -37t83 -10.5q23 0 42.5 -20.5t19.5 -58.5q0 -39 -19.5 -60.5t-42.5 -21.5q-129 0 -198.5 51t-102.5 180l-53 -53q-43 -45 -82 -59.5t-80 -14.5q-43 0 -84 17.5t-73.5 44t-52 59.5 t-19.5 63q0 27 13 67t36 69q23 31 102.5 84t220.5 112l-49 125zM469 504q-117 -41 -194.5 -79t-112.5 -71q23 -57 74 -92t131 -35q43 0 79.5 12.5t61.5 28.5q-8 59 -15.5 119t-23.5 117zM493 1126q-31 18 -63 19q-29 0 -59.5 -17.5t-43.5 -48.5q18 -23 53 -35t70 -12 q37 0 76 14.5t82 38.5l-27 -102q-35 -10 -73.5 -24.5t-77.5 -32t-76 -38t-68 -40.5q-4 16 -4 24q0 37 29 61.5t57 32.5q-90 23 -90 87q0 78 48 128t118 50q55 0 96 -31z" />
<glyph unicode="&#x649;" horiz-adv-x="471" arabic-form="initial" d="M283 678q45 -66 69.5 -151t24.5 -169q0 -55 -19.5 -120.5t-62.5 -126.5q-41 -63 -121 -94t-174 -31q-23 0 -39 17t-16 63q0 37 14 59t41 22q90 0 157.5 16.5t123.5 49.5q-12 90 -41 167t-64 122z" />
<glyph unicode="&#x649;" horiz-adv-x="624" arabic-form="medial" d="M301 446q35 -158 114 -228.5t210 -70.5q23 0 42 -20.5t19 -58.5q0 -39 -19.5 -60.5t-41.5 -21.5q-129 0 -210 48t-128 150q-45 -94 -116 -146t-171 -52q-23 0 -39 20.5t-16 61.5q0 39 15 59t40 20q78 0 141.5 30t110.5 104l-12 90z" />
<glyph unicode="&#x6cc;" horiz-adv-x="1263" arabic-form="final" d="M221 199q-16 -41 -24.5 -85t-8.5 -104q0 -76 22.5 -136t73 -102t131.5 -64.5t195 -22.5q119 0 201 6t136 16t86 26.5t50 37.5q-4 10 -22.5 15t-42.5 5h-184q-84 0 -121 21.5t-37 68.5q0 49 38 104.5t99 92.5q33 20 70 33.5t87 21.5t120.5 11t173.5 3q23 0 42 -20.5 t19 -58.5q0 -39 -19.5 -60.5t-41.5 -21.5h-25q-33 0 -80 3t-92 7q-37 4 -77 6t-56 2q-63 0 -105.5 -25.5t-62.5 -58.5q16 -8 36.5 -11t61.5 -3h154q158 0 158 -60q0 -43 -31 -99t-86 -107q-66 -53 -187.5 -89t-302.5 -36q-244 0 -359.5 112.5t-115.5 300.5q0 90 28 158 t60 88l39 25v0z" />
<glyph unicode="&#x6cc;" horiz-adv-x="491" arabic-form="initial" d="M283 678q45 -66 69.5 -151t24.5 -169q0 -55 -19.5 -120.5t-62.5 -126.5q-41 -63 -121 -94t-174 -31q-23 0 -39 17t-16 63q0 37 14 59t41 22q90 0 157.5 16.5t123.5 49.5q-12 90 -41 167t-64 122zM355 -385q-29 12 -63 37t-58 51l-70 -102q-33 14 -72.5 42t-64.5 62 l94 125q20 -27 51 -55.5t60 -44.5l80 115q27 -31 67.5 -60.5t69.5 -44.5z" />
<glyph unicode="&#x6cc;" horiz-adv-x="624" arabic-form="medial" d="M301 446q35 -158 114 -228.5t210 -70.5q23 0 42 -20.5t19 -58.5q0 -39 -19.5 -60.5t-41.5 -21.5q-129 0 -210 48t-128 150q-45 -94 -116 -146t-171 -52q-23 0 -39 20.5t-16 61.5q0 39 15 59t40 20q78 0 141.5 30t110.5 104l-12 90zM424 -385q-29 12 -63 37t-58 51 l-70 -102q-33 14 -72.5 42t-64.5 62l94 125q20 -27 51 -55.5t60 -44.5l80 115q27 -31 67.5 -60.5t69.5 -44.5z" />
<glyph unicode="&#xfc5e;" horiz-adv-x="0" arabic-form="isolated" d="M358 1616q4 -12 7.5 -30.5t3.5 -41.5q0 -74 -33 -113.5t-72 -39.5q-29 0 -47 16t-27 45q-23 -76 -48 -103.5t-50 -27.5q-29 0 -47 30.5t-18 78.5q0 29 5 57.5t15 52.5l37 29q-2 -10 -3 -22.5t-1 -22.5q0 -47 11 -67.5t28 -20.5q16 0 32.5 17t28.5 42q0 31 2 55.5t6 32.5 l33 27q0 -66 13.5 -94.5t33.5 -28.5q27 0 37 21.5t10 70.5q0 12 -1 27.5t-3 29.5zM-76 1808q23 29 48.5 44t62.5 15t60.5 -24.5t23.5 -63.5q0 -23 -5 -36t-16 -29q84 8 134 37q-53 25 -76 69.5t-23 102.5q0 49 22.5 74.5t55.5 25.5q63 0 101 -45t38 -98q0 -25 -4 -42.5 t-8 -33.5q16 -2 25.5 -2h34.5l-39 -78h-30.5t-27.5 4q-88 -84 -282 -102q49 68 49 110q0 20 -10.5 33.5t-30.5 13.5q-23 0 -41.5 -16t-38.5 -39zM289 1810q8 10 10 22.5t2 24.5q0 29 -21.5 52.5t-51.5 23.5q-49 0 -50 -33q0 -23 30 -49.5t81 -40.5z" />
<glyph unicode="&#xfc5f;" horiz-adv-x="0" arabic-form="isolated" d="M358 1981q4 -12 7.5 -30.5t3.5 -41.5q0 -74 -33 -113.5t-72 -39.5q-29 0 -47 16t-27 45q-23 -76 -48 -103.5t-50 -27.5q-29 0 -47 30.5t-18 78.5q0 29 5 57.5t15 52.5l37 29q-2 -10 -3 -22.5t-1 -22.5q0 -47 11 -67.5t28 -20.5q16 0 32.5 17t28.5 42q0 31 2 55.5t6 32.5 l33 27q0 -66 13.5 -94.5t33.5 -28.5q27 0 37 21.5t10 70.5q0 12 -1 27.5t-3 29.5zM0 1331q2 23 8 43.5t12 32.5q76 45 173.5 91t212.5 85l-29 -82q-88 -31 -186.5 -77t-190.5 -93zM12 1479q2 23 8.5 43t12.5 32q76 45 173 91.5t212 84.5l-29 -81q-88 -31 -186.5 -77 t-190.5 -93z" />
<glyph unicode="&#xfc60;" horiz-adv-x="0" arabic-form="isolated" d="M358 1616q4 -12 7.5 -30.5t3.5 -41.5q0 -74 -33 -113.5t-72 -39.5q-29 0 -47 16t-27 45q-23 -76 -48 -103.5t-50 -27.5q-29 0 -47 30.5t-18 78.5q0 29 5 57.5t15 52.5l37 29q-2 -10 -3 -22.5t-1 -22.5q0 -47 11 -67.5t28 -20.5q16 0 32.5 17t28.5 42q0 31 2 55.5t6 32.5 l33 27q0 -66 13.5 -94.5t33.5 -28.5q27 0 37 21.5t10 70.5q0 12 -1 27.5t-3 29.5zM-10 1569q2 23 8 43t12 32q76 45 173.5 91.5t212.5 84.5l-29 -81q-88 -31 -186.5 -77t-190.5 -93z" />
<glyph unicode="&#xfc61;" horiz-adv-x="0" arabic-form="isolated" d="M358 1616q4 -12 7.5 -30.5t3.5 -41.5q0 -74 -33 -113.5t-72 -39.5q-29 0 -47 16t-27 45q-23 -76 -48 -103.5t-50 -27.5q-29 0 -47 30.5t-18 78.5q0 29 5 57.5t15 52.5l37 29q-2 -10 -3 -22.5t-1 -22.5q0 -47 11 -67.5t28 -20.5q16 0 32.5 17t28.5 42q0 31 2 55.5t6 32.5 l33 27q0 -66 13.5 -94.5t33.5 -28.5q27 0 37 21.5t10 70.5q0 12 -1 27.5t-3 29.5zM-43 1652q133 41 201 82q-74 68 -74 152q0 47 26.5 79.5t63.5 32.5q31 0 55.5 -12t43 -30.5t28.5 -42t10 -48.5q0 -27 -5 -49t-25 -51q16 -4 33.5 -4h39.5l-37 -74q-35 0 -52 2t-40 10 q-39 -33 -89 -58.5t-93 -25.5q-23 0 -41 13zM274 1853q-14 25 -40.5 40t-51.5 15q-41 0 -41 -39q0 -29 24.5 -54t55.5 -36q37 31 53 74z" />
<glyph unicode="&#xfc62;" horiz-adv-x="0" arabic-form="isolated" d="M358 1899q4 -12 7.5 -30.5t3.5 -41.5q0 -74 -33 -113.5t-72 -39.5q-29 0 -47 16t-27 45q-23 -76 -48 -103.5t-50 -27.5q-29 0 -47 30.5t-18 78.5q0 29 5 57.5t15 52.5l37 29q-2 -10 -3 -22.5t-1 -22.5q0 -47 11 -67.5t28 -20.5q16 0 32.5 17t28.5 42q0 31 2 55.5t6 32.5 l33 27q0 -66 13.5 -94.5t33.5 -28.5q27 0 37 21.5t10 70.5q0 12 -1 27.5t-3 29.5zM12 1403q2 23 8.5 43t12.5 32q76 45 173 91.5t212 84.5l-29 -81q-88 -31 -186.5 -77t-190.5 -93z" />
<glyph unicode="&#xfc63;" horiz-adv-x="0" arabic-form="isolated" d="M358 1616q4 -12 7.5 -30.5t3.5 -41.5q0 -74 -33 -113.5t-72 -39.5q-29 0 -47 16t-27 45q-23 -76 -48 -103.5t-50 -27.5q-29 0 -47 30.5t-18 78.5q0 29 5 57.5t15 52.5l37 29q-2 -10 -3 -22.5t-1 -22.5q0 -47 11 -67.5t28 -20.5q16 0 32.5 17t28.5 42q0 31 2 55.5t6 32.5 l33 27q0 -66 13.5 -94.5t33.5 -28.5q27 0 37 21.5t10 70.5q0 12 -1 27.5t-3 29.5zM156 1677q0 59 -5 106.5t-13 88.5q-12 59 -15 123l88 59q0 -41 2.5 -78t6.5 -74q2 -31 4 -70.5t2 -62.5t-17.5 -53.5t-35.5 -44.5z" />
<glyph unicode="&#xfdf2;" horiz-adv-x="1701" arabic-form="isolated" d="M1225 944q6 -94 16 -180t27 -180l10 -66q8 -47 12 -93t4 -93q0 -61 -11 -124t-37.5 -112t-67.5 -79.5t-101 -30.5q-82 0 -145.5 46t-89.5 148q-43 -109 -88 -151.5t-113 -42.5h-6q-72 2 -117 47t-55 137q-51 -66 -88 -92.5t-78 -26.5t-81 11.5t-71.5 34t-52 53 t-20.5 71.5q0 49 26.5 94t74.5 86t112.5 77t138.5 69l-23 78l103 118q18 -70 30.5 -156.5t20.5 -172.5q6 -74 14.5 -125t20.5 -82t32.5 -45.5t55.5 -14.5q45 0 82 31t59 86q-14 98 -28.5 218t-28.5 237l119 115q12 -211 28.5 -345.5t40 -210t55 -103.5t72.5 -28t75 11.5 t52 38.5q-4 63 -17 132.5t-29.5 146.5t-33 163t-24.5 180zM438 459q-41 -16 -84 -37t-82 -43.5t-69.5 -43t-46.5 -36.5q23 -53 69.5 -87t98.5 -34q47 0 77.5 12.5t57.5 38.5q-4 70 -7.5 122.5t-13.5 107.5zM1604 1178q0 -121 4 -247t8 -249q6 -117 10 -221.5t4 -190.5 q0 -82 -3 -118.5t-11 -65.5q-8 -25 -22.5 -57.5t-30.5 -61.5h-41q0 219 -9.5 377t-21.5 291q-10 127 -17.5 239.5t-7.5 247.5l138 115v-59zM958 1129q4 -12 7.5 -30.5t3.5 -41.5q0 -74 -33 -113.5t-72 -39.5q-29 0 -47 16t-27 45q-23 -76 -48 -103.5t-50 -27.5 q-29 0 -47 30.5t-18 78.5q0 29 5 57.5t15 52.5l37 29q-2 -10 -3 -22.5t-1 -22.5q0 -47 11 -67.5t28 -20.5q16 0 32.5 17t28.5 42q0 31 2 55.5t6 32.5l33 27q0 -66 13.5 -94.5t33.5 -28.5q27 0 37 21.5t10 70.5q0 12 -1 27.5t-3 29.5zM754 1192q0 59 -5 106.5t-13 88.5 q-12 59 -15 123l88 59q0 -41 2.5 -78t6.5 -74q2 -31 4 -70.5t2 -62.5t-17.5 -53.5t-35.5 -44.5z" />
<glyph unicode="&#xfdfc;" horiz-adv-x="1593" arabic-form="isolated" d="M1139 1100q-20 4 -35 4q-33 0 -53.5 -14.5t-31.5 -46t-15.5 -85t-4.5 -131.5q49 51 90 79t78 38q25 6 50 6q43 0 70.5 -27.5t27.5 -76.5q0 -29 -11.5 -68t-27.5 -71l-55 -9q14 35 14 58q0 14 -9 25.5t-38 11.5q-35 0 -79 -26t-99 -85q16 -168 45.5 -271.5t91.5 -125.5 q18 -8 49 -9q37 0 69.5 11.5t49.5 27.5q-4 47 -22.5 102.5t-41.5 86.5l86 135q16 -31 32.5 -77t25.5 -93q6 -31 6 -61q0 -57 -13.5 -108.5t-41 -89.5t-67.5 -59.5t-91 -21.5q-59 0 -102.5 17.5t-74 59.5t-51 112.5t-30.5 179.5q-4 18 -4 36.5t-2 34.5q-29 -37 -54.5 -69.5 t-50.5 -61.5q4 -53 7 -97t3 -77q0 -92 -20.5 -174t-69.5 -143.5t-129 -97t-196 -35.5q-127 0 -192.5 68.5t-65.5 195.5q0 37 8 72.5t20.5 66.5t26.5 52.5t27 29.5l22 16q-10 -27 -19.5 -70.5t-9.5 -84.5q0 -98 50.5 -146.5t146.5 -48.5t176 34t139 95q-2 59 -4 124t-8 130 q-59 -55 -114.5 -79.5t-114.5 -24.5q-94 0 -149.5 59t-55.5 166q0 45 8 86t19.5 74t23.5 53t21 27l41 24q-35 -82 -35 -172q0 -72 32.5 -111.5t98.5 -39.5q49 0 100 22.5t111 75.5q-14 135 -31.5 258t-32.5 215q-4 14 -10 33.5t-10 36.5l102 84q6 -29 19.5 -61t32 -62.5 t38 -58t37.5 -44.5l-78 -47q2 -59 7.5 -127.5t11.5 -138.5l110 133q-2 29 -2 58.5v60.5q0 82 12.5 156.5t40 132t71.5 90.5t108 33q18 0 33.5 -2.5t25.5 -6.5zM1229 -193q-25 12 -55.5 36t-53.5 48l-69 -92q-29 12 -65 40t-58 61l92 112q16 -25 45 -51.5t55 -42.5l78 105 q23 -31 59.5 -58.5t65.5 -44.5z" />
<glyph unicode="&#x622;" horiz-adv-x="450" arabic-form="final" d="M248 1237q6 -72 11 -159t8 -184t4 -202.5t1 -212.5q0 -111 11.5 -177t34 -100t55 -44.5t77.5 -10.5q23 0 42.5 -20.5t19.5 -58.5q0 -39 -19.5 -60.5t-42.5 -21.5q-90 0 -146 25.5t-81 60.5q-16 23 -28.5 47t-19.5 66t-11 108.5t-4 173.5q0 174 -7.5 340t-23.5 315z M446 1509q25 -14 25 -47q0 -47 -58.5 -80t-160.5 -45q-119 -16 -180.5 -48t-81.5 -73q-20 8 -34.5 28.5t-14.5 43.5q0 53 57 83.5t186 45.5q125 14 180 33.5t82 58.5z" />
<glyph unicode="&#x623;" horiz-adv-x="444" arabic-form="final" d="M242 1237q6 -72 11 -159t8 -184t4 -202.5t1 -212.5q0 -111 11.5 -177t34 -100t55 -44.5t77.5 -10.5q23 0 42.5 -20.5t19.5 -58.5q0 -39 -19.5 -60.5t-42.5 -21.5q-90 0 -146 25.5t-81 60.5q-16 23 -28.5 47t-19.5 66t-11 108.5t-4 173.5q0 174 -7.5 340t-23.5 315z M250 1528q-31 18 -63 19q-29 0 -59.5 -17.5t-43.5 -48.5q18 -23 53 -35t70 -12q37 0 76 14.5t82 38.5l-27 -102q-35 -10 -73.5 -24.5t-77.5 -32t-76 -38t-68 -40.5q-4 16 -4 24q0 37 29 61.5t57 32.5q-90 23 -90 87q0 78 48 128t118 50q55 0 96 -31z" />
<glyph unicode="&#x624;" horiz-adv-x="743" arabic-form="final" d="M10 -356q127 35 219.5 77.5t154.5 88t98 90.5t48 86q-88 2 -152.5 23.5t-107.5 55t-63.5 76.5t-20.5 90t17.5 96.5t47.5 89.5t66.5 64.5t73.5 24.5q43 0 84 -26.5t75 -75t57.5 -114t29.5 -143.5h106q23 0 42.5 -20.5t19.5 -58.5q0 -39 -19.5 -60.5t-42.5 -21.5h-118 q-25 -123 -106 -233.5t-218 -182.5l-262 33zM256 238q18 -39 74.5 -65t130.5 -26h86q-14 88 -60.5 146.5t-105.5 58.5q-43 0 -79 -32.5t-46 -81.5zM438 876q-31 18 -63 19q-29 0 -59.5 -17.5t-43.5 -48.5q18 -23 53 -35t70 -12q37 0 76 14.5t82 38.5l-27 -102 q-35 -10 -73.5 -24.5t-77.5 -32t-76 -38t-68 -40.5q-4 16 -4 24q0 37 29 61.5t57 32.5q-90 23 -90 87q0 78 48 128t118 50q55 0 96 -31z" />
<glyph unicode="&#x625;" horiz-adv-x="444" arabic-form="final" d="M215 1237q6 -72 11 -159t8 -184t4 -202.5t1 -212.5q0 -111 11.5 -177t34 -100t55 -44.5t77.5 -10.5q23 0 42.5 -20.5t19.5 -58.5q0 -39 -19.5 -60.5t-42.5 -21.5q-90 0 -146 25.5t-81 60.5q-16 23 -28.5 47t-19.5 66t-11 108.5t-4 173.5q0 174 -7.5 340t-23.5 315z M321 -254q-31 18 -63 18q-29 0 -59.5 -17t-43.5 -48q18 -23 53 -35t70 -12q37 0 76 14.5t82 38.5l-27 -102q-35 -10 -73.5 -24.5t-77.5 -32t-76 -38t-68 -40.5q-4 16 -4 24q0 37 29 61.5t57 32.5q-90 23 -90 86q0 78 48 128t118 50q55 0 96 -30z" />
<glyph unicode="&#x626;" horiz-adv-x="1136" arabic-form="final" d="M215 205q-16 -41 -25.5 -82t-9.5 -100q0 -135 92.5 -211t280.5 -76q145 0 266 24.5t189 65.5q-51 45 -125 90t-140 70q10 35 25.5 68.5t26.5 54.5q20 8 46.5 15t64.5 12t91.5 8t126.5 3q23 0 42.5 -20.5t19.5 -58.5q0 -39 -19.5 -60.5t-42.5 -21.5h-131q45 -25 68.5 -62 t23.5 -61q0 -43 -26.5 -92.5t-65.5 -77.5q-66 -55 -195.5 -91t-305.5 -36q-199 0 -301.5 96t-102.5 272q0 90 27.5 158t60.5 88zM319 600q-31 18 -63 19q-29 0 -59.5 -17.5t-43.5 -48.5q18 -23 53 -35t70 -12q37 0 76 14.5t82 38.5l-27 -102q-35 -10 -73.5 -24.5t-77.5 -32 t-76 -38t-68 -40.5q-4 16 -4 24q0 37 29 61.5t57 32.5q-90 23 -90 87q0 78 48 128t118 50q55 0 96 -31z" />
<glyph unicode="&#x626;" horiz-adv-x="471" arabic-form="initial" d="M283 678q45 -66 69.5 -151t24.5 -169q0 -55 -19.5 -120.5t-62.5 -126.5q-41 -63 -121 -94t-174 -31q-23 0 -39 17t-16 63q0 37 14 59t41 22q90 0 157.5 16.5t123.5 49.5q-12 90 -41 167t-64 122zM297 1001q-31 18 -63 19q-29 0 -59.5 -17.5t-43.5 -48.5q18 -23 53 -35 t70 -12q37 0 76 14.5t82 38.5l-27 -102q-35 -10 -73.5 -24.5t-77.5 -32t-76 -38t-68 -40.5q-4 16 -4 24q0 37 29 61.5t57 32.5q-90 23 -90 87q0 78 48 128t118 50q55 0 96 -31z" />
<glyph unicode="&#x626;" horiz-adv-x="624" arabic-form="medial" d="M301 446q35 -158 114 -228.5t210 -70.5q23 0 42 -20.5t19 -58.5q0 -39 -19.5 -60.5t-41.5 -21.5q-129 0 -210 48t-128 150q-45 -94 -116 -146t-171 -52q-23 0 -39 20.5t-16 61.5q0 39 15 59t40 20q78 0 141.5 30t110.5 104l-12 90zM352 837q-31 18 -63 19 q-29 0 -59.5 -17.5t-43.5 -48.5q18 -23 53 -35t70 -12q37 0 76 14.5t82 38.5l-27 -102q-35 -10 -73.5 -24.5t-77.5 -32t-76 -38t-68 -40.5q-4 16 -4 24q0 37 29 61.5t57 32.5q-90 23 -90 87q0 78 48 128t118 50q55 0 96 -31z" />
<glyph unicode="&#x627;" horiz-adv-x="444" arabic-form="final" d="M242 1237q6 -72 11 -159t8 -184t4 -202.5t1 -212.5q0 -111 11.5 -177t34 -100t55 -44.5t77.5 -10.5q23 0 42.5 -20.5t19.5 -58.5q0 -39 -19.5 -60.5t-42.5 -21.5q-90 0 -146 25.5t-81 60.5q-16 23 -28.5 47t-19.5 66t-11 108.5t-4 173.5q0 174 -7.5 340t-23.5 315z" />
<glyph unicode="&#x628;" horiz-adv-x="1646" arabic-form="final" d="M174 555q-4 -23 -8 -52.5t-4 -45.5q0 -90 29.5 -151.5t94 -99.5t167 -55.5t249.5 -17.5q266 0 460 65.5t327 188.5l49 -8l-72 -105q29 -127 181 -127q23 0 42 -20.5t19 -58.5q0 -39 -19.5 -60.5t-41.5 -21.5q-113 0 -174.5 52t-61.5 183q-131 -117 -335 -187.5 t-466 -70.5q-154 0 -256 22.5t-164.5 66.5t-88 109.5t-25.5 151.5q0 78 18.5 140.5t40.5 76.5zM702 -389q-33 14 -72.5 45t-64.5 66l100 122q25 -33 66 -63.5t70 -46.5z" />
<glyph unicode="&#x628;" horiz-adv-x="471" arabic-form="initial" d="M283 678q45 -66 69.5 -151t24.5 -169q0 -55 -19.5 -120.5t-62.5 -126.5q-41 -63 -121 -94t-174 -31q-23 0 -39 17t-16 63q0 37 14 59t41 22q90 0 157.5 16.5t123.5 49.5q-12 90 -41 167t-64 122zM260 -389q-33 14 -72.5 45t-64.5 66l100 122q25 -33 66 -63.5t70 -46.5z " />
<glyph unicode="&#x628;" horiz-adv-x="624" arabic-form="medial" d="M301 446q35 -158 114 -228.5t210 -70.5q23 0 42 -20.5t19 -58.5q0 -39 -19.5 -60.5t-41.5 -21.5q-129 0 -210 48t-128 150q-45 -94 -116 -146t-171 -52q-23 0 -39 20.5t-16 61.5q0 39 15 59t40 20q78 0 141.5 30t110.5 104l-12 90zM325 -389q-33 14 -72.5 45t-64.5 66 l100 122q25 -33 66 -63.5t70 -46.5z" />
<glyph unicode="&#x629;" horiz-adv-x="817" arabic-form="final" d="M483 838q18 -39 32.5 -79t29 -92.5t30 -119t31.5 -158.5q14 -74 30.5 -121t40 -73.5t57.5 -37t83 -10.5q23 0 42.5 -20.5t19.5 -58.5q0 -39 -19.5 -60.5t-42.5 -21.5q-129 0 -198.5 51t-102.5 180l-53 -53q-43 -45 -82 -59.5t-80 -14.5q-43 0 -84 17.5t-73.5 44t-52 59.5 t-19.5 63q0 27 13 67t36 69q23 31 102.5 84t220.5 112l-49 125zM469 504q-117 -41 -194.5 -79t-112.5 -71q23 -57 74 -92t131 -35q43 0 79.5 12.5t61.5 28.5q-8 59 -15.5 119t-23.5 117zM561 948q-29 12 -63 37t-58 51l-70 -102q-33 14 -72.5 42t-64.5 62l94 125 q20 -27 51 -55.5t60 -44.5l80 115q27 -31 67.5 -60.5t69.5 -44.5z" />
<glyph unicode="&#x62a;" horiz-adv-x="1646" arabic-form="final" d="M174 555q-4 -23 -8 -52.5t-4 -45.5q0 -90 29.5 -151.5t94 -99.5t167 -55.5t249.5 -17.5q266 0 460 65.5t327 188.5l49 -8l-72 -105q29 -127 181 -127q23 0 42 -20.5t19 -58.5q0 -39 -19.5 -60.5t-41.5 -21.5q-113 0 -174.5 52t-61.5 183q-131 -117 -335 -187.5 t-466 -70.5q-154 0 -256 22.5t-164.5 66.5t-88 109.5t-25.5 151.5q0 78 18.5 140.5t40.5 76.5zM848 608q-29 12 -63 37t-58 51l-70 -102q-33 14 -72.5 42t-64.5 62l94 125q20 -27 51 -55.5t60 -44.5l80 115q27 -31 67.5 -60.5t69.5 -44.5z" />
<glyph unicode="&#x62a;" horiz-adv-x="471" arabic-form="initial" d="M283 678q45 -66 69.5 -151t24.5 -169q0 -55 -19.5 -120.5t-62.5 -126.5q-41 -63 -121 -94t-174 -31q-23 0 -39 17t-16 63q0 37 14 59t41 22q90 0 157.5 16.5t123.5 49.5q-12 90 -41 167t-64 122zM355 815q-29 12 -63 37t-58 51l-70 -102q-33 14 -72.5 42t-64.5 62l94 125 q20 -27 51 -55.5t60 -44.5l80 115q27 -31 67.5 -60.5t69.5 -44.5z" />
<glyph unicode="&#x62a;" horiz-adv-x="624" arabic-form="medial" d="M301 446q35 -158 114 -228.5t210 -70.5q23 0 42 -20.5t19 -58.5q0 -39 -19.5 -60.5t-41.5 -21.5q-129 0 -210 48t-128 150q-45 -94 -116 -146t-171 -52q-23 0 -39 20.5t-16 61.5q0 39 15 59t40 20q78 0 141.5 30t110.5 104l-12 90zM377 608q-29 12 -63 37t-58 51 l-70 -102q-33 14 -72.5 42t-64.5 62l94 125q20 -27 51 -55.5t60 -44.5l80 115q27 -31 67.5 -60.5t69.5 -44.5z" />
<glyph unicode="&#x62b;" horiz-adv-x="1646" arabic-form="final" d="M174 555q-4 -23 -8 -52.5t-4 -45.5q0 -90 29.5 -151.5t94 -99.5t167 -55.5t249.5 -17.5q266 0 460 65.5t327 188.5l49 -8l-72 -105q29 -127 181 -127q23 0 42 -20.5t19 -58.5q0 -39 -19.5 -60.5t-41.5 -21.5q-113 0 -174.5 52t-61.5 183q-131 -117 -335 -187.5 t-466 -70.5q-154 0 -256 22.5t-164.5 66.5t-88 109.5t-25.5 151.5q0 78 18.5 140.5t40.5 76.5zM742 819q-12 4 -33 17.5t-40.5 31t-34.5 34t-21 26.5l98 121q18 -29 56 -64t69 -51zM871 608q-29 12 -63 37t-58 51l-70 -102q-33 14 -72.5 42t-64.5 62l94 125q20 -27 51 -55.5 t60 -44.5l80 115q27 -31 67.5 -60.5t69.5 -44.5z" />
<glyph unicode="&#x62b;" horiz-adv-x="471" arabic-form="initial" d="M283 678q45 -66 69.5 -151t24.5 -169q0 -55 -19.5 -120.5t-62.5 -126.5q-41 -63 -121 -94t-174 -31q-23 0 -39 17t-16 63q0 37 14 59t41 22q90 0 157.5 16.5t123.5 49.5q-12 90 -41 167t-64 122zM226 1026q-12 4 -33 17.5t-40.5 31t-34.5 34t-21 26.5l98 121 q18 -29 56 -64t69 -51zM355 815q-29 12 -63 37t-58 51l-70 -102q-33 14 -72.5 42t-64.5 62l94 125q20 -27 51 -55.5t60 -44.5l80 115q27 -31 67.5 -60.5t69.5 -44.5z" />
<glyph unicode="&#x62b;" horiz-adv-x="624" arabic-form="medial" d="M301 446q35 -158 114 -228.5t210 -70.5q23 0 42 -20.5t19 -58.5q0 -39 -19.5 -60.5t-41.5 -21.5q-129 0 -210 48t-128 150q-45 -94 -116 -146t-171 -52q-23 0 -39 20.5t-16 61.5q0 39 15 59t40 20q78 0 141.5 30t110.5 104l-12 90zM269 819q-12 4 -33 17.5t-40.5 31 t-34.5 34t-21 26.5l98 121q18 -29 56 -64t69 -51zM398 608q-29 12 -63 37t-58 51l-70 -102q-33 14 -72.5 42t-64.5 62l94 125q20 -27 51 -55.5t60 -44.5l80 115q27 -31 67.5 -60.5t69.5 -44.5z" />
<glyph unicode="&#x62c;" horiz-adv-x="1056" arabic-form="final" d="M92 393q-14 18 -14 37q0 49 63 125q43 51 92.5 75.5t83.5 24.5q43 0 101.5 -19.5t156.5 -66.5q55 -25 100.5 -41t94.5 -25t106.5 -13.5t135.5 -4.5l-51 -143q-57 0 -113.5 -6t-87.5 -12q-10 -102 66.5 -139.5t230.5 -37.5q23 0 42 -20.5t19 -58.5q0 -39 -19.5 -60.5 t-41.5 -21.5q-197 0 -280 66.5t-83 172.5q0 23 4 47.5t11 40.5q-88 -23 -186.5 -68.5t-180.5 -113.5t-136 -157t-54 -195q0 -156 129 -245t362 -89q129 0 240.5 15.5t189.5 43.5l-8 -43q-4 -18 -46 -48.5t-112.5 -61.5t-164 -53.5t-197.5 -22.5q-117 0 -210 26.5t-158.5 81 t-100.5 133t-35 183.5q0 131 44 238.5t121 193.5t180 152.5t222 119.5q-74 43 -151.5 66t-155.5 31q-49 -14 -105.5 -44t-103.5 -63zM598 -293q-33 14 -72.5 45t-64.5 66l100 122q25 -33 66 -63.5t70 -46.5z" />
<glyph unicode="&#x62c;" horiz-adv-x="1034" arabic-form="initial" d="M0 -14q-23 0 -39 18.5t-16 61.5q0 37 14 59t41 22q193 0 369 46.5t309 132.5q-41 25 -90 48t-100.5 44.5t-99.5 39t-85 27.5q-51 -10 -109.5 -32.5t-109.5 -51.5q-10 16 -10 35q0 23 16 50.5t64 68.5q49 45 94 64.5t88 19.5q20 0 42.5 -5t53.5 -19.5t73 -37t101 -57.5 q70 -41 118 -64.5t89 -36.5t83 -17.5t97 -4.5l-53 -151q-59 0 -107.5 -4t-99.5 -16.5t-109.5 -36t-140.5 -64.5q-84 -43 -150.5 -70.5t-122.5 -43t-107.5 -20.5t-102.5 -5zM561 -391q-33 14 -72.5 45t-64.5 66l100 122q25 -33 66 -63.5t70 -46.5z" />
<glyph unicode="&#x62c;" horiz-adv-x="1130" arabic-form="medial" d="M96 383q-6 8 -9 18.5t-3 20.5q0 23 15.5 54.5t47.5 70.5q41 49 90.5 73.5t84.5 24.5q43 0 101 -19.5t157 -66.5q55 -25 100 -41t94 -25.5t106.5 -15.5t143.5 -6l-51 -143q-86 0 -124 -4.5t-67 -16.5q-2 -4 -2 -10v-10q0 -43 24.5 -70t65.5 -42t115 -21.5t145 -6.5 q23 0 42.5 -20.5t19.5 -58.5q0 -39 -19.5 -60.5t-42.5 -21.5q-221 0 -318 62.5t-97 166.5q0 33 10 74q-16 -8 -36.5 -19.5t-49.5 -30t-68 -45t-92 -63.5q-59 -41 -113.5 -68.5t-108.5 -44t-111.5 -24.5t-145.5 -8q-23 0 -39 20.5t-16 59.5q0 82 55 81q117 0 198 12.5 t156.5 39t151.5 70.5t164 106q-88 47 -184.5 76.5t-180.5 37.5q-49 -14 -105.5 -43.5t-103.5 -62.5zM608 -389q-33 14 -72.5 45t-64.5 66l100 122q25 -33 66 -63.5t70 -46.5z" />
<glyph unicode="&#x62d;" horiz-adv-x="1056" arabic-form="final" d="M92 393q-14 18 -14 37q0 49 63 125q43 51 92.5 75.5t83.5 24.5q43 0 101.5 -19.5t156.5 -66.5q55 -25 100.5 -41t94.5 -25t106.5 -13.5t135.5 -4.5l-51 -143q-57 0 -113.5 -6t-87.5 -12q-10 -102 66.5 -139.5t230.5 -37.5q23 0 42 -20.5t19 -58.5q0 -39 -19.5 -60.5 t-41.5 -21.5q-197 0 -280 66.5t-83 172.5q0 23 4 47.5t11 40.5q-88 -23 -186.5 -68.5t-180.5 -113.5t-136 -157t-54 -195q0 -156 129 -245t362 -89q129 0 240.5 15.5t189.5 43.5l-8 -43q-4 -18 -46 -48.5t-112.5 -61.5t-164 -53.5t-197.5 -22.5q-117 0 -210 26.5t-158.5 81 t-100.5 133t-35 183.5q0 131 44 238.5t121 193.5t180 152.5t222 119.5q-74 43 -151.5 66t-155.5 31q-49 -14 -105.5 -44t-103.5 -63z" />
<glyph unicode="&#x62d;" horiz-adv-x="1034" arabic-form="initial" d="M0 -14q-23 0 -39 18.5t-16 61.5q0 37 14 59t41 22q193 0 369 46.5t309 132.5q-41 25 -90 48t-100.5 44.5t-99.5 39t-85 27.5q-51 -10 -109.5 -32.5t-109.5 -51.5q-10 16 -10 35q0 23 16 50.5t64 68.5q49 45 94 64.5t88 19.5q20 0 42.5 -5t53.5 -19.5t73 -37t101 -57.5 q70 -41 118 -64.5t89 -36.5t83 -17.5t97 -4.5l-53 -151q-59 0 -107.5 -4t-99.5 -16.5t-109.5 -36t-140.5 -64.5q-84 -43 -150.5 -70.5t-122.5 -43t-107.5 -20.5t-102.5 -5z" />
<glyph unicode="&#x62d;" horiz-adv-x="1130" arabic-form="medial" d="M96 383q-6 8 -9 18.5t-3 20.5q0 23 15.5 54.5t47.5 70.5q41 49 90.5 73.5t84.5 24.5q43 0 101 -19.5t157 -66.5q55 -25 100 -41t94 -25.5t106.5 -15.5t143.5 -6l-51 -143q-86 0 -124 -4.5t-67 -16.5q-2 -4 -2 -10v-10q0 -43 24.5 -70t65.5 -42t115 -21.5t145 -6.5 q23 0 42.5 -20.5t19.5 -58.5q0 -39 -19.5 -60.5t-42.5 -21.5q-221 0 -318 62.5t-97 166.5q0 33 10 74q-16 -8 -36.5 -19.5t-49.5 -30t-68 -45t-92 -63.5q-59 -41 -113.5 -68.5t-108.5 -44t-111.5 -24.5t-145.5 -8q-23 0 -39 20.5t-16 59.5q0 82 55 81q117 0 198 12.5 t156.5 39t151.5 70.5t164 106q-88 47 -184.5 76.5t-180.5 37.5q-49 -14 -105.5 -43.5t-103.5 -62.5z" />
<glyph unicode="&#x62e;" horiz-adv-x="1056" arabic-form="final" d="M92 393q-14 18 -14 37q0 49 63 125q43 51 92.5 75.5t83.5 24.5q43 0 101.5 -19.5t156.5 -66.5q55 -25 100.5 -41t94.5 -25t106.5 -13.5t135.5 -4.5l-51 -143q-57 0 -113.5 -6t-87.5 -12q-10 -102 66.5 -139.5t230.5 -37.5q23 0 42 -20.5t19 -58.5q0 -39 -19.5 -60.5 t-41.5 -21.5q-197 0 -280 66.5t-83 172.5q0 23 4 47.5t11 40.5q-88 -23 -186.5 -68.5t-180.5 -113.5t-136 -157t-54 -195q0 -156 129 -245t362 -89q129 0 240.5 15.5t189.5 43.5l-8 -43q-4 -18 -46 -48.5t-112.5 -61.5t-164 -53.5t-197.5 -22.5q-117 0 -210 26.5t-158.5 81 t-100.5 133t-35 183.5q0 131 44 238.5t121 193.5t180 152.5t222 119.5q-74 43 -151.5 66t-155.5 31q-49 -14 -105.5 -44t-103.5 -63zM327 801q-33 14 -72.5 45t-64.5 66l100 122q25 -33 66 -63.5t70 -46.5z" />
<glyph unicode="&#x62e;" horiz-adv-x="1034" arabic-form="initial" d="M0 -14q-23 0 -39 18.5t-16 61.5q0 37 14 59t41 22q193 0 369 46.5t309 132.5q-41 25 -90 48t-100.5 44.5t-99.5 39t-85 27.5q-51 -10 -109.5 -32.5t-109.5 -51.5q-10 16 -10 35q0 23 16 50.5t64 68.5q49 45 94 64.5t88 19.5q20 0 42.5 -5t53.5 -19.5t73 -37t101 -57.5 q70 -41 118 -64.5t89 -36.5t83 -17.5t97 -4.5l-53 -151q-59 0 -107.5 -4t-99.5 -16.5t-109.5 -36t-140.5 -64.5q-84 -43 -150.5 -70.5t-122.5 -43t-107.5 -20.5t-102.5 -5zM313 801q-33 14 -72.5 45t-64.5 66l100 122q25 -33 66 -63.5t70 -46.5z" />
<glyph unicode="&#x62e;" horiz-adv-x="1130" arabic-form="medial" d="M96 383q-6 8 -9 18.5t-3 20.5q0 23 15.5 54.5t47.5 70.5q41 49 90.5 73.5t84.5 24.5q43 0 101 -19.5t157 -66.5q55 -25 100 -41t94 -25.5t106.5 -15.5t143.5 -6l-51 -143q-86 0 -124 -4.5t-67 -16.5q-2 -4 -2 -10v-10q0 -43 24.5 -70t65.5 -42t115 -21.5t145 -6.5 q23 0 42.5 -20.5t19.5 -58.5q0 -39 -19.5 -60.5t-42.5 -21.5q-221 0 -318 62.5t-97 166.5q0 33 10 74q-16 -8 -36.5 -19.5t-49.5 -30t-68 -45t-92 -63.5q-59 -41 -113.5 -68.5t-108.5 -44t-111.5 -24.5t-145.5 -8q-23 0 -39 20.5t-16 59.5q0 82 55 81q117 0 198 12.5 t156.5 39t151.5 70.5t164 106q-88 47 -184.5 76.5t-180.5 37.5q-49 -14 -105.5 -43.5t-103.5 -62.5zM338 801q-33 14 -72.5 45t-64.5 66l100 122q25 -33 66 -63.5t70 -46.5z" />
<glyph unicode="&#x62f;" horiz-adv-x="985" arabic-form="final" d="M215 365q-6 -20 -8 -40t-2 -49q0 -59 43 -94t129 -35t147.5 25t102.5 68q-18 68 -46 189.5t-57 313.5l127 109q41 -371 90 -541q14 -47 33 -77.5t47.5 -50t68.5 -28t95 -8.5q23 0 42.5 -20.5t19.5 -58.5q0 -39 -19.5 -60.5t-42.5 -21.5q-78 0 -134 12t-97 37.5t-68 64.5 t-43 95l-53 -148q-45 -31 -100.5 -46t-135.5 -15q-98 0 -159.5 58t-61.5 155q0 57 15.5 94t33.5 49l33 23v0z" />
<glyph unicode="&#x630;" horiz-adv-x="985" arabic-form="final" d="M215 365q-6 -20 -8 -40t-2 -49q0 -59 43 -94t129 -35t147.5 25t102.5 68q-18 68 -46 189.5t-57 313.5l127 109q41 -371 90 -541q14 -47 33 -77.5t47.5 -50t68.5 -28t95 -8.5q23 0 42.5 -20.5t19.5 -58.5q0 -39 -19.5 -60.5t-42.5 -21.5q-78 0 -134 12t-97 37.5t-68 64.5 t-43 95l-53 -148q-45 -31 -100.5 -46t-135.5 -15q-98 0 -159.5 58t-61.5 155q0 57 15.5 94t33.5 49l33 23v0zM563 944q-33 14 -72.5 45t-64.5 66l100 122q25 -33 66 -63.5t70 -46.5z" />
<glyph unicode="&#x631;" horiz-adv-x="804" arabic-form="final" d="M553 330q41 -51 72.5 -86t61.5 -56.5t57.5 -31t60.5 -9.5q23 0 42 -20.5t19 -58.5q0 -39 -19.5 -60.5t-41.5 -21.5q-41 0 -75 10t-66 33l-2 -2q14 -35 14 -86q0 -43 -17.5 -98.5t-54.5 -113t-93 -112.5t-134 -96l-262 33l-29 40q221 61 349 158.5t169 194.5 q-4 47 -32.5 108.5t-92.5 132.5z" />
<glyph unicode="&#x632;" horiz-adv-x="804" arabic-form="final" d="M553 330q41 -51 72.5 -86t61.5 -56.5t57.5 -31t60.5 -9.5q23 0 42 -20.5t19 -58.5q0 -39 -19.5 -60.5t-41.5 -21.5q-41 0 -75 10t-66 33l-2 -2q14 -35 14 -86q0 -43 -17.5 -98.5t-54.5 -113t-93 -112.5t-134 -96l-262 33l-29 40q221 61 349 158.5t169 194.5 q-4 47 -32.5 108.5t-92.5 132.5zM534 473q-33 14 -72.5 45t-64.5 66l100 122q25 -33 66 -63.5t70 -46.5z" />
<glyph unicode="&#x633;" horiz-adv-x="1718" arabic-form="final" d="M178 260q-16 -39 -24.5 -98.5t-8.5 -118.5q0 -154 72 -230.5t232 -76.5q123 0 225 41t155 112q-10 119 -32.5 207t-53.5 148l97 133q39 -111 93 -168t101 -57q45 0 80 40.5t76 159.5l63 29l-14 -72q4 -82 29.5 -122t66.5 -40q43 0 82 59.5t58 188.5l71 27l-12 -86 q6 -86 59.5 -137.5t124.5 -51.5q23 0 42.5 -20.5t19.5 -58.5q0 -39 -19.5 -60.5t-42.5 -21.5q-86 0 -149.5 46t-83.5 130q-29 -94 -71 -135t-103 -41q-55 0 -94 37.5t-54 115.5q-31 -80 -66.5 -114.5t-74.5 -34.5q-35 0 -59.5 16.5t-38.5 40.5l-2 -2q2 -92 -13.5 -159.5 t-54.5 -129.5q-49 -78 -157.5 -134t-272.5 -56q-193 0 -283 100.5t-90 274.5q0 53 8.5 102t21.5 89t28.5 67.5t31.5 38.5l37 22v0z" />
<glyph unicode="&#x633;" horiz-adv-x="1079" arabic-form="initial" d="M883 594q25 -27 48 -63.5t39.5 -77.5t27 -82t10.5 -76t-7.5 -82t-31.5 -96q-33 -66 -64 -90.5t-65 -24.5q-66 0 -138.5 50t-119.5 145q-23 -57 -44.5 -95.5t-44 -61t-47 -31.5t-53.5 -9q-53 0 -100 42t-76 128q-29 -53 -56.5 -89t-53 -57.5t-52 -29.5t-55.5 -8 q-23 0 -40 18.5t-17 61.5q0 37 17 59t40 22q82 0 145.5 51.5t114.5 161.5l62 27l-17 -70q16 -76 52 -115.5t75 -39.5q18 0 37.5 12t40 40t43 74t49.5 115l66 27l-19 -78q35 -84 103.5 -136t169.5 -52q-6 78 -38 151.5t-75 122.5z" />
<glyph unicode="&#x633;" horiz-adv-x="1191" arabic-form="medial" d="M985 336q14 -96 69.5 -142.5t137.5 -46.5q23 0 42 -20.5t19 -58.5q0 -39 -19.5 -60.5t-41.5 -21.5q-102 0 -169 50t-87 138q-33 -92 -81 -131t-101 -39q-61 0 -97 40t-45 110q-45 -94 -91 -131t-105 -37q-68 0 -115 45t-65 125q-47 -94 -107.5 -132t-128.5 -38 q-20 0 -37.5 21.5t-17.5 60.5q0 33 16 56t39 23q88 0 152.5 42t115.5 141l60 14l-21 -61q16 -59 55 -97.5t93 -38.5q53 0 95 41t87 164l63 29l-12 -72q4 -63 29.5 -103t64.5 -40q106 0 150 227l69 29z" />
<glyph unicode="&#x634;" horiz-adv-x="1718" arabic-form="final" d="M178 260q-16 -39 -24.5 -98.5t-8.5 -118.5q0 -154 72 -230.5t232 -76.5q123 0 225 41t155 112q-10 119 -32.5 207t-53.5 148l97 133q39 -111 93 -168t101 -57q45 0 80 40.5t76 159.5l63 29l-14 -72q4 -82 29.5 -122t66.5 -40q43 0 82 59.5t58 188.5l71 27l-12 -86 q6 -86 59.5 -137.5t124.5 -51.5q23 0 42.5 -20.5t19.5 -58.5q0 -39 -19.5 -60.5t-42.5 -21.5q-86 0 -149.5 46t-83.5 130q-29 -94 -71 -135t-103 -41q-55 0 -94 37.5t-54 115.5q-31 -80 -66.5 -114.5t-74.5 -34.5q-35 0 -59.5 16.5t-38.5 40.5l-2 -2q2 -92 -13.5 -159.5 t-54.5 -129.5q-49 -78 -157.5 -134t-272.5 -56q-193 0 -283 100.5t-90 274.5q0 53 8.5 102t21.5 89t28.5 67.5t31.5 38.5l37 22v0zM1147 751q-12 4 -33 17.5t-40.5 31t-34.5 34t-21 26.5l98 121q18 -29 56 -64t69 -51zM1276 540q-29 12 -63 37t-58 51l-70 -102 q-33 14 -72.5 42t-64.5 62l94 125q20 -27 51 -55.5t60 -44.5l80 115q27 -31 67.5 -60.5t69.5 -44.5z" />
<glyph unicode="&#x634;" horiz-adv-x="1079" arabic-form="initial" d="M883 594q25 -27 48 -63.5t39.5 -77.5t27 -82t10.5 -76t-7.5 -82t-31.5 -96q-33 -66 -64 -90.5t-65 -24.5q-66 0 -138.5 50t-119.5 145q-23 -57 -44.5 -95.5t-44 -61t-47 -31.5t-53.5 -9q-53 0 -100 42t-76 128q-29 -53 -56.5 -89t-53 -57.5t-52 -29.5t-55.5 -8 q-23 0 -40 18.5t-17 61.5q0 37 17 59t40 22q82 0 145.5 51.5t114.5 161.5l62 27l-17 -70q16 -76 52 -115.5t75 -39.5q18 0 37.5 12t40 40t43 74t49.5 115l66 27l-19 -78q35 -84 103.5 -136t169.5 -52q-6 78 -38 151.5t-75 122.5zM510 792q-12 4 -33 17.5t-40.5 31t-34.5 34 t-21 26.5l98 121q18 -29 56 -64t69 -51zM639 581q-29 12 -63 37t-58 51l-70 -102q-33 14 -72.5 42t-64.5 62l94 125q20 -27 51 -55.5t60 -44.5l80 115q27 -31 67.5 -60.5t69.5 -44.5z" />
<glyph unicode="&#x634;" horiz-adv-x="1191" arabic-form="medial" d="M985 336q14 -96 69.5 -142.5t137.5 -46.5q23 0 42 -20.5t19 -58.5q0 -39 -19.5 -60.5t-41.5 -21.5q-102 0 -169 50t-87 138q-33 -92 -81 -131t-101 -39q-61 0 -97 40t-45 110q-45 -94 -91 -131t-105 -37q-68 0 -115 45t-65 125q-47 -94 -107.5 -132t-128.5 -38 q-20 0 -37.5 21.5t-17.5 60.5q0 33 16 56t39 23q88 0 152.5 42t115.5 141l60 14l-21 -61q16 -59 55 -97.5t93 -38.5q53 0 95 41t87 164l63 29l-12 -72q4 -63 29.5 -103t64.5 -40q106 0 150 227l69 29zM609 751q-12 4 -33 17.5t-40.5 31t-34.5 34t-21 26.5l98 121 q18 -29 56 -64t69 -51zM738 540q-29 12 -63 37t-58 51l-70 -102q-33 14 -72.5 42t-64.5 62l94 125q20 -27 51 -55.5t60 -44.5l80 115q27 -31 67.5 -60.5t69.5 -44.5z" />
<glyph unicode="&#x635;" horiz-adv-x="1839" arabic-form="final" d="M1696 166q35 -10 65.5 -14.5t77.5 -4.5q23 0 42.5 -20.5t19.5 -58.5q0 -39 -19.5 -60.5t-42.5 -21.5q-70 0 -126 22.5t-111 75.5q-39 -23 -89.5 -41t-103.5 -30.5t-107.5 -19.5t-101.5 -7q-100 0 -167.5 17t-110.5 46v-10q0 -86 -15.5 -154.5t-52.5 -128.5 q-49 -78 -157.5 -134t-272.5 -56q-193 0 -283 100.5t-90 274.5q0 53 8.5 102t21.5 89t28.5 67.5t31.5 38.5l37 22q-16 -39 -24.5 -98.5t-8.5 -118.5q0 -154 72 -230.5t232 -76.5q123 0 225 41t155 112q-10 119 -32.5 207t-53.5 148l97 133q23 -59 54.5 -109.5t76.5 -83.5 q51 86 120.5 168t145.5 146.5t154.5 103.5t150.5 39q47 0 90 -23.5t76 -63.5t52.5 -92t19.5 -112q0 -33 -23.5 -82t-60.5 -102zM1679 250q-14 109 -65 169t-127 60q-45 0 -101.5 -27.5t-116 -71.5t-117.5 -101.5t-108 -118.5q23 -4 59 -8.5t75 -4.5q164 0 293.5 28t207.5 75 z" />
<glyph unicode="&#x635;" horiz-adv-x="1271" arabic-form="initial" d="M262 342q6 -18 21.5 -40.5t34 -45.5t38 -42t35.5 -30q51 86 121 168t145.5 146.5t154.5 103.5t151 39q47 0 90 -23.5t75.5 -63.5t52 -92t19.5 -112q0 -35 -27.5 -91t-72.5 -114q-29 -35 -83 -63.5t-124 -50t-146.5 -33.5t-148.5 -12q-113 0 -207 38.5t-162 133.5 q-35 -82 -91 -127t-138 -45q-23 0 -39 23.5t-16 58.5q0 31 16 55t39 24q78 0 129 34t94 128zM1100 250q-14 109 -65.5 169t-125.5 60q-45 0 -102 -27.5t-116.5 -71.5t-118 -101.5t-107.5 -118.5q23 -4 58.5 -8.5t74.5 -4.5q164 0 294 28t208 75z" />
<glyph unicode="&#x635;" horiz-adv-x="1259" arabic-form="medial" d="M262 342q6 -18 21.5 -40.5t34 -45.5t38 -42t35.5 -30q51 86 121 168t145.5 146.5t154.5 103.5t151 39q47 0 90 -23.5t75.5 -63.5t52 -92t19.5 -112q0 -33 -23.5 -82t-62.5 -102q35 -10 66.5 -14.5t79.5 -4.5q23 0 42 -20.5t19 -58.5q0 -39 -19.5 -60.5t-41.5 -21.5 q-70 0 -126.5 23.5t-109.5 76.5q-41 -23 -91 -41t-106.5 -31.5t-115 -20.5t-113.5 -7q-113 0 -207 38.5t-162 133.5q-35 -82 -91 -127t-138 -45q-23 0 -39 23.5t-16 58.5q0 31 16 55t39 24q78 0 129 34t94 128zM1100 250q-14 109 -65.5 169t-125.5 60q-45 0 -102 -27.5 t-116.5 -71.5t-118 -101.5t-107.5 -118.5q23 -4 58.5 -8.5t74.5 -4.5q164 0 294 28t208 75z" />
<glyph unicode="&#x636;" horiz-adv-x="1839" arabic-form="final" d="M1696 166q35 -10 65.5 -14.5t77.5 -4.5q23 0 42.5 -20.5t19.5 -58.5q0 -39 -19.5 -60.5t-42.5 -21.5q-70 0 -126 22.5t-111 75.5q-39 -23 -89.5 -41t-103.5 -30.5t-107.5 -19.5t-101.5 -7q-100 0 -167.5 17t-110.5 46v-10q0 -86 -15.5 -154.5t-52.5 -128.5 q-49 -78 -157.5 -134t-272.5 -56q-193 0 -283 100.5t-90 274.5q0 53 8.5 102t21.5 89t28.5 67.5t31.5 38.5l37 22q-16 -39 -24.5 -98.5t-8.5 -118.5q0 -154 72 -230.5t232 -76.5q123 0 225 41t155 112q-10 119 -32.5 207t-53.5 148l97 133q23 -59 54.5 -109.5t76.5 -83.5 q51 86 120.5 168t145.5 146.5t154.5 103.5t150.5 39q47 0 90 -23.5t76 -63.5t52.5 -92t19.5 -112q0 -33 -23.5 -82t-60.5 -102zM1679 250q-14 109 -65 169t-127 60q-45 0 -101.5 -27.5t-116 -71.5t-117.5 -101.5t-108 -118.5q23 -4 59 -8.5t75 -4.5q164 0 293.5 28t207.5 75 zM1224 801q-33 14 -72.5 45t-64.5 66l100 122q25 -33 66 -63.5t70 -46.5z" />
<glyph unicode="&#x636;" horiz-adv-x="1271" arabic-form="initial" d="M262 342q6 -18 21.5 -40.5t34 -45.5t38 -42t35.5 -30q51 86 121 168t145.5 146.5t154.5 103.5t151 39q47 0 90 -23.5t75.5 -63.5t52 -92t19.5 -112q0 -35 -27.5 -91t-72.5 -114q-29 -35 -83 -63.5t-124 -50t-146.5 -33.5t-148.5 -12q-113 0 -207 38.5t-162 133.5 q-35 -82 -91 -127t-138 -45q-23 0 -39 23.5t-16 58.5q0 31 16 55t39 24q78 0 129 34t94 128zM1100 250q-14 109 -65.5 169t-125.5 60q-45 0 -102 -27.5t-116.5 -71.5t-118 -101.5t-107.5 -118.5q23 -4 58.5 -8.5t74.5 -4.5q164 0 294 28t208 75zM622 801q-33 14 -72.5 45 t-64.5 66l100 122q25 -33 66 -63.5t70 -46.5z" />
<glyph unicode="&#x636;" horiz-adv-x="1259" arabic-form="medial" d="M262 342q6 -18 21.5 -40.5t34 -45.5t38 -42t35.5 -30q51 86 121 168t145.5 146.5t154.5 103.5t151 39q47 0 90 -23.5t75.5 -63.5t52 -92t19.5 -112q0 -33 -23.5 -82t-62.5 -102q35 -10 66.5 -14.5t79.5 -4.5q23 0 42 -20.5t19 -58.5q0 -39 -19.5 -60.5t-41.5 -21.5 q-70 0 -126.5 23.5t-109.5 76.5q-41 -23 -91 -41t-106.5 -31.5t-115 -20.5t-113.5 -7q-113 0 -207 38.5t-162 133.5q-35 -82 -91 -127t-138 -45q-23 0 -39 23.5t-16 58.5q0 31 16 55t39 24q78 0 129 34t94 128zM1100 250q-14 109 -65.5 169t-125.5 60q-45 0 -102 -27.5 t-116.5 -71.5t-118 -101.5t-107.5 -118.5q23 -4 58.5 -8.5t74.5 -4.5q164 0 294 28t208 75zM622 801q-33 14 -72.5 45t-64.5 66l100 122q25 -33 66 -63.5t70 -46.5z" />
<glyph unicode="&#x637;" horiz-adv-x="1171" arabic-form="final" d="M397 1272q6 -29 19.5 -63.5t32 -67.5t40 -60.5t41.5 -46.5l-104 -65q0 -88 3 -191.5t3 -179.5q0 -33 -2 -74t-5 -83t-8 -77.5t-11 -60.5h8q49 72 103 133.5t111.5 107.5t118 71.5t119.5 25.5q47 0 90 -23.5t76 -63.5t52.5 -92t19.5 -112q0 -31 -21.5 -78t-56.5 -96 q39 -16 75 -22.5t70 -6.5q23 0 42.5 -20.5t19.5 -58.5q0 -39 -19.5 -60.5t-42.5 -21.5q-145 0 -237 96q-68 -47 -169 -71.5t-208 -24.5q-68 0 -138.5 8t-136 21.5t-124 30.5t-103.5 38l-39 125q74 -14 138.5 -23.5t140.5 -15.5l18 29q4 23 6.5 55.5t4.5 67t2 68.5v59 q0 119 -3.5 207.5t-13.5 164.5q-10 78 -15 140.5t-9 136.5q-10 27 -15 71zM369 160q23 -4 58.5 -8.5t74.5 -4.5q164 0 294 28t208 75q-14 109 -65.5 169t-127.5 60q-45 0 -101.5 -27.5t-115.5 -71.5t-117.5 -101.5t-107.5 -118.5z" />
<glyph unicode="&#x637;" horiz-adv-x="999" arabic-form="initial" d="M221 1272q6 -29 19.5 -63.5t32 -67.5t40 -60.5t43.5 -46.5l-106 -65q0 -88 3 -191.5t3 -179.5q0 -33 -2 -74t-5 -83t-8 -77.5t-12 -60.5h9q49 72 103 133.5t111.5 107.5t118 71.5t119.5 25.5q47 0 90 -23.5t76 -63.5t52.5 -92t19.5 -112q0 -35 -27 -91t-74 -114 q-29 -37 -73.5 -66.5t-109 -50t-151.5 -31.5t-202 -11h-291q-23 0 -39 21.5t-16 62.5q0 37 15 57t40 20h115l22 46q2 25 5 58.5t4 69t2.5 69.5t1.5 59q0 119 -3.5 207.5t-13.5 164.5q-10 78 -15 140.5t-9 136.5q-10 27 -15 71zM326 147q164 0 294 28t207 75q-14 109 -65 169 t-127 60q-45 0 -101.5 -27.5t-116 -73.5t-117.5 -105.5t-105 -125.5h131z" />
<glyph unicode="&#x637;" horiz-adv-x="995" arabic-form="medial" d="M221 1272q6 -29 19.5 -63.5t32 -67.5t40 -60.5t43.5 -46.5l-106 -65q0 -88 3 -191.5t3 -179.5q0 -33 -2 -74t-5 -83t-8 -77.5t-12 -60.5h9q49 72 103 133.5t111.5 107.5t118 71.5t119.5 25.5q47 0 90 -23.5t76 -63.5t52.5 -92t19.5 -112q0 -31 -21.5 -78t-56.5 -96 q39 -16 75 -22.5t70 -6.5q23 0 42.5 -20.5t19.5 -58.5q0 -39 -19.5 -60.5t-42.5 -21.5q-145 0 -237 96q-68 -47 -180.5 -71.5t-286.5 -24.5h-291q-23 0 -39 21.5t-16 62.5q0 37 15 57t40 20h115l22 46q2 25 5 58.5t4 69t2.5 69.5t1.5 59q0 119 -3.5 207.5t-13.5 164.5 q-10 78 -15 140.5t-9 136.5q-10 27 -15 71zM326 147q164 0 294 28t207 75q-14 109 -65 169t-127 60q-45 0 -101.5 -27.5t-116 -73.5t-117.5 -105.5t-105 -125.5h131z" />
<glyph unicode="&#x638;" horiz-adv-x="1171" arabic-form="final" d="M397 1272q6 -29 19.5 -63.5t32 -67.5t40 -60.5t41.5 -46.5l-104 -65q0 -88 3 -191.5t3 -179.5q0 -33 -2 -74t-5 -83t-8 -77.5t-11 -60.5h8q49 72 103 133.5t111.5 107.5t118 71.5t119.5 25.5q47 0 90 -23.5t76 -63.5t52.5 -92t19.5 -112q0 -31 -21.5 -78t-56.5 -96 q39 -16 75 -22.5t70 -6.5q23 0 42.5 -20.5t19.5 -58.5q0 -39 -19.5 -60.5t-42.5 -21.5q-145 0 -237 96q-68 -47 -169 -71.5t-208 -24.5q-68 0 -138.5 8t-136 21.5t-124 30.5t-103.5 38l-39 125q74 -14 138.5 -23.5t140.5 -15.5l18 29q4 23 6.5 55.5t4.5 67t2 68.5v59 q0 119 -3.5 207.5t-13.5 164.5q-10 78 -15 140.5t-9 136.5q-10 27 -15 71zM369 160q23 -4 58.5 -8.5t74.5 -4.5q164 0 294 28t208 75q-14 109 -65.5 169t-127.5 60q-45 0 -101.5 -27.5t-115.5 -71.5t-117.5 -101.5t-107.5 -118.5zM821 801q-33 14 -72.5 45t-64.5 66l100 122 q25 -33 66 -63.5t70 -46.5z" />
<glyph unicode="&#x638;" horiz-adv-x="999" arabic-form="initial" d="M221 1272q6 -29 19.5 -63.5t32 -67.5t40 -60.5t43.5 -46.5l-106 -65q0 -88 3 -191.5t3 -179.5q0 -33 -2 -74t-5 -83t-8 -77.5t-12 -60.5h9q49 72 103 133.5t111.5 107.5t118 71.5t119.5 25.5q47 0 90 -23.5t76 -63.5t52.5 -92t19.5 -112q0 -35 -27 -91t-74 -114 q-29 -37 -73.5 -66.5t-109 -50t-151.5 -31.5t-202 -11h-291q-23 0 -39 21.5t-16 62.5q0 37 15 57t40 20h115l22 46q2 25 5 58.5t4 69t2.5 69.5t1.5 59q0 119 -3.5 207.5t-13.5 164.5q-10 78 -15 140.5t-9 136.5q-10 27 -15 71zM326 147q164 0 294 28t207 75q-14 109 -65 169 t-127 60q-45 0 -101.5 -27.5t-116 -73.5t-117.5 -105.5t-105 -125.5h131zM616 801q-33 14 -72.5 45t-64.5 66l100 122q25 -33 66 -63.5t70 -46.5z" />
<glyph unicode="&#x638;" horiz-adv-x="995" arabic-form="medial" d="M221 1272q6 -29 19.5 -63.5t32 -67.5t40 -60.5t43.5 -46.5l-106 -65q0 -88 3 -191.5t3 -179.5q0 -33 -2 -74t-5 -83t-8 -77.5t-12 -60.5h9q49 72 103 133.5t111.5 107.5t118 71.5t119.5 25.5q47 0 90 -23.5t76 -63.5t52.5 -92t19.5 -112q0 -31 -21.5 -78t-56.5 -96 q39 -16 75 -22.5t70 -6.5q23 0 42.5 -20.5t19.5 -58.5q0 -39 -19.5 -60.5t-42.5 -21.5q-145 0 -237 96q-68 -47 -180.5 -71.5t-286.5 -24.5h-291q-23 0 -39 21.5t-16 62.5q0 37 15 57t40 20h115l22 46q2 25 5 58.5t4 69t2.5 69.5t1.5 59q0 119 -3.5 207.5t-13.5 164.5 q-10 78 -15 140.5t-9 136.5q-10 27 -15 71zM326 147q164 0 294 28t207 75q-14 109 -65 169t-127 60q-45 0 -101.5 -27.5t-116 -73.5t-117.5 -105.5t-105 -125.5h131zM616 801q-33 14 -72.5 45t-64.5 66l100 122q25 -33 66 -63.5t70 -46.5z" />
<glyph unicode="&#x639;" arabic-form="final" d="M344 432q66 20 118 30.5t122 10.5q61 0 106 -19.5t45 -50.5q0 -45 -24.5 -100t-83.5 -115q37 -18 116.5 -29.5t198.5 -11.5q23 0 42.5 -20.5t19.5 -58.5q0 -39 -19.5 -60.5t-42.5 -21.5q-70 0 -128 8t-106.5 26.5t-90.5 48t-87 70.5q-129 -55 -207.5 -147t-78.5 -217 q0 -66 26.5 -124.5t79.5 -101.5t134 -68.5t190 -25.5q86 0 156.5 11.5t160.5 44.5l-6 -35q-4 -23 -39 -55.5t-90 -62.5t-128 -51.5t-153 -21.5q-211 0 -326.5 113t-115.5 305q0 76 26.5 151.5t73 143.5t105.5 123t127 90q-18 29 -60.5 56.5t-93.5 47.5z" />
<glyph unicode="&#x639;" horiz-adv-x="872" arabic-form="initial" d="M780 219q-152 -106 -353.5 -169.5t-426.5 -63.5q-23 0 -39 21.5t-16 62.5q0 39 16 58t39 19q123 0 198.5 6.5t131.5 20.5q-111 35 -174.5 110.5t-63.5 178.5q0 51 25.5 110.5t69.5 110.5t101.5 84t121.5 33q66 0 115.5 -44t115.5 -147l-31 -26q-45 35 -79.5 48t-88.5 13 q-33 0 -70.5 -8t-73.5 -22.5t-68.5 -32t-57.5 -37.5q14 -53 47 -100.5t79 -87.5t102.5 -70.5t117.5 -50.5q70 23 145.5 57.5t147.5 77.5z" />
<glyph unicode="&#x639;" horiz-adv-x="774" arabic-form="medial" d="M315 195q-23 41 -64.5 70.5t-92.5 49.5l32 117q66 20 118 30.5t122 10.5q61 0 106.5 -19.5t45.5 -50.5q0 -45 -25 -100t-84 -115q37 -16 104.5 -28.5t196.5 -12.5q23 0 42.5 -20.5t19.5 -58.5q0 -39 -19.5 -60.5t-42.5 -21.5q-70 0 -124 8t-99 23.5t-83 38t-73 53.5 q-172 -123 -395 -123q-20 0 -37.5 17t-17.5 60q0 39 15 61.5t40 22.5q109 0 189.5 12.5t125.5 35.5z" />
<glyph unicode="&#x63a;" arabic-form="final" d="M344 432q66 20 118 30.5t122 10.5q61 0 106 -19.5t45 -50.5q0 -45 -24.5 -100t-83.5 -115q37 -18 116.5 -29.5t198.5 -11.5q23 0 42.5 -20.5t19.5 -58.5q0 -39 -19.5 -60.5t-42.5 -21.5q-70 0 -128 8t-106.5 26.5t-90.5 48t-87 70.5q-129 -55 -207.5 -147t-78.5 -217 q0 -66 26.5 -124.5t79.5 -101.5t134 -68.5t190 -25.5q86 0 156.5 11.5t160.5 44.5l-6 -35q-4 -23 -39 -55.5t-90 -62.5t-128 -51.5t-153 -21.5q-211 0 -326.5 113t-115.5 305q0 76 26.5 151.5t73 143.5t105.5 123t127 90q-18 29 -60.5 56.5t-93.5 47.5zM563 594 q-33 14 -72.5 45t-64.5 66l100 122q25 -33 66 -63.5t70 -46.5z" />
<glyph unicode="&#x63a;" horiz-adv-x="872" arabic-form="initial" d="M780 219q-152 -106 -353.5 -169.5t-426.5 -63.5q-23 0 -39 21.5t-16 62.5q0 39 16 58t39 19q123 0 198.5 6.5t131.5 20.5q-111 35 -174.5 110.5t-63.5 178.5q0 51 25.5 110.5t69.5 110.5t101.5 84t121.5 33q66 0 115.5 -44t115.5 -147l-31 -26q-45 35 -79.5 48t-88.5 13 q-33 0 -70.5 -8t-73.5 -22.5t-68.5 -32t-57.5 -37.5q14 -53 47 -100.5t79 -87.5t102.5 -70.5t117.5 -50.5q70 23 145.5 57.5t147.5 77.5zM391 936q-33 14 -72.5 45t-64.5 66l100 122q25 -33 66 -63.5t70 -46.5z" />
<glyph unicode="&#x63a;" horiz-adv-x="774" arabic-form="medial" d="M315 195q-23 41 -64.5 70.5t-92.5 49.5l32 117q66 20 118 30.5t122 10.5q61 0 106.5 -19.5t45.5 -50.5q0 -45 -25 -100t-84 -115q37 -16 104.5 -28.5t196.5 -12.5q23 0 42.5 -20.5t19.5 -58.5q0 -39 -19.5 -60.5t-42.5 -21.5q-70 0 -124 8t-99 23.5t-83 38t-73 53.5 q-172 -123 -395 -123q-20 0 -37.5 17t-17.5 60q0 39 15 61.5t40 22.5q109 0 189.5 12.5t125.5 35.5zM399 594q-33 14 -72.5 45t-64.5 66l100 122q25 -33 66 -63.5t70 -46.5z" />
<glyph unicode="&#x641;" horiz-adv-x="1732" arabic-form="final" d="M162 524q-4 -10 -5 -23.5t-3 -27.5t-3 -26.5t-1 -20.5q0 -92 27.5 -152.5t90 -97.5t160.5 -52t240 -15q168 0 314 19t237 52q-33 39 -52.5 92.5t-19.5 102.5q0 61 23.5 118.5t60.5 100.5t81 69.5t85 26.5q35 0 71.5 -22.5t66.5 -61.5t48.5 -91t18.5 -114 q0 -53 -32 -115.5t-79 -107.5q41 -10 92 -20.5t137 -10.5q23 0 42.5 -20.5t19.5 -58.5q0 -39 -19.5 -60.5t-42.5 -21.5q-111 0 -212 26.5t-181 67.5q-264 -141 -706 -141q-154 0 -260.5 18t-172 59t-95.5 106.5t-30 162.5q0 78 18.5 140t41.5 77zM1362 223q53 29 101 74 t67 82q-8 31 -24.5 60.5t-38 53t-47 38t-50.5 14.5q-14 0 -35.5 -12.5t-44 -32t-43 -44t-30.5 -50.5q6 -61 49 -110.5t96 -72.5zM1390 801q-33 14 -72.5 45t-64.5 66l100 122q25 -33 66 -63.5t70 -46.5z" />
<glyph unicode="&#x641;" horiz-adv-x="626" arabic-form="initial" d="M473 254q-4 37 -7 70.5t-7 56.5q-29 -35 -76 -58.5t-92 -23.5q-47 0 -88 17.5t-71 49t-47 74.5t-17 95q0 47 17 96t47 89t68 65.5t81 25.5q49 0 98 -35t88 -96.5t63.5 -145t24.5 -182.5q0 -92 -18.5 -146t-59.5 -89q-78 -66 -197.5 -98.5t-279.5 -32.5q-23 0 -39 21.5 t-16 60.5t16 59t39 20q158 0 279.5 27t193.5 80zM137 537q23 -47 67 -70t101 -23q37 0 76 10.5t55 22.5q-14 86 -64 133t-102 47q-47 0 -82 -33.5t-51 -86.5zM276 924q-33 14 -72.5 45t-64.5 66l100 122q25 -33 66 -63.5t70 -46.5z" />
<glyph unicode="&#x641;" horiz-adv-x="729" arabic-form="medial" d="M219 174q-35 39 -56.5 95.5t-21.5 105.5q0 37 7.5 68.5t25.5 70.5q37 78 95.5 127t121.5 49q35 0 73 -22.5t68.5 -61.5t50 -91t19.5 -114q0 -53 -35 -115.5t-82 -107.5q41 -10 99.5 -20.5t144.5 -10.5q23 0 42.5 -20.5t19.5 -58.5q0 -39 -19.5 -60.5t-42.5 -21.5 q-221 0 -385 82q-72 -37 -156 -59.5t-188 -22.5q-27 0 -41 21.5t-14 58.5q0 33 15 57t40 24q72 0 128 8.5t91 18.5zM356 223q27 14 53.5 32.5t50 40t42 43t28.5 40.5q-8 31 -25.5 60.5t-41 53t-49 38t-49.5 14.5q-14 0 -36 -12.5t-44.5 -32t-43 -44t-30.5 -50.5 q6 -61 49 -110.5t96 -72.5zM381 801q-33 14 -72.5 45t-64.5 66l100 122q25 -33 66 -63.5t70 -46.5z" />
<glyph unicode="&#x642;" horiz-adv-x="1081" arabic-form="final" d="M199 223q-16 -39 -24.5 -97t-8.5 -118q0 -72 18.5 -128t59.5 -96t105.5 -61.5t158.5 -21.5q143 0 250.5 37t173.5 96q2 12 3 33.5l2 43t2 42t1 33.5q-90 0 -157.5 21.5t-112.5 56t-66.5 78.5t-21.5 89q0 47 17 96.5t47 89.5t67 64.5t75 24.5q41 0 82 -27.5t74 -76 t55.5 -114t26.5 -141.5h55q23 0 42.5 -20.5t19.5 -58.5q0 -39 -19.5 -60.5t-42.5 -21.5h-55q-2 -61 -8 -105.5t-18.5 -79t-33 -63.5t-51.5 -60q-63 -63 -177.5 -105t-272.5 -42q-201 0 -297 102.5t-96 272.5q0 51 8 100t21.5 90t28.5 69t32 38zM645 238q23 -39 88.5 -65 t138.5 -26h70q-14 88 -60 146.5t-106 58.5q-43 0 -81 -34.5t-50 -79.5zM889 608q-29 12 -62.5 37t-58.5 51l-70 -102q-33 14 -72.5 42t-64.5 62l94 125q20 -27 51 -55.5t60 -44.5l80 115q27 -31 67.5 -60.5t69.5 -44.5z" />
<glyph unicode="&#x642;" horiz-adv-x="626" arabic-form="initial" d="M473 254q-4 37 -7 70.5t-7 56.5q-29 -35 -76 -58.5t-92 -23.5q-47 0 -88 17.5t-71 49t-47 74.5t-17 95q0 47 17 96t47 89t68 65.5t81 25.5q49 0 98 -35t88 -96.5t63.5 -145t24.5 -182.5q0 -92 -18.5 -146t-59.5 -89q-78 -66 -197.5 -98.5t-279.5 -32.5q-23 0 -39 21.5 t-16 60.5t16 59t39 20q158 0 279.5 27t193.5 80zM137 537q23 -47 67 -70t101 -23q37 0 76 10.5t55 22.5q-14 86 -64 133t-102 47q-47 0 -82 -33.5t-51 -86.5zM361 925q-29 12 -63 37t-58 51l-70 -102q-33 14 -72.5 42t-64.5 62l94 125q20 -27 51 -55.5t60 -44.5l80 115 q27 -31 67.5 -60.5t69.5 -44.5z" />
<glyph unicode="&#x642;" horiz-adv-x="729" arabic-form="medial" d="M219 174q-35 39 -56.5 95.5t-21.5 105.5q0 37 7.5 68.5t25.5 70.5q37 78 95.5 127t121.5 49q35 0 73 -22.5t68.5 -61.5t50 -91t19.5 -114q0 -53 -35 -115.5t-82 -107.5q41 -10 99.5 -20.5t144.5 -10.5q23 0 42.5 -20.5t19.5 -58.5q0 -39 -19.5 -60.5t-42.5 -21.5 q-221 0 -385 82q-72 -37 -156 -59.5t-188 -22.5q-27 0 -41 21.5t-14 58.5q0 33 15 57t40 24q72 0 128 8.5t91 18.5zM356 223q27 14 53.5 32.5t50 40t42 43t28.5 40.5q-8 31 -25.5 60.5t-41 53t-49 38t-49.5 14.5q-14 0 -36 -12.5t-44.5 -32t-43 -44t-30.5 -50.5 q6 -61 49 -110.5t96 -72.5zM486 815q-29 12 -63 37t-58 51l-70 -102q-33 14 -72.5 42t-64.5 62l94 125q20 -27 51 -55.5t60 -44.5l80 115q27 -31 67.5 -60.5t69.5 -44.5z" />
<glyph unicode="&#x643;" horiz-adv-x="1241" arabic-form="final" d="M172 475q-6 -25 -10 -55.5t-4 -65.5q0 -123 66.5 -190.5t205.5 -67.5q86 0 166 12.5t150.5 35t128 51t98.5 63.5q0 319 -5 534.5t-24 364.5l121 115q6 -72 11 -161t8 -191.5t4.5 -214t1.5 -226.5q0 -111 9 -177t28.5 -100t48 -44.5t65.5 -10.5q23 0 42.5 -20.5 t19.5 -58.5q0 -39 -19.5 -60.5t-42.5 -21.5q-117 0 -180.5 50t-79.5 167l-49 -119q-80 -66 -221.5 -112t-321.5 -46q-147 0 -232 79t-85 233q0 78 18.5 140t42.5 77zM330 393v8q100 14 159.5 24.5t91 18t41 10.5t9.5 7q0 6 -17.5 20.5t-72.5 48.5q-29 18 -44.5 29.5 t-22.5 21t-9 15.5t-2 14q0 23 14 58q35 78 108.5 126t151.5 48l-45 -103q-92 -14 -128 -37.5t-36 -42.5q0 -10 19.5 -21t66.5 -42q57 -37 77 -56.5t20 -41.5q0 -49 -40 -91t-126 -55l-113 -16z" />
<glyph unicode="&#x643;" horiz-adv-x="899" arabic-form="initial" d="M772 1122l-686 -299q100 -72 180 -143.5t135.5 -138t84 -126t28.5 -102.5q0 -14 -4 -39.5t-14.5 -54.5t-26.5 -57.5t-39 -50.5q-29 -29 -65.5 -51.5t-87 -39t-118 -25.5t-159.5 -9q-25 0 -40 20.5t-15 61.5t15 60t40 19q94 0 162.5 6.5t119 19.5t87.5 33.5t69 47.5 q-51 96 -125.5 182t-162.5 146l-39 -66q-59 74 -85 138.5t-26 119.5q0 70 23.5 117t89.5 76l725 331z" />
<glyph unicode="&#x643;" horiz-adv-x="841" arabic-form="medial" d="M745 1165l-659 -297l397 -460q70 -80 123 -131.5t94 -80t75 -39t67 -10.5q23 0 42 -20.5t19 -58.5q0 -39 -19.5 -60.5t-41.5 -21.5q-66 0 -120 15t-107.5 53t-113 100.5t-132.5 154.5q-4 -47 -21.5 -98t-50.5 -98q-41 -59 -112.5 -93t-184.5 -34q-27 0 -41 21.5t-14 55.5 q0 37 15 60.5t40 23.5q113 0 184.5 32t104.5 81q-4 45 -15.5 87t-31 83t-49 85t-70.5 95q-61 76 -92 128.5t-31 99.5q0 39 7 65.5t21.5 46t36 33.5t50.5 29l696 329z" />
<glyph unicode="&#x644;" horiz-adv-x="1044" arabic-form="final" d="M178 162q-10 -29 -15 -64t-5 -88q0 -115 57 -172t162 -57q119 0 226.5 26.5t178.5 77.5q0 246 -5 426.5t-13 327.5q-6 137 -11 260t-5 258l139 115v-866q0 -147 35.5 -203t121.5 -56q23 0 42.5 -20.5t19.5 -58.5q0 -39 -19.5 -60.5t-42.5 -21.5q-68 0 -106.5 25.5 t-60.5 72.5q0 -43 -3.5 -97.5t-15.5 -109.5q-12 -61 -60 -110.5t-117 -84t-149.5 -53t-158.5 -18.5q-147 0 -224 80t-77 231q0 78 22.5 140.5t44.5 76.5z" />
<glyph unicode="&#x644;" horiz-adv-x="438" arabic-form="initial" d="M231 1272q6 -29 20.5 -63.5t33 -66.5t39 -60.5t43.5 -45.5l-107 -67q2 -74 6 -160l8 -172t11.5 -165t7.5 -136q0 -59 -11.5 -127t-43.5 -121q-35 -53 -94.5 -77.5t-143.5 -24.5q-23 0 -39 22.5t-16 59.5q0 35 15 57t40 22q123 0 186 35q0 94 -9 215t-19 240 q-14 141 -24.5 262t-14.5 199q-4 16 -8.5 35.5t-4.5 35.5z" />
<glyph unicode="&#x644;" horiz-adv-x="471" arabic-form="medial" d="M186 279q-2 158 -4 286.5t-5 235t-9 194.5t-14 162l116 115q8 -72 13.5 -164t8.5 -196.5t4 -215t1 -217.5q0 -111 9 -177t28.5 -100t55.5 -44.5t81 -10.5q23 0 41 -20.5t18 -58.5q0 -39 -18 -60.5t-41 -21.5q-227 0 -264 192q-31 -100 -88.5 -146t-118.5 -46 q-25 0 -40 20.5t-15 59.5q0 35 16 58t39 23q59 0 105 27t81 105z" />
<glyph unicode="&#x645;" horiz-adv-x="931" arabic-form="final" d="M203 -739q-4 43 -9.5 77.5t-14.5 79.5t-24.5 107.5t-39.5 159.5q-18 78 -31.5 137t-13.5 100q0 59 34.5 145.5t90 165t126 134t144.5 55.5q61 0 110.5 -28.5t114.5 -100.5q41 -45 73 -72.5t59.5 -44t53 -23t56.5 -6.5q23 0 42 -20.5t19 -58.5q0 -39 -19.5 -60.5 t-41.5 -21.5q-61 0 -105.5 19.5t-78.5 53.5q-25 -106 -86.5 -170.5t-133.5 -64.5q-94 0 -161.5 82t-94.5 229q-12 -14 -28.5 -32.5t-30.5 -37t-25.5 -36t-17.5 -29.5q10 -72 27.5 -155t38.5 -183q16 -78 25 -147.5t9 -120.5q0 -49 -4 -80t-24 -66zM692 100q-76 98 -129 133 t-104 35q-37 0 -72 -20.5t-61 -52.5q31 -102 87 -160t126 -58q57 0 97 38t56 85z" />
<glyph unicode="&#x645;" horiz-adv-x="798" arabic-form="initial" d="M236 123q-43 -66 -105.5 -101.5t-130.5 -35.5q-20 0 -37.5 21.5t-17.5 58.5q0 39 16 60t39 21q66 0 123 40t119 151q61 113 107 161t106 48q47 0 96 -29t88 -74t63.5 -101t24.5 -110q0 -47 -16.5 -96t-47 -89t-73.5 -64.5t-98 -24.5q-82 0 -149.5 47t-106.5 117zM297 260 q37 -72 90 -109.5t119 -37.5q104 0 156 80q-47 100 -106.5 150t-119.5 50q-43 0 -75.5 -33.5t-63.5 -99.5z" />
<glyph unicode="&#x645;" horiz-adv-x="880" arabic-form="medial" d="M176 63q-35 -35 -81 -56t-95 -21q-25 0 -40 20.5t-15 61.5t15 60t40 19q63 0 117.5 38t122.5 116q63 72 107 96.5t93 24.5q47 0 89 -26.5t114 -102.5q43 -45 75 -74t59.5 -44t52 -21.5t51.5 -6.5q23 0 42 -20.5t19 -58.5q0 -39 -19.5 -60.5t-41.5 -21.5q-53 0 -94.5 16 t-81.5 49q-39 -104 -103.5 -161.5t-155.5 -57.5q-168 0 -270 231zM262 158q31 -78 85 -125t126 -47q55 0 100 29.5t76 82.5q-72 102 -125 136t-102 34q-45 0 -89 -30.5t-71 -79.5z" />
<glyph unicode="&#x646;" horiz-adv-x="1064" arabic-form="final" d="M485 453q-33 14 -72.5 44.5t-64.5 65.5l101 123q25 -33 65.5 -63.5t69.5 -47.5zM178 260q-16 -39 -24.5 -98.5t-8.5 -118.5q0 -154 72 -230.5t232 -76.5q123 0 225 41t155 112q-10 119 -32.5 207t-53.5 148l97 133q47 -111 106.5 -170.5t118.5 -59.5q23 0 42 -22.5 t19 -61.5t-19.5 -58t-41.5 -19q-51 0 -86 18.5t-55 42.5l-2 -2q2 -92 -13.5 -159.5t-54.5 -129.5q-49 -78 -157.5 -134t-272.5 -56q-190 0 -281.5 100.5t-91.5 272.5q0 53 8.5 103t21.5 90t28.5 67.5t31.5 38.5z" />
<glyph unicode="&#x646;" horiz-adv-x="471" arabic-form="initial" d="M283 678q45 -66 69.5 -151t24.5 -169q0 -55 -19.5 -120.5t-62.5 -126.5q-41 -63 -121 -94t-174 -31q-23 0 -39 17t-16 63q0 37 14 59t41 22q90 0 157.5 16.5t123.5 49.5q-12 90 -41 167t-64 122zM248 801q-33 14 -72.5 45t-64.5 66l100 122q25 -33 66 -63.5t70 -46.5z " />
<glyph unicode="&#x646;" horiz-adv-x="624" arabic-form="medial" d="M301 446q35 -158 114 -228.5t210 -70.5q23 0 42 -20.5t19 -58.5q0 -39 -19.5 -60.5t-41.5 -21.5q-129 0 -210 48t-128 150q-45 -94 -116 -146t-171 -52q-23 0 -39 20.5t-16 61.5q0 39 15 59t40 20q78 0 141.5 30t110.5 104l-12 90zM287 594q-33 14 -72.5 45t-64.5 66 l100 122q25 -33 66 -63.5t70 -46.5z" />
<glyph unicode="&#x647;" horiz-adv-x="1138" arabic-form="isolated" d="M487 864h17q98 -45 199.5 -114.5t182.5 -142t132 -140.5t51 -109q0 -47 -20.5 -100t-61.5 -102q-51 -61 -104.5 -86t-124.5 -25q-59 0 -111.5 21.5t-85.5 50.5q-35 -29 -76 -50.5t-82 -36t-80.5 -22.5t-70.5 -8q-35 0 -83 24.5t-116 96.5l25 26q158 10 243 29t144 43 q-33 45 -47.5 92t-14.5 84q0 78 52.5 149.5t138.5 112.5q-16 16 -57 35t-82 35zM506 520q0 -78 21.5 -136t60.5 -95q55 45 93 108.5t48 116.5q-8 39 -29.5 54.5t-60.5 15.5q-29 0 -69.5 -16.5t-63.5 -47.5zM801 487q-6 -31 -18.5 -67.5t-31 -73.5t-41 -70.5t-46.5 -58.5 q18 -14 53 -26.5t78 -12.5q68 0 120 31t76 82q-31 39 -81 97t-109 99z" />
<glyph unicode="&#x647;" horiz-adv-x="817" arabic-form="final" d="M483 838q18 -39 32.5 -79t29 -92.5t30 -119t31.5 -158.5q14 -74 30.5 -121t40 -73.5t57.5 -37t83 -10.5q23 0 42.5 -20.5t19.5 -58.5q0 -39 -19.5 -60.5t-42.5 -21.5q-129 0 -198.5 51t-102.5 180l-53 -53q-43 -45 -82 -59.5t-80 -14.5q-43 0 -84 17.5t-73.5 44t-52 59.5 t-19.5 63q0 27 13 67t36 69q23 31 102.5 84t220.5 112l-49 125zM469 504q-117 -41 -194.5 -79t-112.5 -71q23 -57 74 -92t131 -35q43 0 79.5 12.5t61.5 28.5q-8 59 -15.5 119t-23.5 117z" />
<glyph unicode="&#x647;" horiz-adv-x="897" arabic-form="initial" d="M229 819q98 -45 199.5 -114.5t182.5 -142.5t132.5 -140.5t51.5 -108.5q0 -47 -20.5 -100t-61.5 -102q-51 -61 -104.5 -86t-125.5 -25q-55 0 -114.5 20.5t-89.5 51.5q-68 -47 -140.5 -66.5t-138.5 -19.5q-23 0 -39 22.5t-16 57.5q0 37 17.5 59t37.5 22q57 0 107.5 7.5 t82.5 19.5q-33 45 -46 92t-15 84q-2 78 52.5 149.5t137.5 112.5q-16 16 -57 35t-82 35l33 137h16zM231 475q0 -78 21.5 -136t60.5 -95q55 45 93 108.5t49 116.5q-8 39 -30 54.5t-60 15.5q-29 0 -70 -16.5t-64 -47.5zM526 442q-6 -31 -18 -67.5t-30.5 -73.5t-41 -70.5 t-47.5 -58.5q18 -14 53 -26.5t78 -12.5q68 0 120 31t77 82q-31 39 -81.5 97t-109.5 99z" />
<glyph unicode="&#x647;" horiz-adv-x="811" arabic-form="medial" d="M352 729q125 -72 175.5 -144.5t50.5 -164.5q0 -57 -26 -113.5t-72 -106.5t-110.5 -92t-142.5 -71q6 -43 26.5 -89t51.5 -87t70 -74t82 -49q16 199 112.5 304t241.5 105q23 0 42 -20.5t19 -58.5q0 -39 -19 -60.5t-42 -21.5q-98 0 -155.5 -18.5t-92.5 -53.5 q-16 -43 -16 -102q2 -59 26.5 -101.5t83.5 -64.5l-118 -135q-188 82 -292 215t-124 280l-58.5 -13t-64.5 -7q-25 0 -40 20.5t-15 56.5q0 39 16 61.5t39 22.5q31 0 61.5 4.5t53.5 8.5q2 82 21.5 164t50 156.5t73.5 138t92 110.5zM516 358q-14 51 -66.5 108.5t-123.5 92.5 q-20 -29 -40 -75t-34 -98t-23.5 -108.5t-9.5 -107.5q100 16 178 68t119 120z" />
<glyph unicode="&#x648;" horiz-adv-x="743" arabic-form="final" d="M10 -356q127 35 219.5 77.5t154.5 88t98 90.5t48 86q-88 2 -152.5 23.5t-107.5 55t-63.5 76.5t-20.5 90t17.5 96.5t47.5 89.5t66.5 64.5t73.5 24.5q43 0 84 -26.5t75 -75t57.5 -114t29.5 -143.5h106q23 0 42.5 -20.5t19.5 -58.5q0 -39 -19.5 -60.5t-42.5 -21.5h-118 q-25 -123 -106 -233.5t-218 -182.5l-262 33zM256 238q18 -39 74.5 -65t130.5 -26h86q-14 88 -60.5 146.5t-105.5 58.5q-43 0 -79 -32.5t-46 -81.5z" />
<glyph unicode="&#x649;" horiz-adv-x="1136" arabic-form="final" d="M217 205q-16 -41 -25.5 -82t-9.5 -100q0 -135 92.5 -211t280.5 -76q145 0 266 24.5t189 65.5q-51 45 -125 90t-140 70q10 35 25.5 68.5t26.5 54.5q20 8 46.5 15t64.5 12t91.5 8t126.5 3q23 0 42.5 -20.5t19.5 -58.5q0 -39 -19.5 -60.5t-42.5 -21.5h-131q45 -25 68.5 -62 t23.5 -61q0 -43 -26.5 -92.5t-65.5 -77.5q-66 -55 -195.5 -91t-305.5 -36q-199 0 -301.5 96t-102.5 272q0 90 27.5 158t60.5 88z" />
<glyph unicode="&#x64a;" horiz-adv-x="1136" arabic-form="final" d="M215 205q-16 -41 -25.5 -82t-9.5 -100q0 -135 92.5 -211t280.5 -76q145 0 266 24.5t189 65.5q-51 45 -125 90t-140 70q10 35 25.5 68.5t26.5 54.5q20 8 46.5 15t64.5 12t91.5 8t126.5 3q23 0 42.5 -20.5t19.5 -58.5q0 -39 -19.5 -60.5t-42.5 -21.5h-131q45 -25 68.5 -62 t23.5 -61q0 -43 -26.5 -92.5t-65.5 -77.5q-66 -55 -195.5 -91t-305.5 -36q-199 0 -301.5 96t-102.5 272q0 90 27.5 158t60.5 88zM660 -740q-29 12 -63 37t-58 51l-70 -102q-33 14 -72.5 42t-64.5 62l94 125q20 -27 51 -55.5t60 -44.5l80 115q27 -31 67.5 -60.5t69.5 -44.5z " />
<glyph unicode="&#x64a;" horiz-adv-x="473" arabic-form="initial" d="M283 678q45 -66 69.5 -151t24.5 -169q0 -55 -19.5 -120.5t-62.5 -126.5q-41 -63 -121 -94t-174 -31q-23 0 -39 17t-16 63q0 37 14 59t41 22q90 0 157.5 16.5t123.5 49.5q-12 90 -41 167t-64 122zM359 -385q-29 12 -63 37t-58 51l-70 -102q-33 14 -72.5 42t-64.5 62 l94 125q20 -27 51 -55.5t60 -44.5l80 115q27 -31 67.5 -60.5t69.5 -44.5z" />
<glyph unicode="&#x64a;" horiz-adv-x="624" arabic-form="medial" d="M301 446q35 -158 114 -228.5t210 -70.5q23 0 42 -20.5t19 -58.5q0 -39 -19.5 -60.5t-41.5 -21.5q-129 0 -210 48t-128 150q-45 -94 -116 -146t-171 -52q-23 0 -39 20.5t-16 61.5q0 39 15 59t40 20q78 0 141.5 30t110.5 104l-12 90zM449 -385q-29 12 -63 37t-58 51 l-70 -102q-33 14 -72.5 42t-64.5 62l94 125q20 -27 51 -55.5t60 -44.5l80 115q27 -31 67.5 -60.5t69.5 -44.5z" />
<glyph unicode=" "  horiz-adv-x="389" />
<glyph unicode="&#x09;" horiz-adv-x="389" />
<glyph unicode="&#xa0;" horiz-adv-x="389" />
<glyph unicode="!" horiz-adv-x="464" d="M158 90q0 104 104 105q102 0 103 -105q0 -104 -103 -104q-55 0 -79.5 26.5t-24.5 77.5zM297 397q-4 -43 -14.5 -60.5t-32.5 -17.5h-17l-83 809l206 33z" />
<glyph unicode="&#x22;" horiz-adv-x="585" d="M330 1169q20 18 39.5 27.5t48.5 9.5t49 -9t39 -28l-62 -362h-53zM80 1169q20 18 39.5 27.5t48.5 9.5t49.5 -9t38.5 -28l-61 -362h-54z" />
<glyph unicode="#" horiz-adv-x="999" d="M217 662h152l65 266h86l-65 -266h192l66 266h86l-66 -266h154l-25 -103h-153l-50 -199h150l-27 -102h-147l-72 -287h-86l72 287h-193l-69 -287h-86l69 287h-157l24 102h160l47 199h-151zM381 360h192l50 199h-193z" />
<glyph unicode="$" d="M586 932q57 -4 109.5 -19.5t107.5 -40.5l-47 -161h-76l-27 94q-35 18 -71.5 27.5t-83.5 9.5q-66 0 -116 -35t-50 -96q0 -49 34.5 -81t86 -58.5t113 -52t112.5 -60.5t86 -84t35 -123q0 -98 -63.5 -168t-174.5 -88v-146h-119v142q-156 10 -303 90l60 186h80l14 -118 q37 -33 95 -53.5t120 -20.5q78 0 119 38t41 103q0 49 -35 82t-86 58.5t-112.5 51t-113 59.5t-86 83t-34.5 123q0 96 71.5 166.5t194.5 87.5v147h119v-143z" />
<glyph unicode="%" horiz-adv-x="1380" d="M1014 -14q-102 0 -168 59t-66 199q0 139 65.5 198.5t168.5 59.5q51 0 94 -14.5t73.5 -45t48 -80t17.5 -118.5q0 -70 -17.5 -119t-48 -80t-73.5 -45t-94 -14zM1014 43q102 0 102 201q0 104 -24.5 151t-77.5 47t-77 -47t-24 -151q1 -201 101 -201zM1049 973l73 -62 l-780 -952l-74 61zM367 428q-104 0 -169 59.5t-65 198.5t65.5 197.5t168.5 58.5q51 0 94 -13.5t73.5 -44t48 -79.5t17.5 -119q0 -139 -66.5 -198.5t-166.5 -59.5zM367 485q100 0 100 201q0 104 -23.5 151.5t-76.5 47.5t-77 -47t-24 -152q1 -201 101 -201z" />
<glyph unicode="&#x26;" horiz-adv-x="1112" d="M1081 10q-23 -6 -58.5 -15t-78.5 -9q-131 0 -227 123q-59 -59 -132 -91t-159 -32q-61 0 -111.5 20.5t-85 54t-53 78.5t-18.5 97q0 92 54 176t177 145q-63 86 -92 147.5t-29 120.5q0 49 20.5 96.5t57.5 85t90 61.5t119 24q57 0 104.5 -17.5t81 -48.5t51 -71t17.5 -83 q0 -88 -68.5 -166.5t-189.5 -140.5l213 -301q23 53 32 130t5 157l117 61l14 -12q-4 -53 -15.5 -107.5t-29 -104.5t-39 -95t-45.5 -78q57 -63 122.5 -96t174.5 -43zM422 516q-123 -88 -123 -233q0 -88 50 -137.5t128 -49.5q59 0 108.5 18.5t88.5 47.5zM518 606 q74 53 114 112.5t40 125.5q0 72 -40 114.5t-100 42.5q-66 0 -100.5 -40.5t-34.5 -94.5q0 -27 5.5 -51t18.5 -54t36.5 -68t60.5 -87z" />
<glyph unicode="'" horiz-adv-x="335" d="M80 1169q20 18 39.5 27.5t48.5 9.5t49.5 -9t38.5 -28l-61 -362h-54z" />
<glyph unicode="(" horiz-adv-x="489" d="M459 1233q-53 -57 -93 -129t-68 -164t-41 -208t-13 -257q0 -143 13 -254.5t41 -201t68 -158t93 -123.5l-35 -80q-84 72 -148.5 155t-107.5 182t-65.5 218t-22.5 262q0 285 87 479.5t257 335.5z" />
<glyph unicode=")" horiz-adv-x="489" d="M66 1290q168 -141 256 -335.5t88 -479.5q0 -143 -22.5 -262t-65.5 -218t-107.5 -182t-148.5 -155l-35 80q53 55 93 123.5t67.5 158t41 201t13.5 254.5q0 141 -13.5 257t-41 208t-67.5 164t-93 129z" />
<glyph unicode="*" horiz-adv-x="804" d="M326 1227q41 31 80 30q35 0 53 -21.5t18 -55.5q0 -33 -16.5 -99.5t-44.5 -138.5l252 148q25 -16 41 -42t16 -51q0 -47 -51 -65.5t-176 -18.5h-37t-35 2l215 -192q-10 -35 -34.5 -60.5t-53.5 -25.5q-45 0 -81 65.5t-71 196.5l-116 -266q-45 0 -79 20.5t-34 57.5 q0 72 207 207l-291 26q-8 23 -8 49q0 41 20.5 63.5t51.5 22.5t91 -35.5t144 -101.5l-61 285v0z" />
<glyph unicode="+" d="M127 508h287v301h116v-301h287v-111h-287v-301h-116v301h-287v111z" />
<glyph unicode="," horiz-adv-x="522" d="M205 223q76 -27 120 -79t44 -113q0 -76 -43 -152t-154 -160l-43 43q61 68 81.5 117t25.5 82l-132 96l101 166v0z" />
<glyph unicode="-" horiz-adv-x="645" d="M580 449q0 -49 -37 -69t-99 -20h-370v41q0 49 38 71t91 22h377v-45z" />
<glyph unicode="." horiz-adv-x="571" d="M174 100q0 113 113 113q53 0 81.5 -29.5t28.5 -83.5q0 -53 -27.5 -81.5t-82.5 -28.5q-113 -1 -113 110z" />
<glyph unicode="/" horiz-adv-x="595" d="M487 1247l109 -43l-490 -1384l-106 39z" />
<glyph unicode="0" horiz-adv-x="999" d="M500 -14q-88 0 -162 32.5t-126 94t-82 150.5t-30 202t30 201t82 149.5t126 94t162 32.5t161.5 -32.5t126 -94t82 -149.5t29.5 -201t-29.5 -202t-82 -150.5t-126 -94t-161.5 -32.5zM500 76q104 0 169.5 93t65.5 296t-65.5 295t-169.5 92t-170 -92t-66 -295t66 -296 t170 -93z" />
<glyph unicode="1" horiz-adv-x="720" d="M176 61q102 14 136 39t34 84v592l-2 2l-238 -137l-47 84l390 225l51 -28v-832l170 -29l-11 -61h-497z" />
<glyph unicode="2" horiz-adv-x="847" d="M90 793v2q147 147 346 147q57 0 109.5 -19.5t90.5 -54t60.5 -81t22.5 -101.5q0 -43 -10.5 -82t-36 -80t-70.5 -87t-113 -101l-299 -244l3 -4l581 80l4 -8l-43 -160h-665l10 90l229 229q76 76 124 129.5t75 93.5t37 71.5t10 66.5q0 61 -33 106t-86 66q-25 -6 -53.5 -21.5 t-59 -39t-61.5 -51t-55 -58.5h-2z" />
<glyph unicode="3" horiz-adv-x="825" d="M96 -92v2q217 35 341 115.5t124 191.5q0 82 -82 132t-241 59l-5 4l15 65q133 31 202.5 94.5t69.5 130.5q0 51 -32.5 95.5t-92.5 54.5q-106 -29 -219 -154h-2l-102 105v2q66 66 150.5 101.5t183.5 35.5q55 0 106 -18.5t89 -50t60.5 -72.5t22.5 -86q0 -80 -76 -147.5 t-239 -108.5v-4q188 -6 272 -68.5t84 -157.5q0 -70 -42 -134t-118 -117.5t-181 -92.5t-232 -55z" />
<glyph unicode="4" d="M582 950h6l106 -80v-673l187 12l2 -4l-41 -111h-148v-227l-141 -37l-6 2v262h-404l-63 60v4zM547 186v289q0 96 3 165t7 110l-2 2l-369 -584l2 -2z" />
<glyph unicode="5" horiz-adv-x="804" d="M72 -92v2q217 35 343 134t126 235q0 221 -267 221q-33 0 -67.5 -5.5t-56.5 -9.5l-3 2v443h521l-50 -133h-354l-28 -236l2 -2q35 10 78.5 17.5t82.5 7.5q55 0 109.5 -16.5t97.5 -51.5t71 -89t28 -128q0 -90 -42 -168t-119 -139.5t-183.5 -103.5t-233.5 -58z" />
<glyph unicode="6" horiz-adv-x="903" d="M682 1006q-180 -37 -281.5 -143.5t-124.5 -293.5h3q41 31 102 52.5t131 21.5q61 0 117.5 -21.5t100.5 -60.5t70.5 -93t26.5 -120q0 -78 -27.5 -144.5t-76.5 -114.5t-114.5 -75.5t-139.5 -27.5q-78 0 -142.5 30.5t-112.5 88t-74.5 139.5t-26.5 184q0 147 44 265t122.5 204 t187 137t240.5 62v-2zM276 520q-4 -20 -5 -51t-1 -57q0 -162 58.5 -249t150.5 -87q76 0 132.5 57t56.5 178q0 111 -66.5 172.5t-159.5 61.5q-41 0 -86 -7.5t-80 -17.5z" />
<glyph unicode="7" horiz-adv-x="802" d="M41 924v6h721l-14 -113q-147 -158 -261 -394.5t-174 -555.5l-157 -37l-6 2q25 150 77 292t118.5 267t140 229.5t139.5 176.5v4h-525z" />
<glyph unicode="8" horiz-adv-x="890" d="M328 535q-98 57 -142.5 122.5t-44.5 151.5q0 55 24.5 107.5t67.5 92.5t103.5 63.5t134.5 23.5q59 0 110.5 -20.5t89.5 -54.5t59.5 -80t21.5 -95q0 -78 -42 -147.5t-157 -120.5v-3q129 -70 180 -142.5t51 -158.5q0 -63 -24.5 -116.5t-68.5 -91t-106.5 -59t-135.5 -21.5 q-78 0 -139.5 19.5t-105.5 55t-67.5 84t-23.5 103.5q0 90 47 158.5t168 125.5v3zM381 498q-125 -80 -125 -224q0 -92 61.5 -145t153.5 -53q86 0 134 45t48 110q0 37 -13 69t-44 62.5t-83 63.5t-132 72zM494 610q59 47 86.5 99.5t27.5 117.5q0 84 -49 131.5t-115 47.5 q-74 0 -123 -47.5t-49 -116.5q0 -57 48.5 -111.5t173.5 -120.5z" />
<glyph unicode="9" horiz-adv-x="897" d="M104 -92v2q217 35 356.5 154.5t162.5 312.5h-2q-45 -41 -105.5 -65.5t-126.5 -24.5q-63 0 -119.5 19.5t-99.5 58t-67.5 97t-24.5 138.5q0 66 27.5 127t74.5 109.5t112.5 77t139.5 28.5t139.5 -30.5t112.5 -89t74.5 -145.5t27.5 -198q0 -281 -157.5 -441.5t-468.5 -207.5z M623 492q0 170 -53.5 265t-137.5 95q-80 0 -135 -67.5t-55 -184.5q0 -119 56 -167t146 -48q55 0 98.5 10.5t80.5 30.5v66z" />
<glyph unicode=":" horiz-adv-x="546" d="M174 665q0 113 113 113q53 0 81.5 -29.5t28.5 -83.5q0 -53 -27.5 -81.5t-82.5 -28.5q-113 -1 -113 110zM174 100q0 113 113 113q53 0 81.5 -29.5t28.5 -83.5q0 -53 -27.5 -81.5t-82.5 -28.5q-113 -1 -113 110z" />
<glyph unicode=";" horiz-adv-x="567" d="M244 223q76 -27 120 -79t44 -113q0 -76 -43 -152t-154 -160l-43 43q61 68 81.5 117t25.5 82l-132 96l101 166v0zM174 665q0 113 113 113q53 0 81.5 -29.5t28.5 -83.5q0 -53 -27.5 -81.5t-82.5 -28.5q-113 -1 -113 110z" />
<glyph unicode="&#x3c;" d="M819 -20l-694 401v131l694 401v-133l-586 -334l586 -333v-133z" />
<glyph unicode="=" d="M127 272v111h690v-111h-690zM127 508v110h690v-110h-690z" />
<glyph unicode="&#x3e;" d="M123 113l586 333l-586 334v133l694 -401v-131l-694 -401v133z" />
<glyph unicode="?" horiz-adv-x="761" d="M354 305q-47 35 -74.5 74t-27.5 80q0 25 8 49t27.5 53t51.5 62.5t79 78.5q43 39 70.5 71t45 59.5t24.5 54t7 55.5q0 35 -10 62.5t-25 46.5q-16 12 -33.5 18t-52.5 6q-25 0 -52 -6t-60 -21.5t-74 -44t-94 -71.5l-103 117q92 72 171 101.5t171 29.5q66 0 121.5 -19.5 t95 -53.5t62.5 -79t23 -98q0 -31 -5.5 -63.5t-23 -68.5t-50 -77t-87.5 -90q-49 -43 -80 -74t-49.5 -54.5t-24.5 -41t-6 -35.5q0 -29 11 -52.5t32 -47.5zM291 90q0 104 104 105q102 0 103 -105q0 -104 -103 -104q-55 0 -79.5 26.5t-24.5 77.5z" />
<glyph unicode="@" horiz-adv-x="1398" d="M954 709q-14 -55 -25 -114.5t-19.5 -115t-12.5 -105.5t-4 -87q0 -72 21.5 -102.5t64.5 -30.5q41 0 80 20.5t68.5 64.5t48 114.5t18.5 168.5q0 90 -28.5 164t-81 126t-127 81t-166.5 29q-115 0 -214.5 -49.5t-174 -134.5t-117.5 -198.5t-43 -242.5q0 -100 30.5 -172 t84 -118t128 -67.5t162.5 -21.5q84 0 144.5 11.5t103.5 31.5l27 -43q-59 -43 -134 -66.5t-180 -23.5q-236 0 -370 121t-134 342q0 127 50.5 255t142.5 231.5t223 169t293 65.5q102 0 191.5 -32t156 -92.5t104.5 -149.5t38 -203q0 -117 -30 -206t-78 -149.5t-107.5 -91.5 t-120.5 -31q-88 0 -133.5 58.5t-36.5 175.5q-66 -106 -121 -153.5t-113 -47.5q-51 0 -90 48t-39 153q0 68 26.5 148.5t69.5 149t99.5 115t115.5 46.5q49 0 102.5 -11.5t106.5 -29.5zM821 618q-27 12 -58.5 18.5t-51.5 6.5q-14 0 -22.5 -1t-14.5 -3q-23 -12 -43.5 -41 t-35.5 -70t-24.5 -90t-9.5 -100q0 -72 15.5 -97.5t46.5 -25.5q35 0 83 54.5t80 160.5q16 47 23.5 93t11.5 95z" />
<glyph unicode="A" horiz-adv-x="1134" d="M27 61q57 14 97 47t69 111l307 856l135 31l366 -1016l134 -29l-17 -61h-389l16 61l82 29l-84 240h-403l-92 -240l96 -29l-12 -61h-322zM711 420l-172 493l-172 -493h344z" />
<glyph unicode="B" horiz-adv-x="1050" d="M512 1079q104 0 177 -21.5t119 -57t67.5 -84t21.5 -101.5q0 -86 -52 -149.5t-157 -92.5v-6q133 -16 201.5 -86.5t68.5 -171.5q0 -72 -29.5 -129t-82.5 -97t-127 -61.5t-164 -21.5h-457l17 61q59 12 78.5 38t19.5 79v811l-145 31l12 59h432zM377 90h129q147 0 211.5 46 t64.5 161q0 104 -77.5 164.5t-229.5 60.5h-98v-432zM469 604q135 0 195.5 48t60.5 149q0 188 -266 188h-82v-385h92z" />
<glyph unicode="C" horiz-adv-x="1050" d="M944 831h-67l-25 107q-39 23 -94.5 39t-126.5 16q-74 0 -137.5 -28.5t-111.5 -85t-74.5 -142.5t-26.5 -202q0 -111 26.5 -195t74.5 -142.5t114.5 -88t146.5 -29.5q61 0 115.5 13t95.5 46l57 133h72l-20 -202q-78 -45 -160 -69t-197 -24q-113 0 -207 39t-161.5 110 t-104.5 169t-37 219q0 117 42 222.5t116 185t175 127t220 47.5q109 0 195 -18.5t151 -47.5z" />
<glyph unicode="D" horiz-adv-x="1167" d="M115 61q59 12 78.5 37t19.5 78v813l-145 31l12 59h409q287 0 434.5 -133t147.5 -379q0 -133 -40 -237.5t-113.5 -178t-178 -112.5t-233.5 -39h-408zM444 90q219 0 331 96.5t112 329.5q0 246 -111.5 359.5t-341.5 113.5h-57v-899h67z" />
<glyph unicode="E" d="M115 61q59 12 78.5 38t19.5 81v809l-145 31l12 59h774l-57 -225h-64l-18 115l-338 20v-377h348l-23 -90h-325v-432l362 27l66 125h65l-39 -242h-733z" />
<glyph unicode="F" horiz-adv-x="876" d="M115 61q59 12 78.5 38t19.5 81v809l-145 31l12 59h754l-58 -225h-63l-19 115l-317 20v-377h348l-23 -90h-325v-432l184 -29l-10 -61h-453z" />
<glyph unicode="G" horiz-adv-x="1103" d="M1001 76q-90 -49 -182 -74t-213 -25q-113 0 -207 39t-161.5 110t-104.5 169t-37 219q0 117 42 222.5t116 185t175 127t220 47.5q109 0 195 -18.5t151 -47.5l-51 -199h-67l-29 109q-35 23 -90.5 38t-124.5 15q-74 0 -138.5 -28.5t-112.5 -85t-74.5 -142.5t-26.5 -202 q0 -111 26.5 -195t74.5 -142.5t114.5 -88t146.5 -29.5q113 0 195 47v297l-205 25l10 65h358v-438z" />
<glyph unicode="H" horiz-adv-x="1316" d="M115 61q59 12 78.5 38t19.5 79v811l-145 31l12 59h405l-12 -59q-57 -14 -76.5 -40t-19.5 -79v-289h565v377l-143 31l10 59h405l-12 -59q-59 -14 -77.5 -40t-18.5 -79v-811l143 -29l-16 -61h-404l17 61q59 12 77.5 38t18.5 79v344h-565v-432l143 -29l-14 -61h-408z" />
<glyph unicode="I" horiz-adv-x="587" d="M115 61q59 12 78.5 38t19.5 79v811l-145 31l12 59h405l-12 -59q-57 -14 -76.5 -40t-19.5 -79v-811l143 -29l-14 -61h-408z" />
<glyph unicode="J" horiz-adv-x="487" d="M-25 -403q61 41 109.5 91t79.5 111q6 41 8 112t2 132v946l-143 31l10 59h410l-17 -59q-57 -14 -76.5 -39t-19.5 -78v-903q0 -104 -16.5 -178t-53.5 -127t-99.5 -92t-154.5 -74z" />
<glyph unicode="K" horiz-adv-x="1105" d="M815 989l-125 31l12 59h379l-12 -59q-39 -4 -66.5 -10t-50 -20.5t-46 -38t-52.5 -62.5l-236 -309l259 -375q25 -37 47 -61.5t46.5 -40t52.5 -23.5t62 -10l-14 -66q-18 -6 -51 -12t-70 -6q-35 0 -61.5 6t-54 25.5t-57 56.5t-70.5 96l-244 356zM115 61q59 12 78.5 38 t19.5 79v811l-145 31l12 59h405l-12 -59q-57 -14 -76.5 -40t-19.5 -79v-811l143 -29l-14 -61h-408z" />
<glyph unicode="L" horiz-adv-x="897" d="M115 61q59 12 78.5 38t19.5 81v809l-145 31l12 59h409l-16 -59q-57 -14 -76.5 -40t-19.5 -79v-811l356 23l66 155h71l-39 -268h-733z" />
<glyph unicode="M" horiz-adv-x="1513" d="M78 61q27 6 44 15.5t27.5 25t16.5 41t10 66.5l80 780l-127 31l12 59h260l351 -841l364 841h254l-14 -59q-70 -10 -86.5 -38t-9.5 -99l67 -793l146 -29l-15 -61h-407l16 61q59 12 80.5 38t17.5 79l-45 527q-4 51 -7 81.5t-5 59.5h-2q-10 -29 -22.5 -62.5t-28.5 -70.5 l-291 -678h-86l-293 686q-20 47 -32.5 75.5t-18.5 49.5h-2q0 -16 -2 -60.5t-6 -91.5l-50 -604l146 -29l-12 -61h-347z" />
<glyph unicode="N" horiz-adv-x="1239" d="M115 61q59 12 78.5 38t19.5 79v811l-145 31l12 59h229l572 -684q35 -41 51 -61.5t29 -36.5l2 2q-2 35 -2 64.5v89.5v536l-105 31l10 59h316l-17 -59q-59 -14 -78.5 -39t-19.5 -78v-903h-82l-596 721q-49 57 -72 90l-2 -2q2 -27 3 -54.5t1 -74.5v-590l134 -29l-11 -61 h-344z" />
<glyph unicode="O" horiz-adv-x="1226" d="M281 535q0 -211 89 -333t261 -122q68 0 125 23.5t99 76.5t66.5 139.5t24.5 210.5q0 211 -88 337t-260 126q-68 0 -125 -25.5t-100 -81t-67.5 -142t-24.5 -209.5zM610 -23q-115 0 -209 36t-161.5 103.5t-105.5 164t-38 217.5q0 125 42 234.5t116 190.5t173 127t214 46 t206 -37t153.5 -106.5t96 -167t33.5 -218.5t-38.5 -228.5t-107.5 -187t-165 -127t-209 -47.5z" />
<glyph unicode="P" horiz-adv-x="956" d="M115 61q59 12 78.5 37t19.5 78v813l-145 31l12 59h426q195 0 302 -82t107 -217q0 -92 -34.5 -160.5t-95 -114.5t-143.5 -68.5t-177 -22.5h-88v-324l164 -29l-11 -61h-432zM377 494h43q162 0 240.5 70.5t78.5 193.5q0 119 -73.5 180t-206.5 61h-82v-505z" />
<glyph unicode="Q" horiz-adv-x="1226" d="M1384 -227q-61 -41 -123.5 -60.5t-134.5 -19.5q-57 0 -109 12t-109.5 45t-125 87t-155.5 140q-109 0 -206 36t-169 103.5t-114 164t-42 217.5q0 125 42 234.5t116 190.5t173 127t214 46q113 0 204 -37t154.5 -106.5t97 -167t33.5 -218.5q0 -98 -24.5 -187t-70.5 -163 t-112.5 -129t-148.5 -86q74 -59 130.5 -97t103.5 -60.5t88 -32t84 -9.5q59 0 100 7.5t82 21.5zM631 80q68 0 125 23.5t99 76.5t66.5 139.5t24.5 210.5q0 104 -22.5 190.5t-66.5 148t-108.5 94t-150.5 32.5q-68 0 -125 -25.5t-100 -80.5t-67.5 -143.5t-24.5 -210.5 q0 -211 89 -333t261 -122z" />
<glyph unicode="R" horiz-adv-x="1116" d="M115 61q59 12 78.5 37t19.5 78v813l-145 31l12 59h432q205 0 308.5 -82t103.5 -221q0 -88 -53.5 -164.5t-155.5 -117.5l188 -287q27 -41 46.5 -66.5t39 -41t41 -22.5t51.5 -9l-14 -66q-18 -6 -40.5 -12t-59.5 -6q-59 0 -108.5 35.5t-115.5 140.5l-186 295h-180v-365 l143 -29l-10 -61h-412zM377 535h135q111 0 173.5 55t62.5 178q0 119 -81 174t-223 55h-67v-462z" />
<glyph unicode="S" horiz-adv-x="903" d="M150 297h75l15 -129q47 -41 106.5 -65.5t134.5 -24.5q92 0 146.5 44t54.5 109q0 29 -11.5 56.5t-42 58.5t-82.5 65.5t-134 77.5q-76 41 -126 78t-79 74t-41 75t-12 79q0 55 25.5 109t71.5 96t110.5 69t142.5 27q80 0 151.5 -21.5t130.5 -54.5l-49 -180h-63l-19 112 q-66 43 -178 43q-82 0 -137 -43t-55 -100q0 -25 8 -47.5t34.5 -47t72.5 -55t124 -73.5q86 -49 142.5 -91t88 -82t44 -81t12.5 -88q0 -72 -27.5 -128.5t-76 -97.5t-112 -62.5t-134.5 -21.5q-98 0 -194.5 32t-174.5 77z" />
<glyph unicode="T" horiz-adv-x="1003" d="M322 61q59 12 78.5 38t19.5 79v821l-262 -30l-21 -135h-67l-50 245h963l-49 -245h-68l-20 135l-262 30v-909l143 -29l-10 -61h-412z" />
<glyph unicode="U" horiz-adv-x="1204" d="M473 1079l-16 -59q-57 -14 -77 -39t-20 -78v-485q0 -170 74 -247t219 -77q63 0 116.5 18.5t91.5 59.5t58.5 106.5t20.5 157.5v553l-131 31l10 59h342l-14 -59q-59 -14 -78.5 -40t-19.5 -79v-455q0 -242 -110 -355.5t-314 -113.5q-233 0 -330.5 108t-97.5 347v557l-146 31 l10 59h412z" />
<glyph unicode="V" horiz-adv-x="1085" d="M414 1079l-13 -59l-94 -31l240 -665q16 -47 26.5 -77t18.5 -54h2q6 25 15 53t26 76l235 667l-112 31l10 59h317l-12 -59q-29 -6 -48 -15.5t-34.5 -26.5t-30 -47t-32.5 -79l-307 -852h-127l-367 989l-117 31l13 59h391z" />
<glyph unicode="W" horiz-adv-x="1533" d="M408 1079l-13 -59l-96 -31l193 -665q10 -35 18 -69t12 -60h2q6 33 12.5 57t12.5 47l211 737h117l208 -694q18 -61 27.5 -93t13.5 -54h2q4 23 12.5 53.5t24.5 93.5l166 647l-102 31l12 59h293l-12 -59q-25 -6 -43.5 -13.5t-31.5 -24.5t-25.5 -48t-26.5 -82l-228 -852h-135 l-207 678q-25 82 -34 153h-3q-4 -35 -14 -72.5t-20 -78.5l-193 -680h-143l-295 989l-113 31l13 59h385z" />
<glyph unicode="X" horiz-adv-x="1132" d="M35 61q31 6 55.5 15.5t45 26t41 41t44.5 59.5l244 352l-297 434l-125 31l12 59h449l-17 -59l-120 -31l237 -354l252 354l-123 31l12 59h338l-12 -59q-57 -10 -91 -32.5t-69 -72.5l-247 -348l323 -477l125 -29l-12 -61h-445l11 61l129 31l-271 391l-272 -395l149 -27 l-8 -61h-373z" />
<glyph unicode="Y" horiz-adv-x="997" d="M383 1079l-12 -59l-72 -31l252 -440l242 440l-119 31l12 59h311l-14 -59q-25 -6 -43 -14.5t-34.5 -23.5t-34 -41t-40.5 -64l-233 -428v-359l143 -29l-10 -61h-409l16 61q59 12 77.5 38t18.5 79v262l-317 549l-107 31l13 59h360z" />
<glyph unicode="Z" horiz-adv-x="968" d="M61 66l619 923l-449 -20l-30 -109h-54l-43 219h744l31 -67l-613 -922l500 29l63 123h78l-39 -242h-786z" />
<glyph unicode="[" horiz-adv-x="452" d="M422 1200q-41 -4 -92 -19.5t-80 -31.5q-12 -80 -18.5 -244t-6.5 -444q0 -281 6.5 -444.5t18.5 -243.5q29 -16 80 -32.5t92 -23.5v-73q-92 10 -167 31.5t-134 54.5q-16 78 -28.5 252t-12.5 479q0 154 3 268.5t9 201.5t13.5 150.5t15.5 110.5q59 31 134 53.5t167 32.5v-78z " />
<glyph unicode="\" horiz-adv-x="595" d="M596 -141l-107 -39l-489 1384l109 43z" />
<glyph unicode="]" horiz-adv-x="452" d="M31 1278q92 -10 166.5 -32.5t134.5 -53.5q6 -47 13 -110.5t13.5 -150.5t10.5 -202t4 -268q0 -305 -13.5 -479.5t-27.5 -251.5q-59 -33 -134 -54.5t-167 -31.5v73q41 6 92 22.5t80 33.5q12 80 18 243.5t6 444.5t-6 444.5t-18 243.5q-29 16 -80 31.5t-92 19.5v78z" />
<glyph unicode="^" horiz-adv-x="1099" d="M119 387l385 692h96l381 -692h-131l-303 586l-295 -586h-133z" />
<glyph unicode="_" horiz-adv-x="1024" d="M0 -72h1024v-102h-1024v102z" />
<glyph unicode="`" horiz-adv-x="716" d="M459 911l-135 103q-76 57 -101.5 94t-25.5 68q0 33 23.5 58.5t60.5 35.5l219 -320z" />
<glyph unicode="a" horiz-adv-x="804" d="M88 705q78 53 154.5 76.5t165.5 23.5q106 0 180 -73t74 -202v-424l112 -30v-27q-20 -27 -56 -46t-67 -19q-49 0 -82.5 26.5t-50.5 85.5q-47 -53 -107.5 -82.5t-125.5 -29.5q-45 0 -85 14t-71 43t-49.5 71t-18.5 97q0 41 17.5 82t46.5 63q47 37 139 68t244 51v31 q0 98 -29.5 151.5t-83.5 75.5q-94 -29 -223 -143zM508 383q-41 0 -81 -3t-77 -9t-65.5 -13.5t-46.5 -15.5q-23 -45 -23 -113q0 -66 30.5 -102.5t96.5 -36.5q53 0 96 20.5t72 55.5q0 23 -1 57.5t-1 75.5v84z" />
<glyph unicode="b" horiz-adv-x="929" d="M291 141q35 -33 88 -52t106 -19q35 0 64 6t49 16q96 102 96 314q0 70 -16 126t-44 96t-61.5 60.5t-70.5 20.5q-47 0 -104.5 -33t-106.5 -96v-439zM137 1038l-137 29l14 61l277 33v-420q0 -20 -2 -41.5t-6 -33.5q63 76 132.5 109.5t141.5 33.5q63 0 117.5 -25.5 t95.5 -73.5t64.5 -118t23.5 -156q0 -109 -32.5 -192.5t-90 -143t-135.5 -90t-168 -30.5q-35 0 -75 6t-78.5 16t-74.5 24.5t-67 32.5v979z" />
<glyph unicode="c" horiz-adv-x="688" d="M641 31q-43 -23 -103.5 -37t-115.5 -14q-168 0 -262 91t-94 277q0 98 28.5 182t79.5 145.5t122 95.5t153 34q127 0 213 -49l-39 -176h-70l-23 90q-43 33 -120 32q-33 0 -69 -7t-58 -17q-23 -41 -38.5 -118t-15.5 -171q0 -162 71 -234.5t200 -72.5q35 0 66.5 5t56.5 11z " />
<glyph unicode="d" horiz-adv-x="956" d="M641 629q-41 41 -86 65.5t-104 24.5q-66 0 -121 -25q-45 -47 -69.5 -126t-24.5 -187q0 -156 62 -228.5t148 -72.5q55 0 102.5 29.5t92.5 97.5v422zM682 -25l-37 140q-55 -76 -118.5 -107t-147.5 -31q-61 0 -116.5 25t-98.5 73t-67.5 116.5t-24.5 154.5q0 82 24.5 165 t76.5 148.5t133 107.5t192 42q41 0 78.5 -11.5t68.5 -29.5q-2 10 -3 28.5t-1 30.5v211l-137 29l14 61l277 33v-1075l131 -25l-13 -61z" />
<glyph unicode="e" horiz-adv-x="774" d="M668 37q-47 -27 -110.5 -42t-135.5 -15q-160 0 -258 95t-98 273q0 98 27.5 183t77.5 146.5t120.5 96.5t157.5 35q125 0 195.5 -65.5t70.5 -188.5q0 -35 -10.5 -84t-24.5 -82h-451q4 -162 74 -235.5t211 -73.5q39 0 71.5 5t63.5 15zM553 477q4 18 6 38t2 42q0 78 -38 123 t-99 45q-63 0 -125 -31q-23 -37 -44.5 -100.5t-25.5 -138.5z" />
<glyph unicode="f" horiz-adv-x="573" d="M106 61q47 10 68 29t21 60v536l-170 41l16 57h154q2 109 30.5 181.5t84 115.5t140.5 61.5t201 18.5h17l-45 -149q-37 10 -82 16t-82 6q-53 0 -86 -8q-12 -33 -18.5 -79t-6.5 -120v-43h207l-20 -98h-187v-596l144 -29l-13 -61h-389z" />
<glyph unicode="g" horiz-adv-x="833" d="M414 342q68 0 108.5 38t40.5 142q0 102 -45 156.5t-127 54.5q-66 0 -107.5 -46t-41.5 -144q0 -102 47 -151.5t125 -49.5zM182 -76q0 -88 52.5 -140t160.5 -52q100 0 168 42t68 107q0 53 -54.5 86t-164.5 33h-113q-94 0 -140 31.5t-63 89.5l129 184q-59 29 -98 86.5 t-39 122.5q0 59 23.5 113.5t66.5 94.5t102.5 63.5t131.5 23.5q119 0 198 -55q29 63 57.5 89.5t57.5 26.5t55.5 -27.5t42.5 -88.5l-170 -35q29 -35 46.5 -79t17.5 -91q0 -63 -24.5 -115.5t-67.5 -89.5t-100.5 -57.5t-123.5 -20.5q-31 0 -62.5 5t-53.5 12l-45 -150h211 q160 0 240.5 -59.5t80.5 -141.5q0 -57 -27.5 -108t-80 -91t-129 -63.5t-175.5 -23.5q-154 0 -241.5 51t-87.5 117q0 45 43 82.5t108 48.5v-21z" />
<glyph unicode="h" horiz-adv-x="987" d="M82 61q47 10 66.5 29t19.5 60v888l-137 29l12 61l279 33v-375q0 -72 -11 -122q102 80 167 109.5t122 29.5q100 0 159.5 -62.5t59.5 -185.5v-465l131 -29l-12 -61h-375l17 61q47 10 66.5 29t19.5 60v344q0 78 -27 124t-76 68q-59 -6 -114.5 -26.5t-126.5 -61.5v-508 l131 -29l-13 -61h-374z" />
<glyph unicode="i" horiz-adv-x="514" d="M162 1059q0 94 98 94q92 0 92 -94q0 -96 -92 -96q-53 0 -75.5 24.5t-22.5 71.5zM100 61q47 10 67.5 29t20.5 60v528l-137 31l15 59l276 35v-713l131 -29l-12 -61h-375z" />
<glyph unicode="j" horiz-adv-x="471" d="M37 -299q43 39 81 82t58 78q2 27 3 45t2 33.5t1 34v46.5v658l-137 31l14 59l277 35v-756q0 -80 -12.5 -137t-41 -102.5t-78.5 -83t-124 -78.5zM158 1059q0 94 98 94q92 0 92 -94q0 -96 -92 -96q-53 0 -75.5 24.5t-22.5 71.5z" />
<glyph unicode="k" horiz-adv-x="937" d="M918 20q-55 -31 -121 -30q-23 0 -45.5 5t-46 19.5t-51 41t-60.5 69.5l-229 293l249 293l-102 14l12 59h369l-12 -59q-45 -2 -78 -10t-62.5 -24.5t-58.5 -43t-64 -65.5l-106 -125l205 -250q33 -41 57.5 -65.5t48 -39t48 -21.5t57.5 -9zM82 61q47 10 66.5 29t19.5 60v888 l-135 29l12 61l277 33v-1071l133 -29l-13 -61h-376z" />
<glyph unicode="l" horiz-adv-x="483" d="M80 61q47 10 66.5 29t19.5 60v888l-135 29l12 61l276 33v-1071l134 -29l-13 -61h-377z" />
<glyph unicode="m" horiz-adv-x="1484" d="M100 61q47 10 67.5 29t20.5 60v528l-137 31l15 59l229 35l37 -139q104 80 167.5 109.5t121.5 29.5q72 0 119.5 -37t76.5 -104q51 43 91 69.5t73 43t60.5 22.5t56.5 6q100 0 159.5 -62.5t59.5 -185.5v-465l131 -29l-12 -61h-375l16 61q47 10 66.5 29t19.5 60v344 q0 152 -98 192q-53 -4 -108.5 -25.5t-127.5 -62.5v-508l132 -29l-11 -61h-377l17 61q47 10 66.5 29t19.5 60v344q0 86 -23.5 129t-77.5 63q-53 -4 -107 -25.5t-126 -62.5v-508l131 -29l-12 -61h-375z" />
<glyph unicode="n" horiz-adv-x="1007" d="M100 61q47 10 67.5 29t20.5 60v528l-137 31l15 59l229 35l37 -139q104 80 167.5 109.5t121.5 29.5q100 0 159.5 -62.5t59.5 -185.5v-465l131 -29l-13 -61h-374l16 61q47 10 66.5 29t19.5 60v344q0 78 -26.5 124t-75.5 68q-59 -6 -114.5 -26.5t-127.5 -61.5v-508l131 -29 l-12 -61h-375z" />
<glyph unicode="o" horiz-adv-x="897" d="M434 -20q-178 0 -270 100t-92 268q0 90 24.5 173t72.5 147.5t120.5 102.5t169.5 38q88 0 156.5 -27.5t114.5 -77t70.5 -118t24.5 -150.5q0 -96 -28.5 -179t-80.5 -144.5t-124 -97t-158 -35.5zM465 70q45 0 82 15t62.5 53t39 100.5t13.5 154.5q0 78 -18.5 138.5 t-51.5 102.5t-75 63.5t-87 21.5q-98 0 -146 -78t-48 -248q0 -160 67.5 -241.5t161.5 -81.5z" />
<glyph unicode="p" horiz-adv-x="962" d="M322 168q41 -49 88 -72.5t118 -23.5q55 0 105 18q41 45 67.5 121t26.5 195q0 70 -16.5 126t-43 96t-60.5 60.5t-68 20.5q-55 0 -104.5 -23.5t-112.5 -87.5v-430zM82 -279q47 10 66.5 29t19.5 60v872l-135 31l12 59l229 31l41 -123q70 72 130.5 100.5t134.5 28.5 q63 0 119.5 -24.5t99.5 -72.5t67.5 -118t24.5 -158q0 -98 -33 -181t-86 -143.5t-122.5 -95t-145.5 -34.5q-119 0 -193 47q4 -12 7.5 -42t3.5 -61v-178l131 -27l-11 -63h-376z" />
<glyph unicode="q" horiz-adv-x="927" d="M641 629q-74 90 -190 90q-66 0 -121 -25q-45 -47 -69.5 -126t-24.5 -187q0 -78 16 -134.5t45 -93t66.5 -55t80.5 -18.5q57 0 104.5 29.5t92.5 97.5v422zM463 -279q106 12 142 30t36 59v190q0 35 1 63.5t3 51.5q-55 -76 -118.5 -107t-145.5 -31q-61 0 -117.5 25t-99.5 73 t-67.5 116.5t-24.5 156.5q0 82 24.5 164t76.5 147.5t133 107.5t192 42t190 -64l41 64l66 -21v-1040l92 -27l-10 -63h-426z" />
<glyph unicode="r" horiz-adv-x="653" d="M96 61q47 10 67.5 29t20.5 60v528l-137 31l14 59l230 35l37 -139q63 72 123.5 105.5t101.5 33.5q31 0 53.5 -31t30.5 -96l-299 -68v-518l131 -29l-12 -61h-375z" />
<glyph unicode="s" horiz-adv-x="700" d="M102 240h74l12 -101q80 -70 187 -69q55 0 91 27.5t36 70.5q0 25 -9.5 45t-34 43t-65.5 47.5t-102 58.5q-92 51 -131 102.5t-39 117.5q0 43 20.5 84t57.5 72.5t89 51t115 19.5q70 0 126.5 -14.5t103.5 -36.5l-39 -164h-64l-20 86q-29 18 -62.5 28.5t-74.5 10.5 q-31 0 -59.5 -5t-53.5 -16q-6 -10 -13 -26.5t-7 -32.5q0 -20 6 -36.5t24.5 -35t54 -41t95.5 -55.5q119 -66 165 -124t46 -130q0 -106 -76 -171.5t-193 -65.5q-74 0 -152.5 22.5t-152.5 60.5z" />
<glyph unicode="t" horiz-adv-x="620" d="M334 1012v-228h225l-27 -98h-198v-438q0 -94 20.5 -123t73.5 -29q31 0 61.5 7.5t65.5 23.5l25 -72q-59 -39 -113.5 -54t-110.5 -15q-37 0 -69.5 9t-56 31.5t-37 62.5t-13.5 101v496l-170 41l17 57h153v201z" />
<glyph unicode="u" horiz-adv-x="960" d="M299 784v-465q0 -133 34 -183t105 -50q59 0 107.5 26.5t89.5 86.5v495l-131 31l12 59h272v-698l132 -25l-11 -61l-233 -16l-37 135q-55 -72 -118.5 -103.5t-149.5 -31.5q-117 0 -171.5 65.5t-54.5 212.5v432l-114 31l10 59h258z" />
<glyph unicode="v" horiz-adv-x="849" d="M92 711l-82 14l13 59h358l-12 -59l-103 -14l211 -545l193 545l-115 14l10 59h275l-11 -59q-35 -4 -56 -25.5t-38 -68.5l-229 -631h-135z" />
<glyph unicode="w" horiz-adv-x="1249" d="M383 784l-12 -59l-105 -14l166 -545l182 600h107l197 -600l143 545l-119 14l12 59h285l-12 -59q-20 -2 -34.5 -8t-25 -20.5t-20.5 -39t-21 -63.5l-161 -594h-146l-178 547l-170 -547h-145l-228 711l-88 14l13 59h360z" />
<glyph unicode="x" horiz-adv-x="901" d="M12 59q37 6 63.5 13.5t47 22t39 35t43.5 52.5l155 217l-231 308l-86 18l12 59h361l-10 -59l-82 -18l163 -222l170 226l-79 14l12 59h301l-12 -59q-37 -4 -62.5 -9t-47 -16.5t-41 -30t-42.5 -46.5l-145 -193l254 -350l92 -21l-13 -59h-370l12 59l92 21l-188 260l-191 -260 l107 -21l-10 -59h-326z" />
<glyph unicode="y" horiz-adv-x="860" d="M47 -238q113 33 202 99.5t130 152.5l-287 697l-82 14l13 59h358l-12 -59l-103 -14l205 -531l193 531l-109 14l10 59h285l-10 -59q-43 -6 -65.5 -28.5t-45.5 -82.5l-207 -536q-37 -94 -76.5 -165t-84 -123t-93.5 -87t-104 -57z" />
<glyph unicode="z" horiz-adv-x="772" d="M41 57l469 645l-307 -12l-35 -106h-70l-24 200h624l9 -57l-471 -647l346 18l63 113h86l-37 -211h-633z" />
<glyph unicode="{" horiz-adv-x="454" d="M80 492q82 16 113.5 42.5t31.5 65.5t-15 83t-50 110t-52.5 108.5t-17.5 93.5q0 39 24.5 84t69.5 86t106.5 73t135.5 42l-35 -127q-53 -14 -108.5 -57t-83.5 -90q8 -37 26.5 -79t44.5 -102q29 -66 46.5 -113.5t17.5 -93.5q0 -119 -160 -161q78 -20 119 -61.5t41 -100.5 q0 -45 -17.5 -93t-46.5 -114q-29 -59 -46 -101t-25 -77q29 -49 84 -92t108 -58l35 -127q-74 10 -135.5 42t-106.5 73t-69.5 86t-24.5 84q0 51 17.5 95t52.5 110q35 63 50 107t15 83t-31.5 66t-113.5 43v70z" />
<glyph unicode="|" horiz-adv-x="819" d="M354 1161h111v-1261h-111v1261z" />
<glyph unicode="}" horiz-adv-x="454" d="M375 422q-82 -16 -114 -43t-32 -66t16.5 -83t51.5 -107q35 -66 51.5 -110t16.5 -95q0 -39 -25 -84t-70 -86t-105.5 -72.5t-133.5 -42.5l32 127q53 14 108.5 57.5t84.5 92.5q-6 35 -24.5 77t-47.5 101q-29 66 -46 114t-17 93q0 59 41 100t119 62q-160 43 -160 161 q0 45 17.5 93.5t45.5 113.5q27 59 46.5 101.5t25.5 79.5q-29 47 -84 90t-109 57l-32 127q74 -10 134 -42t105 -73t70 -86t25 -84q0 -51 -16.5 -94t-51.5 -108q-35 -66 -51.5 -110t-16.5 -83t32 -65.5t114 -42.5v-70z" />
<glyph unicode="~" horiz-adv-x="999" d="M150 379q72 127 117.5 177t92.5 50q18 0 56.5 -16.5t93.5 -50.5q59 -37 90 -51.5t47 -14.5q20 0 36.5 6t35 21.5t41 41t51.5 64.5l39 -41q-72 -127 -119 -178t-90 -51q-20 0 -54 14.5t-87 46.5q-41 23 -65.5 37.5t-40 21.5t-25 10t-17.5 3q-18 0 -33.5 -5t-34 -18.5 t-41 -40t-55.5 -69.5z" />
<glyph unicode="&#xa1;" horiz-adv-x="464" d="M307 705q0 -106 -104 -107q-102 0 -103 107q0 49 25 76.5t78 27.5q55 0 79.5 -26.5t24.5 -77.5zM170 395q4 45 13.5 61.5t31.5 16.5h16l84 -809l-206 -33z" />
<glyph unicode="&#xa2;" d="M743 98q-35 -20 -81 -31.5t-93 -15.5v-155h-118v159q-133 20 -205 109.5t-72 251.5q0 84 21.5 157.5t60.5 132t92 98.5t119 56v160h119v-148q106 -6 184 -49l-39 -176h-69l-23 90q-43 33 -121 33q-33 0 -68.5 -7t-58.5 -18q-23 -41 -38 -117.5t-15 -170.5 q0 -162 70.5 -233.5t199.5 -71.5q35 0 63.5 4t53.5 10z" />
<glyph unicode="&#xa3;" d="M158 518h118q18 223 112.5 320.5t232.5 97.5q59 0 110 -22.5t88 -65.5v-2l-92 -98h-2q-31 37 -70 57t-90 20q-29 0 -53.5 -4t-46.5 -12q-16 -35 -26.5 -99.5t-12.5 -191.5h289l-25 -90h-272q-18 -98 -57 -157.5t-89 -100.5v-2q47 -2 95.5 -8t107.5 -23q61 -16 102 -23.5 t87 -7.5q59 0 106 20.5t76 55.5h2l33 -73q-27 -57 -80 -94.5t-125 -37.5q-53 0 -102.5 11.5t-96.5 27.5q-49 16 -101 26.5t-102 10.5q-53 0 -101 -15t-93 -42l-12 4l22 117q14 10 33.5 21.5t36.5 19.5q25 12 42 27.5t29.5 44t21.5 75.5t17 123h-135z" />
<glyph unicode="&#xa4;" d="M84 160l149 96q-29 41 -46 90t-17 103q0 109 61 192l-147 94l92 117l119 -145q78 59 176 59q53 0 101.5 -18.5t86.5 -53.5l107 158l92 -117l-158 -82q35 -41 53.5 -93t18.5 -111t-18.5 -111.5t-53.5 -93.5l158 -84l-92 -115l-107 156q-39 -33 -87 -51.5t-101 -18.5 q-98 0 -178 62l-117 -148zM276 449q0 -45 15.5 -85t41 -71t61.5 -48.5t77 -17.5t77 17.5t61.5 48.5t41 70.5t15.5 85.5q0 45 -15.5 84.5t-41 69.5t-61.5 47.5t-77 17.5t-77 -17.5t-61.5 -47.5t-41 -69.5t-15.5 -84.5z" />
<glyph unicode="&#xa5;" d="M401 930l-12 -62l-86 -28l139 -222q23 -35 41.5 -70.5t28.5 -62.5h4q14 51 66 125l149 230l-106 28l12 62h278l-12 -62q-47 -8 -73.5 -29.5t-65.5 -78.5l-174 -271h248l-27 -90h-248v-92h268l-26 -90h-242v-127l119 -29l-14 -61h-375l16 61q59 12 80 38t21 79v39h-275 l27 90h248v92h-269l27 90h205l-230 351l-112 28l14 62h356z" />
<glyph unicode="&#xa6;" horiz-adv-x="819" d="M354 610v551h111v-551h-111zM465 453v-553h-111v553h111z" />
<glyph unicode="&#xa7;" horiz-adv-x="919" d="M272 -10q37 -47 90.5 -76t114.5 -29q53 0 85 30t32 62q0 41 -41 82t-141 111q-139 94 -200.5 174t-61.5 174q0 113 79 209l50 12q-31 51 -31 115q0 47 20.5 90t55 76t81 52.5t99.5 19.5q72 0 127 -25t94 -66l-78 -114q-37 47 -90 74.5t-115 27.5q-53 0 -83.5 -28.5 t-30.5 -61.5q0 -41 40 -82t140 -110q70 -47 120 -90.5t81.5 -85.5t46 -85t14.5 -90q0 -53 -19.5 -106t-60.5 -100l-49 -15q31 -53 31 -115q0 -47 -20.5 -90t-55.5 -74.5t-81 -51t-99 -19.5q-70 0 -126.5 24.5t-94.5 65.5zM629 160q49 74 49 139q0 31 -10.5 59.5t-36 59.5 t-68.5 65.5t-108 81.5q-57 41 -97.5 77t-64.5 75q-27 -39 -38 -73t-11 -66q0 -31 10 -60t35.5 -59.5t68.5 -67.5t109 -82q55 -41 95 -76.5t67 -72.5z" />
<glyph unicode="&#xa8;" horiz-adv-x="716" d="M438 1001q0 90 90 91q86 0 86 -91q0 -41 -20.5 -65.5t-65.5 -24.5q-90 0 -90 90zM102 1001q0 90 88 91q88 0 89 -91q0 -41 -21.5 -65.5t-67.5 -24.5q-88 0 -88 90z" />
<glyph unicode="&#xa9;" horiz-adv-x="1490" d="M993 678h-75l-19 115q-23 12 -58.5 24t-76.5 12q-98 0 -153.5 -75.5t-55.5 -186.5q0 -119 51 -188.5t162 -69.5q35 0 72 10.5t59 26.5l29 127h76v-182q-53 -29 -116 -45.5t-128 -16.5q-88 0 -156.5 25t-115 69t-70 105t-23.5 133q0 74 29 136.5t79 108.5t119.5 72.5 t153.5 26.5q76 0 141.5 -17.5t108.5 -37.5zM199 561q0 -113 43 -213t116.5 -176t174 -120t215.5 -44t214 44t172.5 120t115.5 176.5t42 212.5q0 113 -42 212t-115.5 175t-173 120t-213.5 44q-115 0 -215.5 -44t-174 -120t-116.5 -175t-43 -212zM102 561q0 133 49.5 250 t135.5 204t203.5 137t257.5 50q137 0 254.5 -50t203.5 -137t134.5 -204t48.5 -250t-48.5 -249.5t-134.5 -205t-203.5 -138.5t-254.5 -50q-139 0 -257 50t-204 138.5t-135.5 205t-49.5 249.5z" />
<glyph unicode="&#xaa;" horiz-adv-x="595" d="M76 1020q45 37 102.5 58.5t126.5 21.5q78 0 135.5 -53.5t57.5 -161.5v-281l90 -24v-23q-18 -20 -47 -36.5t-54 -16.5q-31 0 -55 23.5t-35 62.5q-43 -47 -84 -66.5t-82 -19.5q-76 0 -125 46t-49 118q0 33 15.5 62.5t44.5 51.5q35 27 96 48.5t174 37.5q0 47 -5 77 t-14.5 49.5t-24.5 29.5t-34 18q-37 -10 -87 -39.5t-83 -66.5zM389 643q-2 14 -2 28.5v53.5v63q-76 0 -128 -8t-75 -20q-14 -23 -14 -78q0 -47 26.5 -69.5t69.5 -22.5q72 0 123 53z" />
<glyph unicode="&#xab;" horiz-adv-x="931" d="M489 451l295 290l4 -59l-129 -236l-98 -51l98 -51l129 -235l-4 -58l-295 291v109zM143 451l295 290l4 -59l-129 -236l-98 -51l98 -51l129 -235l-4 -58l-295 291v109z" />
<glyph unicode="&#xac;" horiz-adv-x="999" d="M141 539h695v-406h-115v291h-580v115z" />
<glyph unicode="&#xad;" horiz-adv-x="645" d="M580 449q0 -49 -37 -69t-99 -20h-370v41q0 49 38 71t91 22h377v-45z" />
<glyph unicode="&#xae;" horiz-adv-x="1056" d="M297 633q47 6 47 39v313l-68 14l9 35h227q88 0 138 -34.5t50 -88.5q0 -49 -28.5 -76.5t-73.5 -41.5l66 -88q16 -23 27 -35.5t21.5 -18.5t20.5 -8t27 -4l-8 -37q-12 -4 -31 -9t-39 -5q-33 0 -55.5 17.5t-55.5 66.5l-67 102h-60v-129l66 -12l-6 -35h-215zM444 817h29 q57 0 93 20.5t36 63.5q0 41 -26.5 60.5t-88.5 19.5h-43v-164zM61 803q0 92 35 173t96.5 142.5t142.5 96t173 34.5t173 -34.5t142.5 -96t96 -142.5t34.5 -173t-34.5 -173t-96 -142.5t-142.5 -96.5t-173 -35t-173 35t-142.5 96.5t-96.5 142.5t-35 173zM129 803 q0 -78 29.5 -147.5t81 -121t121 -81t147.5 -29.5t147.5 29.5t120.5 81t81 121t30 147.5t-30 147.5t-81 120.5t-120.5 81t-147.5 30t-147.5 -30t-121 -81t-81 -120.5t-29.5 -147.5z" />
<glyph unicode="&#xaf;" horiz-adv-x="716" d="M96 993q8 41 32 55.5t83 14.5h407l-8 -43q-8 -39 -30.5 -52.5t-69.5 -13.5h-422z" />
<glyph unicode="&#xb0;" horiz-adv-x="649" d="M61 897q0 55 20.5 103.5t56.5 84t83 56t103 20.5q55 0 103 -20.5t84 -56t56.5 -84t20.5 -103.5t-20.5 -102t-56.5 -83t-84 -56.5t-103 -20.5t-102.5 20.5t-83.5 56.5t-56.5 83t-20.5 102zM162 897q0 -72 47 -121t115 -49t115.5 49t47.5 121t-48 122t-115 50 q-68 0 -115 -50t-47 -122z" />
<glyph unicode="&#xb1;" d="M127 111h690v-111h-690v111zM127 633h287v301h116v-301h287v-111h-287v-301h-116v301h-287v111z" />
<glyph unicode="&#xb2;" horiz-adv-x="608" d="M92 522l6 62l148 137q96 90 141 154.5t45 128.5q0 49 -28.5 85.5t-71.5 53.5q-37 -12 -80 -52t-78 -87l-88 77q51 57 110.5 93t139.5 36q43 0 83 -14t70.5 -40t49 -60.5t18.5 -73.5q0 -37 -10 -72t-35 -73.5t-69 -83.5t-111 -101l-119 -98l375 53l-19 -125h-477z" />
<glyph unicode="&#xb3;" horiz-adv-x="598" d="M102 1122q55 47 112.5 67.5t117.5 20.5q43 0 83 -13t69.5 -35.5t47 -54.5t17.5 -69q0 -53 -45 -97t-148 -60q96 -10 161 -52.5t65 -128.5q0 -82 -69 -135t-183 -53q-66 0 -122 15.5t-106 43.5l27 68q41 -23 84 -36t98 -13q68 0 108 30.5t40 84.5q0 59 -63.5 97t-182.5 50 l14 55q98 4 151.5 36t53.5 85q0 47 -29.5 76t-78.5 39q-33 -8 -78 -39t-76 -64l-68 82v0z" />
<glyph unicode="&#xb4;" horiz-adv-x="716" d="M197 950l219 320q37 -10 60.5 -36t23.5 -58q0 -31 -25.5 -68t-101.5 -94l-135 -103z" />
<glyph unicode="&#xb5;" horiz-adv-x="966" d="M217 -354q-68 143 -67 301q0 29 3 58.5t7 57.5q12 74 20 151t8 183q0 100 -6 190.5t-14 162.5l154 34q4 -35 6 -65.5t2 -61.5q0 -104 -12.5 -190t-12.5 -174q0 -195 129 -195q47 0 100.5 39t94.5 127q10 35 15 85t5 110q0 31 -2 69.5t-5 78.5t-7 77t-8 66l141 34 q4 -39 6 -80.5t2 -95.5q0 -68 -6 -143.5t-14 -147.5q-6 -41 -6 -75q0 -70 26.5 -105t87.5 -35q23 0 47.5 5.5t49.5 15.5v-74q-41 -29 -85.5 -47t-89.5 -18q-59 0 -103 48t-48 142q-51 -100 -102.5 -145t-120.5 -45q-49 0 -87 20.5t-61 54.5q-2 -8 -4 -27.5t-2 -37.5 q0 -92 25.5 -159.5t93.5 -135.5l-160 -53v0z" />
<glyph unicode="&#xb6;" horiz-adv-x="1120" d="M633 193q0 -86 -14.5 -153t-45 -119t-80 -96t-120.5 -83l-76 119q123 63 180.5 139t57.5 199v317q-186 27 -285.5 116t-99.5 224q0 66 26.5 121t76.5 96t120.5 64.5t161.5 23.5h98v-968zM768 1161h272q-10 -68 -52 -91t-120 -28v-1042h-100v1161z" />
<glyph unicode="&#xb7;" horiz-adv-x="256" d="M31 457q0 98 98 98q96 0 96 -98q0 -47 -23.5 -73t-72.5 -26q-53 0 -75.5 26t-22.5 73z" />
<glyph unicode="&#xb8;" horiz-adv-x="716" d="M438 88l45 -33l-88 -116q72 -31 102.5 -57.5t30.5 -55.5q0 -18 -11 -36.5t-42 -40t-84 -48.5t-135 -61l-27 45q94 51 124 78.5t30 43.5t-20.5 33t-77.5 47z" />
<glyph unicode="&#xb9;" horiz-adv-x="565" d="M371 1212l37 -20v-598l131 -23l-7 -49h-380l10 49q72 10 104.5 28.5t32.5 66.5v428l-209 -113l-33 61z" />
<glyph unicode="&#xba;" horiz-adv-x="706" d="M354 508q-123 0 -195.5 71.5t-72.5 192.5q0 63 18.5 123.5t55.5 107t91 74t126 27.5q123 0 194.5 -70.5t71.5 -197.5q0 -68 -21.5 -128.5t-59.5 -104.5t-91.5 -69.5t-116.5 -25.5zM377 580q57 0 102 53t45 174q0 100 -51 161.5t-125 61.5q-57 0 -100 -60.5t-43 -166.5 q0 -100 49 -161.5t123 -61.5z" />
<glyph unicode="&#xbb;" horiz-adv-x="931" d="M788 342l-292 -291l-7 58l129 235l99 51l-99 51l-129 236l7 59l292 -290v-109zM442 342l-292 -291l-7 58l129 235l99 51l-99 51l-129 236l7 59l292 -290v-109z" />
<glyph unicode="&#xbc;" horiz-adv-x="1499" d="M346 1171l37 -20v-598l131 -23l-6 -49h-381l10 49q72 10 104.5 29t32.5 66v428l-208 -113l-33 61zM1051 1135l82 -54l-713 -1130l-82 51zM1198 678h96v-461l113 6l-18 -92h-95v-131h-112v131h-312l-30 68zM1182 213v336l-264 -350z" />
<glyph unicode="&#xbd;" horiz-adv-x="1499" d="M1051 1135l82 -54l-713 -1130l-82 51zM346 1171l37 -20v-598l131 -23l-6 -49h-381l10 49q72 10 104.5 29t32.5 66v428l-208 -113l-33 61zM958 0l7 61l147 138q96 90 141 154.5t45 127.5q0 49 -28.5 86t-71.5 54q-37 -12 -80 -52.5t-78 -87.5l-88 78q51 57 110.5 93 t139.5 36q43 0 83 -14.5t70.5 -40t49 -60t18.5 -73.5q0 -37 -10 -72t-34.5 -74t-68.5 -84t-112 -100l-119 -98l375 53l-18 -125h-478z" />
<glyph unicode="&#xbe;" horiz-adv-x="1499" d="M1063 1135l82 -54l-713 -1130l-82 51zM1198 678h96v-461l113 6l-18 -92h-95v-131h-112v131h-312l-30 68zM1182 213v336l-264 -350zM74 1081q55 47 112.5 67.5t116.5 20.5q43 0 83 -13t69.5 -35.5t47 -54.5t17.5 -69q0 -53 -45 -97t-147 -60q96 -10 160.5 -52.5 t64.5 -128.5q0 -82 -68.5 -135t-183.5 -53q-66 0 -122 15.5t-105 43.5l26 68q41 -23 84 -36t99 -13q68 0 107.5 30.5t39.5 84.5q0 59 -63.5 97t-182.5 50l15 55q98 4 151 36t53 85q0 47 -29.5 76t-78.5 39q-33 -8 -78 -39t-76 -64z" />
<glyph unicode="&#xbf;" horiz-adv-x="761" d="M412 494q47 -35 74.5 -74t27.5 -80q0 -25 -8 -49.5t-27.5 -53t-51.5 -62.5t-79 -79q-84 -80 -115.5 -131t-31.5 -108q0 -35 10 -62.5t25 -46.5q16 -12 33.5 -18t52.5 -6q25 0 52 6t60 21.5t74 44t94 71.5l103 -117q-92 -72 -171 -101.5t-172 -29.5q-66 0 -121 19.5 t-95 53.5t-62.5 79t-22.5 98q0 31 5.5 63.5t22.5 68.5t50 77t88 90q49 43 80 73.5t49.5 54t24.5 41t6 36.5q0 29 -11 52.5t-32 47.5zM475 709q0 -104 -104 -105q-102 0 -103 105q0 104 103 104q55 0 79.5 -26.5t24.5 -77.5z" />
<glyph unicode="&#xc0;" horiz-adv-x="1134" d="M709 1184l-172 57q-106 37 -141.5 69.5t-35.5 73.5q0 29 23 51.5t51 32.5l305 -239zM27 61q57 14 97 47t69 111l307 856l135 31l366 -1016l134 -29l-17 -61h-389l16 61l82 29l-84 240h-403l-92 -240l96 -29l-12 -61h-322zM711 420l-172 493l-172 -493h344z" />
<glyph unicode="&#xc1;" horiz-adv-x="1134" d="M395 1247l305 240q29 -10 51.5 -32.5t22.5 -51.5q0 -41 -34.5 -74t-141.5 -69l-172 -58zM27 61q57 14 97 47t69 111l307 856l135 31l366 -1016l134 -29l-17 -61h-389l16 61l82 29l-84 240h-403l-92 -240l96 -29l-12 -61h-322zM711 420l-172 493l-172 -493h344z" />
<glyph unicode="&#xc2;" horiz-adv-x="1134" d="M537 1403h65l279 -152l-41 -57l-222 51l-49 62l-49 -62l-221 -51l-41 57zM27 61q57 14 97 47t69 111l307 856l135 31l366 -1016l134 -29l-17 -61h-389l16 61l82 29l-84 240h-403l-92 -240l96 -29l-12 -61h-322zM711 420l-172 493l-172 -493h344z" />
<glyph unicode="&#xc3;" horiz-adv-x="1134" d="M854 1409l39 -43q-113 -182 -186 -182q-27 0 -50.5 8t-52.5 22l-153 74l-134 -104l-38 41q113 184 186 184q27 0 49.5 -7t50.5 -22l156 -75zM27 61q57 14 97 47t69 111l307 856l135 31l366 -1016l134 -29l-17 -61h-389l16 61l82 29l-84 240h-403l-92 -240l96 -29l-12 -61 h-322zM711 420l-172 493l-172 -493h344z" />
<glyph unicode="&#xc4;" horiz-adv-x="1134" d="M274 1321q0 94 93 94q92 0 92 -94t-92 -94q-93 0 -93 94zM680 1321q0 47 24.5 70.5t67.5 23.5q92 0 92 -94t-92 -94t-92 94zM27 61q57 14 97 47t69 111l307 856l135 31l366 -1016l134 -29l-17 -61h-389l16 61l82 29l-84 240h-403l-92 -240l96 -29l-12 -61h-322zM711 420 l-172 493l-172 -493h344z" />
<glyph unicode="&#xc5;" horiz-adv-x="1134" d="M377 1204q0 37 14.5 70t40 57.5t61 39.5t78.5 15t79 -15t61.5 -39.5t39 -57.5t13.5 -70q0 -53 -28.5 -97t-78.5 -67l344 -950l134 -29l-17 -61h-389l16 61l82 29l-84 240h-403l-92 -240l96 -29l-12 -61h-322l17 61q57 14 97 47t69 111l294 821q-53 23 -81.5 67t-28.5 97z M711 420l-172 493l-172 -493h344zM473 1204q0 -45 27.5 -72.5t70.5 -27.5q45 0 71 27.5t26 72.5q0 43 -26 73t-71 30q-43 0 -70.5 -30t-27.5 -73z" />
<glyph unicode="&#xc6;" horiz-adv-x="1456" d="M631 61q59 12 77.5 38t18.5 81v150h-344l-129 -240l96 -29l-12 -61h-334l16 61q31 8 54.5 18.5t44 27t39 42t41.5 62.5l442 790l-113 19l11 59h829l-57 -225h-64l-18 115l-338 20v-377h348l-22 -90h-326v-432l362 27l66 125h65l-38 -242h-732zM727 420v393q0 47 1 90 t3 76h-2q-12 -29 -28.5 -59.5t-34.5 -65.5l-236 -434h297z" />
<glyph unicode="&#xc7;" horiz-adv-x="1050" d="M944 831h-67l-25 107q-39 23 -94.5 39t-126.5 16q-74 0 -137.5 -28.5t-111.5 -85t-74.5 -142.5t-26.5 -202q0 -111 26.5 -195t74.5 -142.5t114.5 -88t146.5 -29.5h25l4 4l4 -4q51 4 96 17.5t82 41.5l57 133h72l-20 -202q-66 -39 -135.5 -61.5t-159.5 -28.5l-43 -60 q72 -29 109.5 -58.5t37.5 -64.5q0 -41 -62.5 -87t-220.5 -97l-26 53q47 25 75.5 43.5t44 31.5t20.5 23.5t5 18.5q0 16 -22.5 35.5t-79.5 50.5l84 108q-111 2 -201 43t-155.5 112t-101.5 168t-36 214t42 222.5t116 185t175 127t220 47.5q109 0 195 -18.5t151 -47.5z" />
<glyph unicode="&#xc8;" d="M629 1184l-172 57q-106 37 -141 69.5t-35 73.5q0 29 22.5 51.5t50.5 32.5l305 -239zM115 61q59 12 78.5 38t19.5 81v809l-145 31l12 59h774l-57 -225h-64l-18 115l-338 20v-377h348l-23 -90h-325v-432l362 27l66 125h65l-39 -242h-733z" />
<glyph unicode="&#xc9;" d="M356 1247l306 240q29 -10 51 -32.5t22 -51.5q0 -41 -34.5 -74t-141.5 -69l-172 -58zM115 61q59 12 78.5 38t19.5 81v809l-145 31l12 59h774l-57 -225h-64l-18 115l-338 20v-377h348l-23 -90h-325v-432l362 27l66 125h65l-39 -242h-733z" />
<glyph unicode="&#xca;" d="M477 1403h66l278 -152l-41 -57l-221 51l-49 62l-49 -62l-221 -51l-41 57zM115 61q59 12 78.5 38t19.5 81v809l-145 31l12 59h774l-57 -225h-64l-18 115l-338 20v-377h348l-23 -90h-325v-432l362 27l66 125h65l-39 -242h-733z" />
<glyph unicode="&#xcb;" d="M215 1321q0 94 92 94t92 -94t-92 -94t-92 94zM621 1321q0 47 24.5 70.5t67.5 23.5q92 0 92 -94t-92 -94t-92 94zM115 61q59 12 78.5 38t19.5 81v809l-145 31l12 59h774l-57 -225h-64l-18 115l-338 20v-377h348l-23 -90h-325v-432l362 27l66 125h65l-39 -242h-733z" />
<glyph unicode="&#xcc;" horiz-adv-x="587" d="M424 1184l-172 57q-106 37 -141 69.5t-35 73.5q0 29 22.5 51.5t51.5 32.5l305 -239zM115 61q59 12 78.5 38t19.5 79v811l-145 31l12 59h405l-12 -59q-57 -14 -76.5 -40t-19.5 -79v-811l143 -29l-14 -61h-408z" />
<glyph unicode="&#xcd;" horiz-adv-x="587" d="M152 1247l305 240q29 -10 51 -32.5t22 -51.5q0 -41 -34.5 -74t-141.5 -69l-172 -58zM115 61q59 12 78.5 38t19.5 79v811l-145 31l12 59h405l-12 -59q-57 -14 -76.5 -40t-19.5 -79v-811l143 -29l-14 -61h-408z" />
<glyph unicode="&#xce;" horiz-adv-x="587" d="M266 1403h66l278 -152l-41 -57l-221 51l-49 62l-49 -62l-221 -51l-41 57zM115 61q59 12 78.5 38t19.5 79v811l-145 31l12 59h405l-12 -59q-57 -14 -76.5 -40t-19.5 -79v-811l143 -29l-14 -61h-408z" />
<glyph unicode="&#xcf;" horiz-adv-x="587" d="M39 1321q0 94 92 94t92 -94t-92 -94t-92 94zM367 1321q0 47 24.5 70.5t67.5 23.5q92 0 92 -94t-92 -94t-92 94zM115 61q59 12 78.5 38t19.5 79v811l-145 31l12 59h405l-12 -59q-57 -14 -76.5 -40t-19.5 -79v-811l143 -29l-14 -61h-408z" />
<glyph unicode="&#xd0;" horiz-adv-x="1167" d="M66 596h147v393l-145 31l12 59h409q287 0 434.5 -133t147.5 -379q0 -133 -40 -237.5t-113.5 -178t-178 -112.5t-233.5 -39h-408l17 61q59 12 78.5 37t19.5 78v330h-147v90zM444 90q219 0 331 96.5t112 329.5q0 246 -111.5 359.5t-341.5 113.5h-57v-393h250v-90h-250v-416 h67z" />
<glyph unicode="&#xd1;" horiz-adv-x="1239" d="M940 1409l39 -43q-113 -182 -186 -182q-27 0 -50.5 8t-52.5 22l-153 74l-134 -104l-38 41q113 184 186 184q27 0 49.5 -7t50.5 -22l156 -75zM115 61q59 12 78.5 38t19.5 79v811l-145 31l12 59h229l572 -684q35 -41 51 -61.5t29 -36.5l2 2q-2 35 -2 64.5v89.5v536l-105 31 l10 59h316l-17 -59q-59 -14 -78.5 -39t-19.5 -78v-903h-82l-596 721q-49 57 -72 90l-2 -2q2 -27 3 -54.5t1 -74.5v-590l134 -29l-11 -61h-344z" />
<glyph unicode="&#xd2;" horiz-adv-x="1226" d="M748 1184l-173 57q-106 37 -141 69.5t-35 73.5q0 29 22.5 51.5t51.5 32.5l305 -239zM281 535q0 -211 89 -333t261 -122q68 0 125 23.5t99 76.5t66.5 139.5t24.5 210.5q0 211 -88 337t-260 126q-68 0 -125 -25.5t-100 -81t-67.5 -142t-24.5 -209.5zM610 -23 q-115 0 -209 36t-161.5 103.5t-105.5 164t-38 217.5q0 125 42 234.5t116 190.5t173 127t214 46t206 -37t153.5 -106.5t96 -167t33.5 -218.5t-38.5 -228.5t-107.5 -187t-165 -127t-209 -47.5z" />
<glyph unicode="&#xd3;" horiz-adv-x="1226" d="M516 1247l305 240q29 -10 51.5 -32.5t22.5 -51.5q0 -41 -35 -74t-141 -69l-172 -58zM281 535q0 -211 89 -333t261 -122q68 0 125 23.5t99 76.5t66.5 139.5t24.5 210.5q0 211 -88 337t-260 126q-68 0 -125 -25.5t-100 -81t-67.5 -142t-24.5 -209.5zM610 -23 q-115 0 -209 36t-161.5 103.5t-105.5 164t-38 217.5q0 125 42 234.5t116 190.5t173 127t214 46t206 -37t153.5 -106.5t96 -167t33.5 -218.5t-38.5 -228.5t-107.5 -187t-165 -127t-209 -47.5z" />
<glyph unicode="&#xd4;" horiz-adv-x="1226" d="M596 1403h66l278 -152l-41 -57l-221 51l-49 62l-49 -62l-222 -51l-41 57zM281 535q0 -211 89 -333t261 -122q68 0 125 23.5t99 76.5t66.5 139.5t24.5 210.5q0 211 -88 337t-260 126q-68 0 -125 -25.5t-100 -81t-67.5 -142t-24.5 -209.5zM610 -23q-115 0 -209 36 t-161.5 103.5t-105.5 164t-38 217.5q0 125 42 234.5t116 190.5t173 127t214 46t206 -37t153.5 -106.5t96 -167t33.5 -218.5t-38.5 -228.5t-107.5 -187t-165 -127t-209 -47.5z" />
<glyph unicode="&#xd5;" horiz-adv-x="1226" d="M913 1409l39 -43q-113 -182 -186 -182q-27 0 -50.5 8t-51.5 22l-154 74l-133 -104l-39 41q113 184 186 184q27 0 49.5 -7t51.5 -22l155 -75zM281 535q0 -211 89 -333t261 -122q68 0 125 23.5t99 76.5t66.5 139.5t24.5 210.5q0 211 -88 337t-260 126q-68 0 -125 -25.5 t-100 -81t-67.5 -142t-24.5 -209.5zM610 -23q-115 0 -209 36t-161.5 103.5t-105.5 164t-38 217.5q0 125 42 234.5t116 190.5t173 127t214 46t206 -37t153.5 -106.5t96 -167t33.5 -218.5t-38.5 -228.5t-107.5 -187t-165 -127t-209 -47.5z" />
<glyph unicode="&#xd6;" horiz-adv-x="1226" d="M334 1321q0 94 92 94t92 -94t-92 -94t-92 94zM739 1321q0 47 24.5 70.5t67.5 23.5q92 0 93 -94q0 -94 -93 -94q-92 0 -92 94zM281 535q0 -211 89 -333t261 -122q68 0 125 23.5t99 76.5t66.5 139.5t24.5 210.5q0 211 -88 337t-260 126q-68 0 -125 -25.5t-100 -81 t-67.5 -142t-24.5 -209.5zM610 -23q-115 0 -209 36t-161.5 103.5t-105.5 164t-38 217.5q0 125 42 234.5t116 190.5t173 127t214 46t206 -37t153.5 -106.5t96 -167t33.5 -218.5t-38.5 -228.5t-107.5 -187t-165 -127t-209 -47.5z" />
<glyph unicode="&#xd7;" d="M80 137l319 320l-321 321l74 74l321 -322l322 322l71 -74l-319 -321l319 -320l-71 -74l-322 320l-319 -320z" />
<glyph unicode="&#xd8;" horiz-adv-x="1226" d="M199 164q-45 59 -74 141t-29 193q0 125 42 234.5t116 190.5t173 127t214 46q96 0 178 -28t135 -75l111 121l63 -59l-110 -123q53 -70 82.5 -161t29.5 -204q0 -121 -38.5 -228.5t-107.5 -187t-165 -127t-209 -47.5q-213 0 -350 119l-127 -135l-70 59zM371 203 q41 -57 105.5 -90t154.5 -33q68 0 125 23.5t99 76.5t66.5 139.5t24.5 210.5q0 76 -15.5 150t-37.5 117zM846 879q-82 115 -248 114q-68 0 -125 -25.5t-100 -81t-67.5 -142.5t-24.5 -209q0 -74 11 -140.5t34 -107.5z" />
<glyph unicode="&#xd9;" horiz-adv-x="1204" d="M770 1184l-172 57q-106 37 -141 69.5t-35 73.5q0 29 22.5 51.5t51.5 32.5l305 -239zM473 1079l-16 -59q-57 -14 -77 -39t-20 -78v-485q0 -170 74 -247t219 -77q63 0 116.5 18.5t91.5 59.5t58.5 106.5t20.5 157.5v553l-131 31l10 59h342l-14 -59q-59 -14 -78.5 -40 t-19.5 -79v-455q0 -242 -110 -355.5t-314 -113.5q-233 0 -330.5 108t-97.5 347v557l-146 31l10 59h412z" />
<glyph unicode="&#xda;" horiz-adv-x="1204" d="M539 1247l305 240q29 -10 51.5 -32.5t22.5 -51.5q0 -41 -35 -74t-142 -69l-172 -58zM473 1079l-16 -59q-57 -14 -77 -39t-20 -78v-485q0 -170 74 -247t219 -77q63 0 116.5 18.5t91.5 59.5t58.5 106.5t20.5 157.5v553l-131 31l10 59h342l-14 -59q-59 -14 -78.5 -40 t-19.5 -79v-455q0 -242 -110 -355.5t-314 -113.5q-233 0 -330.5 108t-97.5 347v557l-146 31l10 59h412z" />
<glyph unicode="&#xdb;" horiz-adv-x="1204" d="M618 1403h66l279 -152l-41 -57l-222 51l-49 62l-49 -62l-221 -51l-41 57zM473 1079l-16 -59q-57 -14 -77 -39t-20 -78v-485q0 -170 74 -247t219 -77q63 0 116.5 18.5t91.5 59.5t58.5 106.5t20.5 157.5v553l-131 31l10 59h342l-14 -59q-59 -14 -78.5 -40t-19.5 -79v-455 q0 -242 -110 -355.5t-314 -113.5q-233 0 -330.5 108t-97.5 347v557l-146 31l10 59h412z" />
<glyph unicode="&#xdc;" horiz-adv-x="1204" d="M356 1321q0 94 93 94q92 0 92 -94t-92 -94q-93 0 -93 94zM762 1321q0 47 24.5 70.5t67.5 23.5q92 0 92 -94t-92 -94t-92 94zM473 1079l-16 -59q-57 -14 -77 -39t-20 -78v-485q0 -170 74 -247t219 -77q63 0 116.5 18.5t91.5 59.5t58.5 106.5t20.5 157.5v553l-131 31l10 59 h342l-14 -59q-59 -14 -78.5 -40t-19.5 -79v-455q0 -242 -110 -355.5t-314 -113.5q-233 0 -330.5 108t-97.5 347v557l-146 31l10 59h412z" />
<glyph unicode="&#xdd;" horiz-adv-x="1017" d="M432 1247l305 240q29 -10 51.5 -32.5t22.5 -51.5q0 -41 -35 -74t-141 -69l-172 -58zM393 1079l-12 -59l-72 -31l252 -440l242 440l-119 31l12 59h312l-15 -59q-25 -6 -43 -14.5t-34.5 -23.5t-34 -41t-39.5 -64l-234 -428v-359l144 -29l-11 -61h-409l16 61q59 12 77.5 38 t18.5 79v262l-317 549l-107 31l13 59h360z" />
<glyph unicode="&#xde;" horiz-adv-x="966" d="M115 61q59 12 78.5 37t19.5 78v813l-145 31l12 59h405l-12 -59q-57 -14 -76.5 -40t-19.5 -79v-49h127q205 0 308 -80t103 -211q0 -84 -34.5 -145.5t-96 -101.5t-143.5 -59t-176 -19h-88v-146l143 -29l-14 -61h-408zM377 305h43q164 0 237.5 56.5t73.5 179.5 q0 229 -295 229h-59v-465z" />
<glyph unicode="&#xdf;" horiz-adv-x="1081" d="M106 61q47 10 68 29t21 60v536l-170 41l16 57h154q2 170 94 273.5t264 103.5q139 0 220 -69.5t81 -180.5q0 -33 -12.5 -85t-40.5 -93q-66 -12 -102.5 -38.5t-36.5 -67.5q0 -16 7 -32.5t26.5 -35t53 -41t87.5 -55.5q61 -37 101 -67.5t62.5 -60.5t31.5 -59.5t9 -62.5 q0 -57 -22.5 -101t-60 -74t-87 -45.5t-102.5 -15.5q-82 0 -153.5 20.5t-139.5 61.5l45 185h76l10 -115q29 -27 74 -44t96 -17q68 0 101.5 26.5t33.5 67.5q0 23 -8 43t-30.5 42.5t-60.5 48.5t-97 58q-102 57 -143.5 109.5t-41.5 116.5q0 125 142 194q16 37 22 66.5t6 64.5 q0 74 -51 120t-129 46q-47 0 -83 -13.5t-64 -31.5q-6 -16 -11.5 -35.5t-8.5 -49.5t-4 -70t-1 -97v-774h-258z" />
<glyph unicode="&#xe0;" horiz-adv-x="806" d="M90 705q78 53 154.5 76.5t165.5 23.5q106 0 180 -73t74 -202v-424l112 -30v-27q-20 -27 -56 -46t-67 -19q-49 0 -82.5 26.5t-50.5 85.5q-47 -53 -107.5 -82.5t-125.5 -29.5q-45 0 -85 14t-71 43t-49.5 71t-18.5 97q0 41 17.5 82t46.5 63q47 37 139 68t244 51v31 q0 98 -29.5 151.5t-83.5 75.5q-94 -29 -223 -143zM510 383q-41 0 -81 -3t-77 -9t-65.5 -13.5t-46.5 -15.5q-23 -45 -23 -113q0 -66 30.5 -102.5t96.5 -36.5q53 0 96 20.5t72 55.5q0 23 -1 57.5t-1 75.5v84zM436 911l-135 103q-76 57 -101.5 94t-25.5 68q0 33 23.5 58.5 t60.5 35.5l219 -320z" />
<glyph unicode="&#xe1;" horiz-adv-x="806" d="M90 705q78 53 154.5 76.5t165.5 23.5q106 0 180 -73t74 -202v-424l112 -30v-27q-20 -27 -56 -46t-67 -19q-49 0 -82.5 26.5t-50.5 85.5q-47 -53 -107.5 -82.5t-125.5 -29.5q-45 0 -85 14t-71 43t-49.5 71t-18.5 97q0 41 17.5 82t46.5 63q47 37 139 68t244 51v31 q0 98 -29.5 151.5t-83.5 75.5q-94 -29 -223 -143zM510 383q-41 0 -81 -3t-77 -9t-65.5 -13.5t-46.5 -15.5q-23 -45 -23 -113q0 -66 30.5 -102.5t96.5 -36.5q53 0 96 20.5t72 55.5q0 23 -1 57.5t-1 75.5v84zM299 950l219 320q37 -10 60.5 -36t23.5 -58q0 -31 -25.5 -68 t-101.5 -94l-135 -103z" />
<glyph unicode="&#xe2;" horiz-adv-x="806" d="M90 705q78 53 154.5 76.5t165.5 23.5q106 0 180 -73t74 -202v-424l112 -30v-27q-20 -27 -56 -46t-67 -19q-49 0 -82.5 26.5t-50.5 85.5q-47 -53 -107.5 -82.5t-125.5 -29.5q-45 0 -85 14t-71 43t-49.5 71t-18.5 97q0 41 17.5 82t46.5 63q47 37 139 68t244 51v31 q0 98 -29.5 151.5t-83.5 75.5q-94 -29 -223 -143zM510 383q-41 0 -81 -3t-77 -9t-65.5 -13.5t-46.5 -15.5q-23 -45 -23 -113q0 -66 30.5 -102.5t96.5 -36.5q53 0 96 20.5t72 55.5q0 23 -1 57.5t-1 75.5v84zM661 956l-41 -47l-180 115l-37 61l-36 -61l-181 -115l-41 47 l234 246h49z" />
<glyph unicode="&#xe3;" horiz-adv-x="806" d="M90 705q78 53 154.5 76.5t165.5 23.5q106 0 180 -73t74 -202v-424l112 -30v-27q-20 -27 -56 -46t-67 -19q-49 0 -82.5 26.5t-50.5 85.5q-47 -53 -107.5 -82.5t-125.5 -29.5q-45 0 -85 14t-71 43t-49.5 71t-18.5 97q0 41 17.5 82t46.5 63q47 37 139 68t244 51v31 q0 98 -29.5 151.5t-83.5 75.5q-94 -29 -223 -143zM510 383q-41 0 -81 -3t-77 -9t-65.5 -13.5t-46.5 -15.5q-23 -45 -23 -113q0 -66 30.5 -102.5t96.5 -36.5q53 0 96 20.5t72 55.5q0 23 -1 57.5t-1 75.5v84zM129 950q61 98 101 134t67 36q23 0 46.5 -8t63.5 -31l113 -59 l133 96l31 -39q-109 -168 -164 -168q-16 0 -46 10.5t-77 34.5l-102 58l-135 -101l-31 37v0z" />
<glyph unicode="&#xe4;" horiz-adv-x="806" d="M90 705q78 53 154.5 76.5t165.5 23.5q106 0 180 -73t74 -202v-424l112 -30v-27q-20 -27 -56 -46t-67 -19q-49 0 -82.5 26.5t-50.5 85.5q-47 -53 -107.5 -82.5t-125.5 -29.5q-45 0 -85 14t-71 43t-49.5 71t-18.5 97q0 41 17.5 82t46.5 63q47 37 139 68t244 51v31 q0 98 -29.5 151.5t-83.5 75.5q-94 -29 -223 -143zM510 383q-41 0 -81 -3t-77 -9t-65.5 -13.5t-46.5 -15.5q-23 -45 -23 -113q0 -66 30.5 -102.5t96.5 -36.5q53 0 96 20.5t72 55.5q0 23 -1 57.5t-1 75.5v84zM483 1021q0 90 90 91q86 0 86 -91q0 -41 -20.5 -65.5t-65.5 -24.5 q-90 0 -90 90zM147 1021q0 90 88 91q88 0 89 -91q0 -41 -21.5 -65.5t-67.5 -24.5q-88 0 -88 90z" />
<glyph unicode="&#xe5;" horiz-adv-x="806" d="M199 1069q0 39 16 74t44 61.5t65.5 42t81.5 15.5q43 0 79.5 -15.5t64.5 -42t44 -61.5t16 -74t-16 -73.5t-44 -60.5t-64.5 -41t-79.5 -15t-81 15t-66 41t-44 60.5t-16 73.5zM299 1069q0 -49 29.5 -80t77.5 -31q49 0 76.5 31t27.5 80q0 47 -27.5 80t-76.5 33q-47 0 -77 -33 t-30 -80zM90 705q78 53 155 76.5t165 23.5q106 0 180 -73t74 -202v-424l112 -30v-27q-20 -27 -56 -46t-67 -19q-49 0 -82.5 26.5t-50.5 85.5q-47 -53 -107.5 -82.5t-125.5 -29.5q-45 0 -85 14t-71 43t-49.5 71t-18.5 97q0 41 17.5 82t46.5 63q47 37 139 68t244 51v31 q0 98 -29.5 151.5t-83.5 75.5q-94 -29 -223 -143zM510 383q-41 0 -81 -3t-77 -9t-65.5 -13.5t-46.5 -15.5q-23 -45 -23 -113q0 -66 31 -102.5t96 -36.5q53 0 96 20.5t72 55.5q0 23 -1 57.5t-1 75.5v84z" />
<glyph unicode="&#xe6;" horiz-adv-x="1202" d="M1096 37q-47 -27 -110.5 -42t-135.5 -15q-102 0 -171 38.5t-116 110.5q-66 -78 -128 -111.5t-148 -33.5q-45 0 -85 14t-71 43t-49.5 71t-18.5 97q0 41 17.5 82t46.5 63q47 37 139 68t244 51v31q0 55 -7 93t-21.5 64.5t-36 43t-48.5 26.5q-94 -29 -223 -143l-86 117 q80 53 157 76.5t165 23.5q68 0 121 -31t81 -98q37 66 108 100.5t157 34.5q123 0 194.5 -63.5t71.5 -192.5q0 -41 -11.5 -89t-23.5 -77h-451q4 -162 74 -235.5t211 -73.5q39 0 72 5t63 15zM532 190q-10 29 -16 73t-6 85v35q-41 0 -81 -3t-77 -9t-65.5 -13.5t-46.5 -15.5 q-23 -45 -23 -113q0 -66 29.5 -102.5t87.5 -36.5q55 0 109 29.5t89 70.5zM979 479q10 31 10 82q0 86 -40 126t-99 40q-29 0 -61.5 -10t-61.5 -23q-29 -37 -49.5 -104.5t-20.5 -134.5z" />
<glyph unicode="&#xe7;" horiz-adv-x="688" d="M381 -18q-150 10 -232.5 101t-82.5 265q0 98 28.5 182t79.5 145.5t122 95.5t153 34q127 0 213 -49l-39 -176h-70l-23 90q-43 33 -120 32q-33 0 -69 -7t-58 -17q-23 -41 -38.5 -118t-15.5 -171q0 -162 71 -234.5t200 -72.5q35 0 66.5 5t56.5 11l18 -67q-39 -20 -89 -32.5 t-101 -16.5l-54 -74q72 -31 102.5 -57.5t30.5 -55.5q0 -18 -11 -36.5t-42 -40t-84 -48t-135 -61.5l-27 45q94 51 124 78.5t30 44.5q0 16 -20.5 32.5t-77.5 47.5z" />
<glyph unicode="&#xe8;" horiz-adv-x="774" d="M668 37q-47 -27 -110.5 -42t-135.5 -15q-160 0 -258 95t-98 273q0 98 27.5 183t77.5 146.5t120.5 96.5t157.5 35q125 0 195.5 -65.5t70.5 -188.5q0 -35 -10.5 -84t-24.5 -82h-451q4 -162 74 -235.5t211 -73.5q39 0 71.5 5t63.5 15zM553 477q4 18 6 38t2 42q0 78 -38 123 t-99 45q-63 0 -125 -31q-23 -37 -44.5 -100.5t-25.5 -138.5zM471 911l-135 103q-76 57 -101.5 94t-25.5 68q0 33 23.5 58.5t60.5 35.5l219 -320z" />
<glyph unicode="&#xe9;" horiz-adv-x="774" d="M668 37q-47 -27 -110.5 -42t-135.5 -15q-160 0 -258 95t-98 273q0 98 27.5 183t77.5 146.5t120.5 96.5t157.5 35q125 0 195.5 -65.5t70.5 -188.5q0 -35 -10.5 -84t-24.5 -82h-451q4 -162 74 -235.5t211 -73.5q39 0 71.5 5t63.5 15zM553 477q4 18 6 38t2 42q0 78 -38 123 t-99 45q-63 0 -125 -31q-23 -37 -44.5 -100.5t-25.5 -138.5zM357 950l219 320q37 -10 60.5 -36t23.5 -58q0 -31 -25.5 -68t-101.5 -94l-135 -103z" />
<glyph unicode="&#xea;" horiz-adv-x="774" d="M668 37q-47 -27 -110.5 -42t-135.5 -15q-160 0 -258 95t-98 273q0 98 27.5 183t77.5 146.5t120.5 96.5t157.5 35q125 0 195.5 -65.5t70.5 -188.5q0 -35 -10.5 -84t-24.5 -82h-451q4 -162 74 -235.5t211 -73.5q39 0 71.5 5t63.5 15zM553 477q4 18 6 38t2 42q0 78 -38 123 t-99 45q-63 0 -125 -31q-23 -37 -44.5 -100.5t-25.5 -138.5zM698 956l-41 -47l-180 115l-37 61l-36 -61l-181 -115l-41 47l234 246h49z" />
<glyph unicode="&#xeb;" horiz-adv-x="774" d="M668 37q-47 -27 -110.5 -42t-135.5 -15q-160 0 -258 95t-98 273q0 98 27.5 183t77.5 146.5t120.5 96.5t157.5 35q125 0 195.5 -65.5t70.5 -188.5q0 -35 -10.5 -84t-24.5 -82h-451q4 -162 74 -235.5t211 -73.5q39 0 71.5 5t63.5 15zM553 477q4 18 6 38t2 42q0 78 -38 123 t-99 45q-63 0 -125 -31q-23 -37 -44.5 -100.5t-25.5 -138.5zM520 1021q0 90 90 91q86 0 86 -91q0 -41 -20.5 -65.5t-65.5 -24.5q-90 0 -90 90zM184 1021q0 90 88 91q88 0 89 -91q0 -41 -21.5 -65.5t-67.5 -24.5q-88 0 -88 90z" />
<glyph unicode="&#xec;" horiz-adv-x="514" d="M100 61q47 10 67.5 29t20.5 60v528l-137 31l15 59l276 35v-713l131 -29l-12 -61h-375zM334 911l-135 103q-76 57 -101.5 94t-25.5 68q0 33 23.5 58.5t60.5 35.5l219 -320z" />
<glyph unicode="&#xed;" horiz-adv-x="514" d="M100 61q47 10 67.5 29t20.5 60v528l-137 31l15 59l276 35v-713l131 -29l-12 -61h-375zM158 950l219 320q37 -10 60.5 -36t23.5 -58q0 -31 -25.5 -68t-101.5 -94l-135 -103z" />
<glyph unicode="&#xee;" horiz-adv-x="514" d="M100 61q47 10 67.5 29t20.5 60v528l-137 31l15 59l276 35v-713l131 -29l-12 -61h-375zM520 954l-41 -47l-180 115l-37 61l-37 -61l-180 -115l-41 47l234 246h49z" />
<glyph unicode="&#xef;" horiz-adv-x="514" d="M322 1022q0 90 90 90q86 0 86 -90q0 -41 -20.5 -65.5t-65.5 -24.5q-90 0 -90 90zM16 1022q0 90 88 90t89 -90q0 -41 -21.5 -65.5t-67.5 -24.5q-88 0 -88 90zM100 61q47 10 67.5 29t20.5 60v528l-137 31l15 59l276 35v-713l131 -29l-12 -61h-375z" />
<glyph unicode="&#xf0;" horiz-adv-x="903" d="M772 1077l-170 -88q109 -98 169 -235.5t60 -300.5q0 -117 -28.5 -205t-80.5 -148.5t-124 -90t-160 -29.5q-168 0 -267 100t-99 268q0 90 27.5 169t75.5 136.5t114.5 90t146.5 32.5q66 0 114 -22.5t71 -44.5l2 2q-43 129 -131 223l-193 -98l-35 67l166 86q-88 70 -201 109 l19 65q82 -16 154.5 -47t134.5 -74l202 105zM643 614q-27 31 -76 51.5t-104 20.5q-102 0 -164.5 -70.5t-62.5 -222.5q0 -160 58 -241.5t150 -81.5q43 0 84 20.5t72 62.5t49.5 105.5t18.5 149.5t-6.5 128.5t-18.5 77.5z" />
<glyph unicode="&#xf1;" horiz-adv-x="1007" d="M100 61q47 10 67.5 29t20.5 60v528l-137 31l15 59l229 35l37 -139q104 80 167.5 109.5t121.5 29.5q100 0 159.5 -62.5t59.5 -185.5v-465l131 -29l-13 -61h-374l16 61q47 10 66.5 29t19.5 60v344q0 78 -26.5 124t-75.5 68q-59 -6 -114.5 -26.5t-127.5 -61.5v-508l131 -29 l-12 -61h-375zM236 950q61 98 101 134t67 36q23 0 46.5 -8t63.5 -31l113 -59l133 96l31 -39q-109 -168 -164 -168q-16 0 -46 10.5t-77 34.5l-102 58l-135 -101l-31 37v0z" />
<glyph unicode="&#xf2;" horiz-adv-x="897" d="M434 -20q-178 0 -270 100t-92 268q0 90 24.5 173t72.5 147.5t120.5 102.5t169.5 38q88 0 156.5 -27.5t114.5 -77t70.5 -118t24.5 -150.5q0 -96 -28.5 -179t-80.5 -144.5t-124 -97t-158 -35.5zM465 70q45 0 82 15t62.5 53t39 100.5t13.5 154.5q0 78 -18.5 138.5 t-51.5 102.5t-75 63.5t-87 21.5q-98 0 -146 -78t-48 -248q0 -160 67.5 -241.5t161.5 -81.5zM477 911l-135 103q-76 57 -101.5 94t-25.5 68q0 33 23.5 58.5t60.5 35.5l219 -320z" />
<glyph unicode="&#xf3;" horiz-adv-x="897" d="M434 -20q-178 0 -270 100t-92 268q0 90 24.5 173t72.5 147.5t120.5 102.5t169.5 38q88 0 156.5 -27.5t114.5 -77t70.5 -118t24.5 -150.5q0 -96 -28.5 -179t-80.5 -144.5t-124 -97t-158 -35.5zM465 70q45 0 82 15t62.5 53t39 100.5t13.5 154.5q0 78 -18.5 138.5 t-51.5 102.5t-75 63.5t-87 21.5q-98 0 -146 -78t-48 -248q0 -160 67.5 -241.5t161.5 -81.5zM363 950l219 320q37 -10 60.5 -36t23.5 -58q0 -31 -25.5 -68t-101.5 -94l-135 -103z" />
<glyph unicode="&#xf4;" horiz-adv-x="897" d="M434 -20q-178 0 -270 100t-92 268q0 90 24.5 173t72.5 147.5t120.5 102.5t169.5 38q88 0 156.5 -27.5t114.5 -77t70.5 -118t24.5 -150.5q0 -96 -28.5 -179t-80.5 -144.5t-124 -97t-158 -35.5zM465 70q45 0 82 15t62.5 53t39 100.5t13.5 154.5q0 78 -18.5 138.5 t-51.5 102.5t-75 63.5t-87 21.5q-98 0 -146 -78t-48 -248q0 -160 67.5 -241.5t161.5 -81.5zM704 956l-41 -47l-180 115l-37 61l-36 -61l-181 -115l-41 47l234 246h49z" />
<glyph unicode="&#xf5;" horiz-adv-x="897" d="M434 -20q-178 0 -270 100t-92 268q0 90 24.5 173t72.5 147.5t120.5 102.5t169.5 38q88 0 156.5 -27.5t114.5 -77t70.5 -118t24.5 -150.5q0 -96 -28.5 -179t-80.5 -144.5t-124 -97t-158 -35.5zM465 70q45 0 82 15t62.5 53t39 100.5t13.5 154.5q0 78 -18.5 138.5 t-51.5 102.5t-75 63.5t-87 21.5q-98 0 -146 -78t-48 -248q0 -160 67.5 -241.5t161.5 -81.5zM172 950q61 98 101 134t67 36q23 0 46.5 -8t63.5 -31l113 -59l133 96l31 -39q-109 -168 -164 -168q-16 0 -46 10.5t-77 34.5l-102 58l-135 -101l-31 37v0z" />
<glyph unicode="&#xf6;" horiz-adv-x="897" d="M434 -20q-178 0 -270 100t-92 268q0 90 24.5 173t72.5 147.5t120.5 102.5t169.5 38q88 0 156.5 -27.5t114.5 -77t70.5 -118t24.5 -150.5q0 -96 -28.5 -179t-80.5 -144.5t-124 -97t-158 -35.5zM465 70q45 0 82 15t62.5 53t39 100.5t13.5 154.5q0 78 -18.5 138.5 t-51.5 102.5t-75 63.5t-87 21.5q-98 0 -146 -78t-48 -248q0 -160 67.5 -241.5t161.5 -81.5zM526 1021q0 90 90 91q86 0 86 -91q0 -41 -20.5 -65.5t-65.5 -24.5q-90 0 -90 90zM190 1021q0 90 88 91q88 0 89 -91q0 -41 -21.5 -65.5t-67.5 -24.5q-88 0 -88 90z" />
<glyph unicode="&#xf7;" d="M377 770q0 90 88 90t88 -90q0 -88 -88 -88t-88 88zM377 164q0 92 88 92t88 -92q0 -88 -88 -88t-88 88zM127 414v110h690v-110h-690z" />
<glyph unicode="&#xf8;" horiz-adv-x="897" d="M137 111q-31 43 -48 104t-17 131q0 90 24.5 173t73.5 147.5t122 103.5t169 39q78 0 138 -21.5t101 -56.5l60 68l59 -54l-63 -73q70 -94 69 -238q0 -96 -28.5 -179t-80.5 -145.5t-124 -98.5t-158 -36q-78 0 -137 20.5t-104 57.5l-66 -71l-61 51zM299 156q29 -41 72 -65.5 t94 -24.5q45 0 82 16t62.5 54t39 101.5t13.5 157.5q0 41 -7.5 85t-17.5 71zM596 629q-33 43 -76 66.5t-90 23.5q-96 0 -145 -79t-49 -249q0 -41 6 -84t18 -76z" />
<glyph unicode="&#xf9;" horiz-adv-x="960" d="M299 784v-465q0 -133 34 -183t105 -50q59 0 107.5 26.5t89.5 86.5v495l-131 31l12 59h272v-698l132 -25l-11 -61l-233 -16l-37 135q-55 -72 -118.5 -103.5t-149.5 -31.5q-117 0 -171.5 65.5t-54.5 212.5v432l-114 31l10 59h258zM477 911l-135 103q-76 57 -101.5 94 t-25.5 68q0 33 23.5 58.5t60.5 35.5l219 -320z" />
<glyph unicode="&#xfa;" horiz-adv-x="960" d="M299 784v-465q0 -133 34 -183t105 -50q59 0 107.5 26.5t89.5 86.5v495l-131 31l12 59h272v-698l132 -25l-11 -61l-233 -16l-37 135q-55 -72 -118.5 -103.5t-149.5 -31.5q-117 0 -171.5 65.5t-54.5 212.5v432l-114 31l10 59h258zM363 950l219 320q37 -10 60.5 -36 t23.5 -58q0 -31 -25.5 -68t-101.5 -94l-135 -103z" />
<glyph unicode="&#xfb;" horiz-adv-x="960" d="M299 784v-465q0 -133 34 -183t105 -50q59 0 107.5 26.5t89.5 86.5v495l-131 31l12 59h272v-698l132 -25l-11 -61l-233 -16l-37 135q-55 -72 -118.5 -103.5t-149.5 -31.5q-117 0 -171.5 65.5t-54.5 212.5v432l-114 31l10 59h258zM704 956l-41 -47l-180 115l-37 61l-36 -61 l-181 -115l-41 47l234 246h49z" />
<glyph unicode="&#xfc;" horiz-adv-x="960" d="M299 784v-465q0 -133 34 -183t105 -50q59 0 107.5 26.5t89.5 86.5v495l-131 31l12 59h272v-698l132 -25l-11 -61l-233 -16l-37 135q-55 -72 -118.5 -103.5t-149.5 -31.5q-117 0 -171.5 65.5t-54.5 212.5v432l-114 31l10 59h258zM526 1021q0 90 90 91q86 0 86 -91 q0 -41 -20.5 -65.5t-65.5 -24.5q-90 0 -90 90zM190 1021q0 90 88 91q88 0 89 -91q0 -41 -21.5 -65.5t-67.5 -24.5q-88 0 -88 90z" />
<glyph unicode="&#xfd;" horiz-adv-x="862" d="M47 -238q113 33 202 99.5t130 152.5l-287 697l-82 14l13 59h358l-12 -59l-103 -14l205 -531l193 531l-109 14l10 59h285l-10 -59q-43 -6 -65.5 -28.5t-45.5 -82.5l-207 -536q-37 -94 -76.5 -165t-84 -123t-93.5 -87t-104 -57zM385 950l219 320q37 -10 60.5 -36t23.5 -58 q0 -31 -25.5 -68t-101.5 -94l-135 -103z" />
<glyph unicode="&#xfe;" horiz-adv-x="962" d="M322 168q43 -49 90 -72.5t116 -23.5q55 0 105 18q41 45 66.5 121t25.5 195q0 70 -16.5 126t-42 96t-59.5 60.5t-66 20.5q-57 0 -105.5 -22.5t-113.5 -88.5v-430zM82 -279q47 10 66.5 29t19.5 60v1228l-137 29l12 61l279 33v-477q66 70 126 97.5t132 27.5 q63 0 119.5 -24.5t99.5 -72.5t67.5 -118t24.5 -158q0 -98 -33 -182t-86 -145.5t-122.5 -96.5t-145.5 -35q-113 0 -193 52q4 -12 7.5 -42t3.5 -61v-182l131 -23l-11 -63h-376z" />
<glyph unicode="&#xff;" horiz-adv-x="862" d="M47 -238q113 33 202 99.5t130 152.5l-287 697l-82 14l13 59h358l-12 -59l-103 -14l205 -531l193 531l-109 14l10 59h285l-10 -59q-43 -6 -65.5 -28.5t-45.5 -82.5l-207 -536q-37 -94 -76.5 -165t-84 -123t-93.5 -87t-104 -57zM549 1021q0 90 90 91q86 0 86 -91 q0 -41 -20.5 -65.5t-65.5 -24.5q-90 0 -90 90zM213 1021q0 90 88 91q88 0 89 -91q0 -41 -21.5 -65.5t-67.5 -24.5q-88 0 -88 90z" />
<glyph unicode="&#x152;" horiz-adv-x="1492" d="M1380 0h-598q-31 -10 -83 -16.5t-99 -6.5q-111 0 -203 36t-159.5 103.5t-104.5 164t-37 217.5q0 129 39 238.5t109.5 189.5t168 125t212.5 45q55 0 105 -6.5t93 -10.5h580l-57 -225h-64l-18 115l-338 20v-377h348l-23 -90h-325v-432l362 27l66 125h65zM762 969 q-29 10 -64.5 17t-89.5 7q-68 0 -127 -25.5t-103 -81t-70.5 -142.5t-26.5 -209q0 -102 22.5 -186.5t67.5 -145t109.5 -93t150.5 -32.5q43 0 72.5 3t58.5 11v877z" />
<glyph unicode="&#x153;" horiz-adv-x="1361" d="M1255 37q-47 -27 -110.5 -42t-134.5 -15q-98 0 -168 37.5t-117 109.5q-111 -147 -291 -147q-178 0 -270 99t-92 267q0 90 24.5 173t72.5 147.5t120.5 103.5t169.5 39q100 0 173 -39t120 -108q49 68 123.5 107.5t160.5 39.5q125 0 196 -65.5t71 -188.5q0 -35 -10.5 -84 t-24.5 -82h-451q4 -162 74 -235.5t211 -73.5q41 0 72.5 5t62.5 15zM465 70q45 0 82 15t62.5 53t39 100.5t13.5 156.5q0 76 -19.5 136.5t-51.5 101.5t-74 63.5t-87 22.5q-98 0 -146 -79t-48 -249q0 -160 67.5 -240.5t161.5 -80.5zM1141 477q4 18 6 38t2 42q0 78 -38 123 t-99 45q-63 0 -125 -31q-23 -37 -44.5 -100.5t-25.5 -138.5z" />
<glyph unicode="&#x160;" horiz-adv-x="911" d="M541 1194h-66l-278 152l41 57l221 -51l49 -62l49 62l221 51l41 -57zM150 297h75l15 -129q47 -41 106.5 -65.5t134.5 -24.5q92 0 146.5 44t54.5 109q0 29 -11.5 56.5t-42 58.5t-82.5 65.5t-134 77.5q-76 41 -126 78t-79 74t-41 75t-12 79q0 55 25.5 109t71.5 96t110.5 69 t142.5 27q80 0 151.5 -21.5t130.5 -54.5l-49 -180h-63l-19 112q-66 43 -178 43q-82 0 -137 -43t-55 -100q0 -25 8 -47.5t34.5 -47t72.5 -55t124 -73.5q86 -49 142.5 -91t88 -82t44 -81t12.5 -88q0 -72 -27.5 -128.5t-76 -97.5t-112 -62.5t-134.5 -21.5q-98 0 -194.5 32 t-174.5 77z" />
<glyph unicode="&#x161;" horiz-adv-x="700" d="M412 932h-50l-233 246l41 47l180 -115l37 -61l37 61l180 115l41 -47zM102 240h74l12 -101q80 -70 187 -69q55 0 91 27.5t36 70.5q0 25 -9.5 45t-34 43t-65.5 47.5t-102 58.5q-92 51 -131 102.5t-39 117.5q0 43 20.5 84t57.5 72.5t89 51t115 19.5q70 0 126.5 -14.5 t103.5 -36.5l-39 -164h-64l-20 86q-29 18 -62.5 28.5t-74.5 10.5q-31 0 -59.5 -5t-53.5 -16q-6 -10 -13 -26.5t-7 -32.5q0 -20 6 -36.5t24.5 -35t54 -41t95.5 -55.5q119 -66 165 -124t46 -130q0 -106 -76 -171.5t-193 -65.5q-74 0 -152.5 22.5t-152.5 60.5z" />
<glyph unicode="&#x178;" horiz-adv-x="1017" d="M250 1321q0 94 92 94t92 -94t-92 -94t-92 94zM655 1321q0 47 25 70.5t68 23.5q92 0 92 -94t-92 -94q-93 0 -93 94zM393 1079l-12 -59l-72 -31l252 -440l242 440l-119 31l12 59h312l-15 -59q-25 -6 -43 -14.5t-34.5 -23.5t-34 -41t-39.5 -64l-234 -428v-359l144 -29 l-11 -61h-409l16 61q59 12 77.5 38t18.5 79v262l-317 549l-107 31l13 59h360z" />
<glyph unicode="&#x17d;" horiz-adv-x="1058" d="M543 1194h-66l-278 152l41 57l221 -51l49 -62l49 62l221 51l41 -57zM80 66l618 923l-448 -20l-31 -109h-53l-43 219h743l31 -67l-612 -922l499 29l64 123h78l-39 -242h-787z" />
<glyph unicode="&#x17e;" horiz-adv-x="772" d="M436 932h-49l-233 246l41 47l180 -115l37 -61l37 61l180 115l41 -47zM41 57l469 645l-307 -12l-35 -106h-70l-24 200h624l9 -57l-471 -647l346 18l63 113h86l-37 -211h-633z" />
<glyph unicode="&#x192;" d="M160 86q16 -92 47 -127t67 -35q23 0 41.5 11.5t32.5 42t24.5 85t18.5 138.5l27 291q-78 10 -113 26.5t-39 44.5l-2 17l164 6q12 84 40 149.5t65.5 109.5t86 67.5t99.5 23.5q68 0 113 -27.5t45 -72.5q0 -23 -9.5 -44.5t-21.5 -37.5h-2q-51 39 -100.5 63.5t-84.5 24.5 q-43 0 -61 -61.5t-27 -192.5l195 6l-25 -105h-178l-28 -245q-29 -223 -108 -314.5t-194 -91.5q-78 0 -127 36t-49 89q0 35 27 70t74 53h2z" />
<glyph unicode="&#x2c6;" horiz-adv-x="716" d="M616 979l-41 -47l-180 115l-37 61l-36 -61l-181 -115l-41 47l234 246h49z" />
<glyph unicode="&#x2dc;" horiz-adv-x="716" d="M84 950q61 98 101 134t67 36q23 0 46.5 -8t63.5 -31l113 -59l133 96l31 -39q-109 -168 -164 -168q-16 0 -46 10.5t-77 34.5l-102 58l-135 -101l-31 37v0z" />
<glyph unicode="&#x60c;" horiz-adv-x="468" d="M279 -53q-78 29 -121 81t-43 128q0 78 52 157.5t146 132.5l37 -34q-98 -106 -117 -213q20 -31 56.5 -53.5t81.5 -34.5z" />
<glyph unicode="&#x615;" horiz-adv-x="0" d="M-18 1438l104 -15q0 39 -2 82t-7 83t-11.5 73t-14.5 53l76 43q4 -23 20.5 -42t34.5 -29l-49 -25q2 -23 3 -42.5t1 -41.5q0 -63 -12 -133q29 76 73 118t89 42q37 0 68.5 -36t31.5 -83q0 -35 -14.5 -61.5t-38 -43t-54 -24.5t-61.5 -8q-66 0 -119 11t-94 32zM342 1456 q-6 33 -25.5 50.5t-46.5 17.5q-29 0 -64.5 -25.5t-66.5 -79.5q74 0 122 8.5t81 28.5z" />
<glyph unicode="&#x61b;" horiz-adv-x="468" d="M123 100q0 113 113 113q53 0 81.5 -29.5t28.5 -83.5q0 -53 -27.5 -81.5t-82.5 -28.5q-113 -1 -113 110zM273 496q-78 29 -121 81t-43 128q0 78 52 157.5t146 132.5l37 -34q-98 -106 -117 -213q20 -31 56.5 -53.5t81.5 -34.5z" />
<glyph unicode="&#x61f;" horiz-adv-x="716" d="M311 297q37 41 53.5 68.5t16.5 52.5q0 35 -39 90t-131 145q-86 82 -112.5 139.5t-26.5 116.5q0 51 20.5 99.5t59 85t97 59.5t134.5 23q92 0 160.5 -32t122.5 -89l-113 -115q-104 117 -225 117q-72 0 -111 -21q-8 -16 -12 -33.5t-4 -46.5q0 -25 4 -44t17.5 -41.5t39 -51 t66.5 -71.5q51 -55 83.5 -94.5t51 -70t26 -55t7.5 -51.5q0 -33 -13.5 -64.5t-33 -57t-42 -42t-40.5 -16.5h-56zM256 70q0 98 98 98q47 0 72 -25.5t25 -72.5q0 -98 -97 -99q-98 1 -98 99z" />
<glyph unicode="&#x621;" horiz-adv-x="686" d="M119 41q-2 4 -4 10t-2 27q0 31 30.5 71.5t114.5 79.5q-59 10 -92 43t-33 72q0 53 18.5 105.5t50 94.5t77 68.5t100.5 26.5q41 0 83 -15.5t77 -43.5l-78 -117q-59 47 -127 47q-45 0 -81 -29.5t-46 -70.5q27 -39 75 -61.5t119 -22.5q53 0 117 14t137 45l-57 -145 q-123 -33 -249 -84.5t-230 -114.5z" />
<glyph unicode="&#x622;" horiz-adv-x="409" d="M281 1178q0 -121 4 -247t8 -249q6 -117 10 -221.5t4 -190.5q0 -82 -3 -118.5t-11 -65.5q-8 -25 -22.5 -57.5t-30.5 -61.5h-41q0 219 -9.5 377t-21.5 291q-10 127 -17.5 239.5t-7.5 247.5l138 115v-59zM456 1509q25 -14 25 -47q0 -47 -58.5 -80t-160.5 -45 q-119 -16 -180.5 -48t-81.5 -73q-20 8 -34.5 28.5t-14.5 43.5q0 53 57 83.5t186 45.5q125 14 180 33.5t82 58.5z" />
<glyph unicode="&#x623;" horiz-adv-x="409" d="M281 1178q0 -121 4 -247t8 -249q6 -117 10 -221.5t4 -190.5q0 -82 -3 -118.5t-11 -65.5q-8 -25 -22.5 -57.5t-30.5 -61.5h-41q0 219 -9.5 377t-21.5 291q-10 127 -17.5 239.5t-7.5 247.5l138 115v-59zM268 1528q-31 18 -63 19q-29 0 -59.5 -17.5t-43.5 -48.5 q18 -23 53 -35t70 -12q37 0 76 14.5t82 38.5l-27 -102q-35 -10 -73.5 -24.5t-77.5 -32t-76 -38t-68 -40.5q-4 16 -4 24q0 37 29 61.5t57 32.5q-90 23 -90 87q0 78 48 128t118 50q55 0 96 -31z" />
<glyph unicode="&#x624;" horiz-adv-x="737" d="M10 -356q119 33 214 83t166 108.5t115 121.5t60 123q-23 -23 -60.5 -41.5t-82.5 -18.5q-47 0 -88 17.5t-72 49.5t-48 75t-17 94q0 47 17 96t47 89t69 65.5t82 25.5q49 0 93 -29.5t77.5 -80.5t53 -120t19.5 -144q0 -94 -25.5 -182.5t-72.5 -164t-112.5 -138t-143.5 -103.5 l-262 33zM266 258q23 -47 67 -69.5t101 -22.5q37 0 76 10t55 23q-14 86 -64 133t-102 47q-47 0 -82 -34t-51 -87zM444 878q-31 18 -63 19q-29 0 -59.5 -17.5t-43.5 -48.5q18 -23 53 -35t70 -12q37 0 76 14.5t82 38.5l-27 -102q-35 -10 -73.5 -24.5t-77.5 -32t-76 -38 t-68 -40.5q-4 16 -4 24q0 37 29 61.5t57 32.5q-90 23 -90 87q0 78 48 128t118 50q55 0 96 -31z" />
<glyph unicode="&#x625;" horiz-adv-x="409" d="M271 1178q0 -121 4 -247t8 -249q6 -117 10 -221.5t4 -190.5q0 -82 -3 -118.5t-11 -65.5q-8 -25 -22.5 -57.5t-30.5 -61.5h-41q0 219 -9.5 377t-21.5 291q-10 127 -17.5 239.5t-7.5 247.5l138 115v-59zM295 -254q-31 18 -63 18q-29 0 -59.5 -17t-43.5 -48q18 -23 53 -35 t70 -12q37 0 76 14.5t82 38.5l-27 -102q-35 -10 -73.5 -24.5t-77.5 -32t-76 -38t-68 -40.5q-4 16 -4 24q0 37 29 61.5t57 32.5q-90 23 -90 86q0 78 48 128t118 50q55 0 96 -30z" />
<glyph unicode="&#x626;" horiz-adv-x="1288" d="M207 254q-16 -39 -24.5 -82t-8.5 -106q0 -150 101.5 -232t275.5 -82q182 0 307 47t178 115q-10 12 -23.5 23.5t-35 27t-56 33.5t-85.5 45q-53 27 -87 47.5t-52.5 40t-25.5 39.5t-7 45q0 72 33.5 144.5t91 132t134 97.5t162.5 38q47 0 87 -12.5t69 -28.5l-76 -152 q-25 12 -56.5 21.5t-70.5 9.5q-94 0 -166.5 -49t-113.5 -133q8 -10 20.5 -19.5t34 -22t54 -29.5t81.5 -42q98 -49 137 -86t39 -72q0 -25 -7 -64.5t-23 -80.5q-57 -129 -208 -207t-376 -78q-215 0 -322.5 106.5t-107.5 303.5q0 90 27.5 153.5t60.5 83.5zM313 600 q-31 18 -63 19q-29 0 -59.5 -17.5t-43.5 -48.5q18 -23 53 -35t70 -12q37 0 76 14.5t82 38.5l-27 -102q-35 -10 -73.5 -24.5t-77.5 -32t-76 -38t-68 -40.5q-4 16 -4 24q0 37 29 61.5t57 32.5q-90 23 -90 87q0 78 48 128t118 50q55 0 96 -31z" />
<glyph unicode="&#x627;" horiz-adv-x="409" d="M281 1178q0 -121 4 -247t8 -249q6 -117 10 -221.5t4 -190.5q0 -82 -3 -118.5t-11 -65.5q-8 -25 -22.5 -57.5t-30.5 -61.5h-41q0 219 -9.5 377t-21.5 291q-10 127 -17.5 239.5t-7.5 247.5l138 115v-59z" />
<glyph unicode="&#x628;" horiz-adv-x="1595" d="M1427 733q18 -25 36 -63.5t31 -84.5t21.5 -95.5t8.5 -96.5q0 -70 -36 -139.5t-114 -122.5q-61 -41 -144 -72.5t-178.5 -53t-199.5 -32t-209 -10.5q-164 0 -273.5 21.5t-175 64.5t-94 108.5t-28.5 155.5q0 78 18.5 140.5t40.5 76.5l39 25q-4 -23 -8 -52.5t-4 -45.5 q0 -86 27.5 -147.5t91 -100.5t165 -57.5t248.5 -18.5q106 0 211 10.5t201 30t180 47t145 62.5q-12 76 -41.5 151.5t-64.5 122.5zM698 -389q-33 14 -72.5 45t-64.5 66l100 122q25 -33 66 -63.5t70 -46.5z" />
<glyph unicode="&#x629;" horiz-adv-x="692" d="M319 725q57 -25 111.5 -73t96.5 -106.5t68 -125t26 -127.5q0 -68 -23 -124t-61.5 -97t-93 -63.5t-117.5 -22.5q-117 0 -185.5 71.5t-68.5 184.5q0 94 53 194.5t158 177.5zM319 526q-78 -59 -110.5 -120.5t-32.5 -126.5q0 -66 46 -99t106 -33q68 0 121 24t83 65 q-23 86 -78 165.5t-135 124.5zM441 815q-29 12 -63 37t-58 51l-70 -102q-33 14 -72.5 42t-64.5 62l94 125q20 -27 51 -55.5t60 -44.5l80 115q27 -31 67.5 -60.5t69.5 -44.5z" />
<glyph unicode="&#x62a;" horiz-adv-x="1595" d="M1427 733q18 -25 36 -63.5t31 -84.5t21.5 -95.5t8.5 -96.5q0 -70 -36 -139.5t-114 -122.5q-61 -41 -144 -72.5t-178.5 -53t-199.5 -32t-209 -10.5q-164 0 -273.5 21.5t-175 64.5t-94 108.5t-28.5 155.5q0 78 18.5 140.5t40.5 76.5l39 25q-4 -23 -8 -52.5t-4 -45.5 q0 -86 27.5 -147.5t91 -100.5t165 -57.5t248.5 -18.5q106 0 211 10.5t201 30t180 47t145 62.5q-12 76 -41.5 151.5t-64.5 122.5zM848 608q-29 12 -63 37t-58 51l-70 -102q-33 14 -72.5 42t-64.5 62l94 125q20 -27 51 -55.5t60 -44.5l80 115q27 -31 67.5 -60.5t69.5 -44.5z " />
<glyph unicode="&#x62b;" horiz-adv-x="1595" d="M1427 733q18 -25 36 -63.5t31 -84.5t21.5 -95.5t8.5 -96.5q0 -70 -36 -139.5t-114 -122.5q-61 -41 -144 -72.5t-178.5 -53t-199.5 -32t-209 -10.5q-164 0 -273.5 21.5t-175 64.5t-94 108.5t-28.5 155.5q0 78 18.5 140.5t40.5 76.5l39 25q-4 -23 -8 -52.5t-4 -45.5 q0 -86 27.5 -147.5t91 -100.5t165 -57.5t248.5 -18.5q106 0 211 10.5t201 30t180 47t145 62.5q-12 76 -41.5 151.5t-64.5 122.5zM719 819q-12 4 -33 17.5t-40.5 31t-34.5 34t-21 26.5l98 121q18 -29 56 -64t69 -51zM848 608q-29 12 -63 37t-58 51l-70 -102q-33 14 -72.5 42 t-64.5 62l94 125q20 -27 51 -55.5t60 -44.5l80 115q27 -31 67.5 -60.5t69.5 -44.5z" />
<glyph unicode="&#x62c;" horiz-adv-x="1114" d="M90 557q-6 8 -9 18.5t-3 18.5q0 23 15.5 55.5t47.5 69.5q41 51 90.5 75.5t83.5 24.5q45 0 103.5 -19.5t156.5 -66.5q53 -25 99.5 -41t94.5 -25.5t106.5 -13.5t136.5 -4l-51 -143q-166 -4 -312.5 -48t-257 -119t-175 -176.5t-64.5 -219.5q0 -156 128 -245t363 -89 q129 0 228.5 13t201.5 46l-8 -43q-4 -18 -46 -49t-113.5 -61.5t-165 -53t-197.5 -22.5q-231 0 -366.5 107.5t-135.5 316.5q0 131 44 238.5t121 193.5t180 152.5t222 119.5q-76 43 -153.5 65.5t-155.5 31.5q-47 -14 -103.5 -44t-105.5 -63zM633 -94q-33 14 -72.5 45t-64.5 66 l100 122q25 -33 66 -63.5t70 -46.5z" />
<glyph unicode="&#x62d;" horiz-adv-x="1114" d="M90 557q-6 8 -9 18.5t-3 18.5q0 23 15.5 55.5t47.5 69.5q41 51 90.5 75.5t83.5 24.5q45 0 103.5 -19.5t156.5 -66.5q53 -25 99.5 -41t94.5 -25.5t106.5 -13.5t136.5 -4l-51 -143q-166 -4 -312.5 -48t-257 -119t-175 -176.5t-64.5 -219.5q0 -156 128 -245t363 -89 q129 0 228.5 13t201.5 46l-8 -43q-4 -18 -46 -49t-113.5 -61.5t-165 -53t-197.5 -22.5q-231 0 -366.5 107.5t-135.5 316.5q0 131 44 238.5t121 193.5t180 152.5t222 119.5q-76 43 -153.5 65.5t-155.5 31.5q-47 -14 -103.5 -44t-105.5 -63z" />
<glyph unicode="&#x62e;" horiz-adv-x="1114" d="M90 557q-6 8 -9 18.5t-3 18.5q0 23 15.5 55.5t47.5 69.5q41 51 90.5 75.5t83.5 24.5q45 0 103.5 -19.5t156.5 -66.5q53 -25 99.5 -41t94.5 -25.5t106.5 -13.5t136.5 -4l-51 -143q-166 -4 -312.5 -48t-257 -119t-175 -176.5t-64.5 -219.5q0 -156 128 -245t363 -89 q129 0 228.5 13t201.5 46l-8 -43q-4 -18 -46 -49t-113.5 -61.5t-165 -53t-197.5 -22.5q-231 0 -366.5 107.5t-135.5 316.5q0 131 44 238.5t121 193.5t180 152.5t222 119.5q-76 43 -153.5 65.5t-155.5 31.5q-47 -14 -103.5 -44t-105.5 -63zM319 909q-33 14 -72.5 45t-64.5 66 l100 122q25 -33 66 -63.5t70 -46.5z" />
<glyph unicode="&#x62f;" horiz-adv-x="884" d="M354 840q131 -113 211 -194t124 -144.5t58.5 -115.5t14.5 -107q0 -47 -17.5 -97.5t-42.5 -85.5q-43 -57 -128 -83.5t-207 -26.5q-109 0 -176.5 48t-67.5 144q0 49 15.5 88t31.5 49l33 23q-4 -18 -7 -37.5t-3 -48.5q0 -53 46 -79t148 -26q111 0 183.5 10.5t113.5 30.5 q-4 41 -17.5 81t-51 92.5t-108.5 123t-190 172.5z" />
<glyph unicode="&#x630;" horiz-adv-x="884" d="M354 840q131 -113 211 -194t124 -144.5t58.5 -115.5t14.5 -107q0 -47 -17.5 -97.5t-42.5 -85.5q-43 -57 -128 -83.5t-207 -26.5q-109 0 -176.5 48t-67.5 144q0 49 15.5 88t31.5 49l33 23q-4 -18 -7 -37.5t-3 -48.5q0 -53 46 -79t148 -26q111 0 183.5 10.5t113.5 30.5 q-4 41 -17.5 81t-51 92.5t-108.5 123t-190 172.5zM362 946q-33 14 -72.5 45t-64.5 66l100 122q25 -33 66 -63.5t70 -46.5z" />
<glyph unicode="&#x631;" horiz-adv-x="727" d="M459 526q98 -111 142 -215t44 -215q0 -72 -24.5 -146.5t-69.5 -145t-108.5 -132t-141.5 -102.5l-262 33l-29 41q111 31 204 78t166 103t120 116.5t65 119.5q-16 66 -65 142t-127 147z" />
<glyph unicode="&#x632;" horiz-adv-x="727" d="M459 526q98 -111 142 -215t44 -215q0 -72 -24.5 -146.5t-69.5 -145t-108.5 -132t-141.5 -102.5l-262 33l-29 41q111 31 204 78t166 103t120 116.5t65 119.5q-16 66 -65 142t-127 147zM452 696q-33 14 -72.5 45t-64.5 66l100 122q25 -33 66 -63.5t70 -46.5z" />
<glyph unicode="&#x633;" horiz-adv-x="1662" d="M178 258q-16 -37 -24.5 -96.5t-8.5 -118.5q0 -154 71 -230.5t233 -76.5q123 0 225 41t155 112q-10 119 -33.5 207t-58.5 148l97 133q39 -111 96 -168t104 -57q45 0 79 57t79 201l63 28l-14 -82q55 -98 131 -141t154 -45q-6 78 -37 151.5t-76 122.5l74 156 q27 -27 49.5 -63.5t38.5 -77.5t26.5 -82t10.5 -78q0 -33 -7.5 -80t-31.5 -96q-33 -66 -63.5 -90.5t-65.5 -24.5q-66 0 -137.5 47t-130.5 140q-41 -121 -78 -163t-76 -42q-68 0 -98 53q0 -88 -15.5 -156.5t-54.5 -130.5q-49 -78 -157.5 -134t-272.5 -56q-193 0 -283 100.5 t-90 274.5q0 53 8.5 102t21.5 89t29.5 67.5t30.5 38.5l37 22v-2z" />
<glyph unicode="&#x634;" horiz-adv-x="1685" d="M180 258q-16 -37 -24.5 -96.5t-8.5 -118.5q0 -154 71 -230.5t233 -76.5q123 0 225 41t155 112q-10 119 -33.5 207t-58.5 148l97 133q39 -111 96 -168t104 -57q45 0 79 57t79 201l63 28l-14 -82q55 -98 131 -141t154 -45q-6 78 -37 151.5t-76 122.5l74 156 q27 -27 49.5 -63.5t38.5 -77.5t26.5 -82t10.5 -78q0 -33 -7.5 -80t-31.5 -96q-33 -66 -63.5 -90.5t-65.5 -24.5q-66 0 -137.5 47t-130.5 140q-41 -121 -78 -163t-76 -42q-68 0 -98 53q0 -88 -15.5 -156.5t-54.5 -130.5q-49 -78 -157.5 -134t-272.5 -56q-193 0 -283 100.5 t-90 274.5q0 53 8.5 102t21.5 89t29.5 67.5t30.5 38.5l37 22v-2zM1080 792q-12 4 -33 17.5t-40.5 31t-34.5 34t-21 26.5l98 121q18 -29 56 -64t69 -51zM1209 581q-29 12 -63 37t-58 51l-70 -102q-33 14 -72.5 42t-64.5 62l94 125q20 -27 51 -55.5t60 -44.5l80 115 q27 -31 67.5 -60.5t69.5 -44.5z" />
<glyph unicode="&#x635;" horiz-adv-x="1851" d="M178 260q-16 -39 -24.5 -98.5t-8.5 -118.5q0 -154 71 -230.5t233 -76.5q123 0 225 41t155 112q-10 119 -33.5 207t-58.5 148l92 127q23 -59 60 -106.5t82 -80.5q51 86 120.5 168t145.5 146.5t154.5 103.5t150.5 39q47 0 90 -23.5t76 -63.5t52.5 -92t19.5 -112 q0 -35 -28 -91t-73 -114q-29 -35 -83 -63.5t-121.5 -50t-139 -33.5t-135.5 -12q-100 0 -166.5 14t-109.5 43q0 -92 -15.5 -158.5t-54.5 -128.5q-49 -78 -157.5 -134t-272.5 -56q-193 0 -283 100.5t-90 274.5q0 53 8.5 102t21.5 89t28.5 67.5t31.5 38.5zM1679 250 q-14 109 -65 169t-127 60q-45 0 -101.5 -27.5t-116 -71.5t-117.5 -101.5t-108 -118.5q23 -4 59 -8.5t75 -4.5q164 0 293.5 28t207.5 75z" />
<glyph unicode="&#x636;" horiz-adv-x="1851" d="M178 260q-16 -39 -24.5 -98.5t-8.5 -118.5q0 -154 71 -230.5t233 -76.5q123 0 225 41t155 112q-10 119 -33.5 207t-58.5 148l92 127q23 -59 60 -106.5t82 -80.5q51 86 120.5 168t145.5 146.5t154.5 103.5t150.5 39q47 0 90 -23.5t76 -63.5t52.5 -92t19.5 -112 q0 -35 -28 -91t-73 -114q-29 -35 -83 -63.5t-121.5 -50t-139 -33.5t-135.5 -12q-100 0 -166.5 14t-109.5 43q0 -92 -15.5 -158.5t-54.5 -128.5q-49 -78 -157.5 -134t-272.5 -56q-193 0 -283 100.5t-90 274.5q0 53 8.5 102t21.5 89t28.5 67.5t31.5 38.5zM1679 250 q-14 109 -65 169t-127 60q-45 0 -101.5 -27.5t-116 -71.5t-117.5 -101.5t-108 -118.5q23 -4 59 -8.5t75 -4.5q164 0 293.5 28t207.5 75zM1173 801q-33 14 -72.5 45t-64.5 66l100 122q25 -33 66 -63.5t70 -46.5z" />
<glyph unicode="&#x637;" horiz-adv-x="1175" d="M397 1272q6 -29 19.5 -63.5t32 -67.5t40 -60.5t41.5 -46.5l-104 -65q0 -88 3 -191.5t3 -179.5q0 -33 -2 -74t-5 -83t-8 -77.5t-11 -60.5h8q49 72 103 133.5t111.5 107.5t118 71.5t119.5 25.5q47 0 90 -23.5t76 -63.5t52.5 -92t19.5 -112q0 -35 -26.5 -91t-73.5 -114 q-29 -37 -77 -66.5t-106.5 -50t-126 -31.5t-137.5 -11q-68 0 -138.5 8t-136 21.5t-124 30.5t-103.5 38l-39 125q74 -14 138.5 -23.5t140.5 -15.5l18 29q4 23 6.5 55.5t4.5 67t2 68.5v59q0 119 -3.5 207.5t-13.5 164.5q-10 78 -15 140.5t-9 136.5q-10 27 -15 71zM369 160 q23 -4 58.5 -8.5t74.5 -4.5q164 0 294 28t208 75q-14 109 -65.5 169t-127.5 60q-45 0 -101.5 -27.5t-115.5 -71.5t-117.5 -101.5t-107.5 -118.5z" />
<glyph unicode="&#x638;" horiz-adv-x="1175" d="M397 1272q6 -29 19.5 -63.5t32 -67.5t40 -60.5t41.5 -46.5l-104 -65q0 -88 3 -191.5t3 -179.5q0 -33 -2 -74t-5 -83t-8 -77.5t-11 -60.5h8q49 72 103 133.5t111.5 107.5t118 71.5t119.5 25.5q47 0 90 -23.5t76 -63.5t52.5 -92t19.5 -112q0 -35 -26.5 -91t-73.5 -114 q-29 -37 -77 -66.5t-106.5 -50t-126 -31.5t-137.5 -11q-68 0 -138.5 8t-136 21.5t-124 30.5t-103.5 38l-39 125q74 -14 138.5 -23.5t140.5 -15.5l18 29q4 23 6.5 55.5t4.5 67t2 68.5v59q0 119 -3.5 207.5t-13.5 164.5q-10 78 -15 140.5t-9 136.5q-10 27 -15 71zM369 160 q23 -4 58.5 -8.5t74.5 -4.5q164 0 294 28t208 75q-14 109 -65.5 169t-127.5 60q-45 0 -101.5 -27.5t-115.5 -71.5t-117.5 -101.5t-107.5 -118.5zM821 801q-33 14 -72.5 45t-64.5 66l100 122q25 -33 66 -63.5t70 -46.5z" />
<glyph unicode="&#x639;" horiz-adv-x="1103" d="M659 768q-43 35 -77.5 48t-89.5 13q-33 0 -71 -8t-74 -22.5t-68.5 -31.5t-57.5 -38q29 -78 104.5 -132t204.5 -77q33 18 78 40t93.5 40t95.5 33.5t84 23.5l-39 -184q-127 -31 -246 -81t-211 -116.5t-147.5 -150.5t-55.5 -182q0 -156 128 -245t364 -89q129 0 240.5 15.5 t189.5 43.5l-8 -43q-4 -18 -46 -49t-114 -61.5t-165 -53t-198 -22.5q-111 0 -204 26.5t-158.5 80t-102 132t-36.5 185.5q0 143 78.5 284.5t226.5 260.5q-111 29 -172.5 92t-61.5 147q0 53 26 112.5t70 110t101 83t121 32.5q66 0 116 -43t115 -145z" />
<glyph unicode="&#x63a;" horiz-adv-x="1103" d="M659 768q-43 35 -77.5 48t-89.5 13q-33 0 -71 -8t-74 -22.5t-68.5 -31.5t-57.5 -38q29 -78 104.5 -132t204.5 -77q33 18 78 40t93.5 40t95.5 33.5t84 23.5l-39 -184q-127 -31 -246 -81t-211 -116.5t-147.5 -150.5t-55.5 -182q0 -156 128 -245t364 -89q129 0 240.5 15.5 t189.5 43.5l-8 -43q-4 -18 -46 -49t-114 -61.5t-165 -53t-198 -22.5q-111 0 -204 26.5t-158.5 80t-102 132t-36.5 185.5q0 143 78.5 284.5t226.5 260.5q-111 29 -172.5 92t-61.5 147q0 53 26 112.5t70 110t101 83t121 32.5q66 0 116 -43t115 -145zM413 1090q-33 14 -72.5 45 t-64.5 66l100 122q25 -33 66 -63.5t70 -46.5z" />
<glyph unicode="&#x640;" horiz-adv-x="223" d="M0 -14q-23 0 -42 21.5t-19 60.5t19 59t42 20h223q23 0 42.5 -20.5t19.5 -58.5q0 -39 -19.5 -60.5t-42.5 -21.5h-223z" />
<glyph unicode="&#x641;" horiz-adv-x="1595" d="M170 543q-4 -25 -8 -49.5t-4 -40.5q0 -86 26.5 -147.5t87 -99.5t155.5 -55.5t232 -17.5q102 0 212 10.5t213.5 28.5t195.5 45t164 62q-4 39 -8 72.5t-9 56.5q-29 -35 -74.5 -58.5t-90.5 -23.5q-47 0 -88 17t-72 49t-48.5 75t-17.5 94q0 47 17.5 96.5t47 89t67.5 65.5 t81 26q51 0 100.5 -34t88.5 -95.5t62.5 -145.5t23.5 -182q0 -92 -36 -152.5t-128 -115.5q-53 -33 -138 -60.5t-186.5 -47t-213 -31t-216.5 -11.5q-152 0 -253 20.5t-164.5 62.5t-90 107.5t-26.5 155.5q0 78 19.5 140.5t41.5 76.5zM1106 563q23 -47 67 -69.5t101 -22.5 q37 0 76 10.5t55 22.5q-14 86 -64.5 133t-101.5 47q-47 0 -82 -34t-51 -87zM1233 922q-33 14 -72.5 45t-64.5 66l100 122q25 -33 66 -63.5t70 -46.5z" />
<glyph unicode="&#x642;" horiz-adv-x="1150" d="M199 340q-16 -39 -24.5 -98.5t-8.5 -118.5q0 -72 18.5 -128t59.5 -96t105.5 -61.5t158.5 -21.5q74 0 144.5 11t134 32.5t114.5 51.5t86 64q0 57 -4 109.5t-12 87.5q-29 -35 -75 -58.5t-91 -23.5q-47 0 -88 17.5t-72 49t-48 74.5t-17 95q0 47 17 96t47 89t69 65.5t82 25.5 q51 0 99 -33.5t87 -95t62.5 -144.5t23.5 -182q0 -78 -6 -131t-19.5 -93t-37 -70.5t-58.5 -61.5q-76 -66 -199.5 -105.5t-281.5 -39.5q-201 0 -297 102t-96 272q0 53 8 103.5t21.5 90.5t28.5 66.5t32 36.5zM649 328q23 -47 67 -69.5t101 -22.5q37 0 76 10t55 22 q-14 86 -64 133.5t-102 47.5q-47 0 -82 -34t-51 -87zM889 705q-29 12 -62.5 36.5t-58.5 51.5l-70 -103q-33 14 -72.5 42t-64.5 63l94 125q20 -27 51 -55.5t60 -45.5l80 115q27 -31 67.5 -60.5t69.5 -44.5z" />
<glyph unicode="&#x643;" horiz-adv-x="1253" d="M172 475q-6 -23 -10 -54.5t-4 -66.5q0 -135 80.5 -196.5t248.5 -61.5q70 0 141.5 8.5t137 22.5t121 34.5t94.5 45.5q0 139 -10 278.5t-22.5 260t-23 213t-10.5 139.5q-4 16 -8 33.5t-6 37.5l127 103q6 -29 19.5 -63.5t32 -67.5t40 -60.5t41.5 -46.5l-104 -65 q4 -152 14 -318t10 -356q0 -29 -10 -61.5t-26.5 -66.5t-40 -64.5t-50.5 -55.5q-31 -25 -83 -47.5t-118.5 -38.5t-145.5 -25.5t-165 -9.5q-195 0 -282.5 81t-87.5 231q0 78 18.5 139t42.5 78zM344 393v8q100 14 159.5 24.5t91.5 18t41 10.5t9 7q0 6 -17.5 20.5t-72.5 48.5 q-29 18 -44 29.5t-22.5 21t-9.5 15.5t-2 14q0 23 15 58q35 78 108.5 126t151.5 48l-45 -103q-92 -14 -128 -37.5t-36 -42.5q0 -10 19.5 -21t66.5 -42q57 -37 76.5 -56.5t19.5 -41.5q0 -49 -40 -91t-126 -55l-113 -16z" />
<glyph unicode="&#x644;" horiz-adv-x="1015" d="M178 162q-10 -29 -15 -64t-5 -88q0 -115 57 -172t162 -57q117 0 221 24.5t176 77.5q2 193 -9 353.5t-24 314.5q-10 135 -20 267t-14 280q-4 16 -7.5 33.5l-7.5 37.5l129 103q6 -29 19.5 -63.5t32 -67.5t40 -61.5t41.5 -45.5l-104 -65q2 -86 6 -181.5t8 -197.5 q4 -104 7 -206.5t3 -199.5q0 -96 -2 -174t-14 -133q-12 -61 -60 -110.5t-117 -84t-149.5 -53t-158.5 -18.5q-147 0 -224 80t-77 231q0 78 22.5 140.5t44.5 76.5z" />
<glyph unicode="&#x645;" horiz-adv-x="937" d="M193 0q10 -72 27.5 -155t37.5 -183q16 -78 25.5 -147.5t9.5 -120.5q0 -49 -4 -80t-25 -66l-39 13q-4 43 -9 77.5t-14 79.5t-24.5 107.5t-40.5 159.5q-18 78 -31.5 137t-13.5 100q0 86 49 145.5t129 82.5q-10 29 -16 58.5t-6 63.5q0 43 16.5 88.5t45 82t64.5 59t77 22.5 q55 0 114.5 -28.5t115.5 -78.5t105.5 -119t79.5 -151l-71 -161q-29 8 -73 16t-94 14.5t-101.5 10.5t-96.5 4q-82 0 -142 -9.5t-95 -21.5zM334 160q33 6 71.5 11t83.5 5q25 0 62 -3t74 -7t69.5 -9t50.5 -10l3 5q-29 49 -67 90t-80 71.5t-85 47t-80 16.5q-53 0 -82.5 -42 t-29.5 -106q0 -32 10 -69z" />
<glyph unicode="&#x646;" horiz-adv-x="1015" d="M504 594q-33 14 -73 45t-64 66l100 122q25 -33 65.5 -63.5t69.5 -46.5zM199 260q-16 -39 -24.5 -98.5t-8.5 -118.5q0 -154 70.5 -230.5t232.5 -76.5q123 0 225.5 41t155.5 112q-10 119 -33.5 210t-64.5 165l102 158q41 -84 65.5 -182.5t24.5 -196.5q0 -92 -15.5 -158.5 t-54.5 -128.5q-49 -78 -157.5 -134t-272.5 -56q-193 0 -282.5 100.5t-89.5 274.5q0 53 8 102t21.5 89t28.5 67.5t32 38.5z" />
<glyph unicode="&#x647;" horiz-adv-x="692" d="M319 725q57 -25 111.5 -73t96.5 -106.5t68 -125t26 -127.5q0 -68 -23 -124t-61.5 -97t-93 -63.5t-117.5 -22.5q-117 0 -185.5 71.5t-68.5 184.5q0 94 53 194.5t158 177.5zM319 526q-78 -59 -110.5 -120.5t-32.5 -126.5q0 -66 46 -99t106 -33q68 0 121 24t83 65 q-23 86 -78 165.5t-135 124.5z" />
<glyph unicode="&#x648;" horiz-adv-x="737" d="M10 -356q119 33 214 83t166 108.5t115 121.5t60 123q-23 -23 -60.5 -41.5t-82.5 -18.5q-47 0 -88 17.5t-72 49.5t-48 75t-17 94q0 47 17 96t47 89t69 65.5t82 25.5q49 0 93 -29.5t77.5 -80.5t53 -120t19.5 -144q0 -94 -25.5 -182.5t-72.5 -164t-112.5 -138t-143.5 -103.5 l-262 33zM266 258q23 -47 67 -69.5t101 -22.5q37 0 76 10t55 23q-14 86 -64 133t-102 47q-47 0 -82 -34t-51 -87z" />
<glyph unicode="&#x649;" horiz-adv-x="1288" d="M207 254q-16 -39 -24.5 -82t-8.5 -106q0 -150 101.5 -232t275.5 -82q182 0 307 47t178 115q-10 12 -23.5 23.5t-35 27t-56 33.5t-85.5 45q-53 27 -87 47.5t-52.5 40t-25.5 39.5t-7 45q0 72 33.5 144.5t91 132t134 97.5t162.5 38q47 0 87 -12.5t69 -28.5l-76 -152 q-25 12 -56.5 21.5t-70.5 9.5q-94 0 -166.5 -49t-113.5 -133q8 -10 20.5 -19.5t34 -22t54 -29.5t81.5 -42q98 -49 137 -86t39 -72q0 -25 -7 -64.5t-23 -80.5q-57 -129 -208 -207t-376 -78q-215 0 -322.5 106.5t-107.5 303.5q0 90 27.5 153.5t60.5 83.5z" />
<glyph unicode="&#x64a;" horiz-adv-x="1288" d="M207 254q-16 -39 -24.5 -82t-8.5 -106q0 -150 101.5 -232t275.5 -82q182 0 307 47t178 115q-10 12 -23.5 23.5t-35 27t-56 33.5t-85.5 45q-53 27 -87 47.5t-52.5 40t-25.5 39.5t-7 45q0 72 33.5 144.5t91 132t134 97.5t162.5 38q47 0 87 -12.5t69 -28.5l-76 -152 q-25 12 -56.5 21.5t-70.5 9.5q-94 0 -166.5 -49t-113.5 -133q8 -10 20.5 -19.5t34 -22t54 -29.5t81.5 -42q98 -49 137 -86t39 -72q0 -25 -7 -64.5t-23 -80.5q-57 -129 -208 -207t-376 -78q-215 0 -322.5 106.5t-107.5 303.5q0 90 27.5 153.5t60.5 83.5zM678 -731 q-29 12 -63 37t-58 51l-70 -102q-33 14 -72.5 42t-64.5 62l94 125q20 -27 51 -55.5t60 -44.5l80 115q27 -31 67.5 -60.5t69.5 -44.5z" />
<glyph unicode="&#x64b;" horiz-adv-x="0" d="M0 1262q2 23 8 43t12 32q76 45 173.5 91.5t212.5 84.5l-29 -81q-88 -31 -186.5 -77t-190.5 -93zM12 1409q2 23 8.5 43.5t12.5 32.5q76 45 173 91t212 85l-29 -82q-88 -31 -186.5 -77t-190.5 -93z" />
<glyph unicode="&#x64c;" horiz-adv-x="0" d="M-68 1491q23 29 48.5 44t62.5 15t60.5 -24.5t23.5 -63.5q0 -23 -5 -36t-16 -29q84 8 134 37q-53 25 -76 69.5t-23 102.5q0 49 22.5 74.5t55.5 25.5q63 0 101 -45t38 -98q0 -25 -4 -42.5t-8 -33.5q16 -2 25.5 -2h34.5l-39 -78h-30.5t-27.5 4q-88 -84 -282 -102 q49 68 49 110q0 20 -10.5 33.5t-30.5 13.5q-23 0 -41.5 -16t-38.5 -39zM297 1493q8 10 10 22.5t2 24.5q0 29 -21.5 52.5t-51.5 23.5q-49 0 -50 -33q0 -23 30 -49.5t81 -40.5z" />
<glyph unicode="&#x64d;" horiz-adv-x="0" d="M0 -1061q2 23 8 43.5t12 32.5q76 45 173.5 91t212.5 85l-29 -82q-88 -31 -186.5 -77t-190.5 -93zM12 -913q2 23 8.5 43t12.5 32q76 45 173 91.5t212 84.5l-29 -81q-88 -31 -186.5 -77t-190.5 -93z" />
<glyph unicode="&#x64e;" horiz-adv-x="0" d="M0 1262q2 23 8 43t12 32q76 45 173.5 91.5t212.5 84.5l-29 -81q-88 -31 -186.5 -77t-190.5 -93z" />
<glyph unicode="&#x64f;" horiz-adv-x="0" d="M0 1337q133 41 201 82q-74 68 -74 152q0 47 26.5 79.5t63.5 32.5q31 0 55.5 -12t43 -30.5t28.5 -42t10 -48.5q0 -27 -5 -49t-25 -51q16 -4 33.5 -4h39.5l-37 -74q-35 0 -52 2t-40 10q-39 -33 -89 -58.5t-93 -25.5q-23 0 -41 13zM317 1538q-14 25 -40.5 40t-51.5 15 q-41 0 -41 -39q0 -29 24.5 -54t55.5 -36q37 31 53 74z" />
<glyph unicode="&#x650;" horiz-adv-x="0" d="M12 -913q2 23 8.5 43t12.5 32q76 45 173 91.5t212 84.5l-29 -81q-88 -31 -186.5 -77t-190.5 -93z" />
<glyph unicode="&#x651;" horiz-adv-x="0" d="M358 1616q4 -12 7.5 -30.5t3.5 -41.5q0 -74 -33 -113.5t-72 -39.5q-29 0 -47 16t-27 45q-23 -76 -48 -103.5t-50 -27.5q-29 0 -47 30.5t-18 78.5q0 29 5 57.5t15 52.5l37 29q-2 -10 -3 -22.5t-1 -22.5q0 -47 11 -67.5t28 -20.5q16 0 32.5 17t28.5 42q0 31 2 55.5t6 32.5 l33 27q0 -66 13.5 -94.5t33.5 -28.5q27 0 37 21.5t10 70.5q0 12 -1 27.5t-3 29.5z" />
<glyph unicode="&#x652;" horiz-adv-x="0" d="M207 1655q51 0 86 -46t35 -112q0 -72 -37 -121t-92 -49t-87 37t-32 104q0 82 39 134.5t88 52.5zM281 1470q-12 47 -37 73t-54 26t-46 -24.5t-17 -59.5q0 -33 19.5 -49.5t50.5 -16.5q25 0 49.5 14t34.5 37z" />
<glyph unicode="&#x653;" horiz-adv-x="0" d="M446 1620q25 -14 25 -47q0 -47 -58.5 -80t-160.5 -45q-119 -16 -180.5 -48t-81.5 -73q-20 8 -34.5 28.5t-14.5 43.5q0 53 57 83.5t186 45.5q125 14 180 33.5t82 58.5z" />
<glyph unicode="&#x654;" horiz-adv-x="0" d="M262 1546q-31 18 -63 19q-29 0 -59.5 -17.5t-43.5 -48.5q18 -23 53 -35t70 -12q37 0 76 14.5t82 38.5l-27 -102q-35 -10 -73.5 -24.5t-77.5 -32t-76 -38t-68 -40.5q-4 16 -4 24q0 37 29 61.5t57 32.5q-90 23 -90 87q0 78 48 128t118 50q55 0 96 -31z" />
<glyph unicode="&#x655;" horiz-adv-x="0" d="M262 -766q-31 18 -63 18q-29 0 -59.5 -17t-43.5 -48q18 -23 53 -35t70 -12q37 0 76 14.5t82 38.5l-27 -102q-35 -10 -73.5 -24.5t-77.5 -32t-76 -38t-68 -40.5q-4 16 -4 24q0 37 29 61.5t57 32.5q-90 23 -90 86q0 78 48 128t118 50q55 0 96 -30z" />
<glyph unicode="&#x656;" horiz-adv-x="0" d="M182 -1051q0 59 -5 106.5t-13 88.5q-12 59 -14 123l88 59q0 -41 2 -77.5t6 -73.5q2 -31 4 -71t2 -62q0 -23 -17.5 -53.5t-35.5 -45.5z" />
<glyph unicode="&#x660;" horiz-adv-x="643" d="M330 399q-29 41 -78 92.5t-98 86.5l159 157q27 -14 53.5 -35.5t50 -46t42 -50t30.5 -46.5z" />
<glyph unicode="&#x661;" horiz-adv-x="577" d="M182 1161h4q115 -195 176.5 -412t61.5 -425q0 -39 -1 -80t-3 -80t-5 -73t-5 -58l-91 -56h-4q4 49 5.5 101.5t3.5 138.5q4 188 -51.5 373.5t-180.5 398.5z" />
<glyph unicode="&#x662;" horiz-adv-x="815" d="M178 1161h6q27 -59 66 -104t84 -77t92 -48.5t88 -16.5q76 0 120 64.5t52 181.5l16 -8q18 -10 24.5 -49t6.5 -80q0 -47 -16.5 -94t-45 -85t-69.5 -61.5t-90 -23.5q-43 0 -88 11t-76 32l-2 -2q53 -117 85 -243t32 -234q0 -39 -1 -80t-3 -80t-5 -73t-5 -58l-91 -56h-4 q4 49 4 97.5t4 113.5q2 92 -10 182.5t-45 185.5t-85 201.5t-130 231.5z" />
<glyph unicode="&#x663;" horiz-adv-x="931" d="M184 1161q27 -59 62 -104t70.5 -77t70.5 -48.5t62 -16.5q45 0 75.5 45.5t30.5 161.5l49 19q14 -37 19.5 -72t11.5 -63.5t18.5 -46t42.5 -17.5q45 0 74 62.5t33 156.5l16 -8q18 -10 24.5 -49t6.5 -80q0 -47 -13.5 -87t-36 -70.5t-52 -48t-62.5 -17.5q-31 0 -51.5 12 t-34.5 31h-4q-16 -35 -42 -59.5t-69 -24.5q-72 0 -137 43l-2 -2q53 -117 85 -243t32 -234q0 -39 -1 -80t-3 -80t-5 -73t-5 -58l-91 -56h-4q4 49 6 100.5t2 110.5q0 92 -13 182.5t-44 185.5t-83 201.5t-130 231.5l86 172h6z" />
<glyph unicode="&#x664;" horiz-adv-x="808" d="M559 995q-92 -18 -185 -65t-147 -113q18 -25 56.5 -49.5t88.5 -46t107.5 -37.5t114.5 -25l4 -4l-39 -123q-35 -16 -74 -45.5t-77.5 -63.5t-70.5 -71t-50 -69q39 -53 125 -94.5t200 -41.5q66 0 119 19l37 -154q-33 -12 -68.5 -19t-76.5 -7q-49 0 -99.5 10t-96.5 28.5 t-86 45t-65 59.5q-23 33 -39 70t-16 84q0 57 50.5 134t142.5 148v6q-121 33 -196 88.5t-75 124.5q0 18 5.5 46t17.5 59t29.5 62.5t42.5 56.5q66 66 163 106.5t199 46.5z" />
<glyph unicode="&#x665;" horiz-adv-x="952" d="M829 520q0 -53 -14 -109.5t-47 -103.5q-115 -139 -307 -139q-92 0 -155.5 31.5t-102.5 83.5q-16 23 -32.5 69.5t-16.5 134.5q0 80 31.5 172.5t81.5 172t113.5 132t127.5 52.5q51 0 107.5 -44t103.5 -115t78.5 -160t31.5 -177zM741 451q-12 80 -39.5 148.5t-63.5 119.5 t-76 79.5t-77 28.5q-39 0 -78.5 -31.5t-74.5 -84t-61.5 -120t-37.5 -140.5q29 -41 97.5 -70t140.5 -29q100 0 167.5 30t102.5 69z" />
<glyph unicode="&#x666;" horiz-adv-x="845" d="M84 1161q27 -27 77 -41t130 -14q102 0 181 11t128 26l6 -4q-18 -106 -31.5 -211t-13.5 -234q0 -158 42 -296t130 -242l-71 -181h-7q-92 102 -140 255t-48 364q0 80 9 182.5t28 200.5l-4 4q-49 -14 -130 -26.5t-155 -12.5q-90 0 -132 35t-42 82q0 55 43 102z" />
<glyph unicode="&#x667;" horiz-adv-x="915" d="M844 981q-125 -154 -204 -378t-118 -544l-100 -79h-8q-16 330 -100.5 573.5t-252.5 427.5l70 180h4q66 -63 123 -158.5t100 -208t71 -235.5t38 -244h8q14 119 43 242t67 234.5t84 208t95 161.5h6z" />
<glyph unicode="&#x668;" horiz-adv-x="915" d="M780 -20h-6q-49 66 -95 162t-84 207.5t-66.5 234.5t-43.5 241h-8q-10 -121 -37.5 -243.5t-70.5 -235.5t-100.5 -208t-123.5 -158h-4l-69 180q168 184 252 427.5t100 573.5h8l100 -80q39 -319 118 -543.5t204 -377.5z" />
<glyph unicode="&#x669;" horiz-adv-x="790" d="M463 584q-10 -2 -20.5 -2h-20.5q-90 -2 -156.5 17t-109.5 56t-63.5 86.5t-20.5 106.5q0 61 18.5 117.5t51 99.5t73.5 69.5t88 26.5q45 0 90 -28.5t80 -88t56.5 -149.5t21.5 -213q0 -96 10 -170t31.5 -133.5t55.5 -111.5t81 -105l-49 -187h-6q-109 100 -161 246t-50 363z M461 737q-6 70 -25.5 122t-45 87t-55.5 52.5t-56 17.5q-25 0 -47.5 -15.5t-41 -42t-32 -59.5t-17.5 -65q27 -43 87.5 -70t158.5 -29h35t39 2z" />
<glyph unicode="&#x66a;" horiz-adv-x="999" d="M113 -25q86 190 180 368.5t185 330t171 270.5t139 195l148 35q-72 -90 -156 -215t-173 -276t-179 -320.5t-172 -348.5zM592 106q0 94 92 95q90 0 90 -95q0 -43 -21.5 -67.5t-68.5 -24.5q-49 0 -70.5 23.5t-21.5 68.5zM231 1030q0 92 95 92q90 0 90 -92q0 -43 -22.5 -67.5 t-67.5 -24.5q-95 0 -95 92z" />
<glyph unicode="&#x66b;" horiz-adv-x="425" d="M195 223q76 -27 120 -79t44 -113q0 -76 -43 -152t-154 -160l-43 43q61 68 81.5 117t25.5 82l-132 96l101 166v0z" />
<glyph unicode="&#x66c;" horiz-adv-x="425" d="M259 -53q-78 29 -121 81t-43 128q0 78 52 157.5t146 132.5l37 -34q-98 -106 -117 -213q20 -31 56.5 -53.5t81.5 -34.5z" />
<glyph unicode="&#x66d;" horiz-adv-x="1130" d="M858 29l-301 250l-295 -248l148 360l-330 203l393 -25l88 373l96 -379l385 31l-331 -211z" />
<glyph unicode="&#x66e;" horiz-adv-x="1595" d="M1427 733q18 -25 36 -63.5t31 -84.5t21.5 -95.5t8.5 -96.5q0 -70 -36 -139.5t-114 -122.5q-61 -41 -144 -72.5t-178.5 -53t-199.5 -32t-209 -10.5q-164 0 -273.5 21.5t-175 64.5t-94 108.5t-28.5 155.5q0 78 18.5 140.5t40.5 76.5l39 25q-4 -23 -8 -52.5t-4 -45.5 q0 -86 27.5 -147.5t91 -100.5t165 -57.5t248.5 -18.5q106 0 211 10.5t201 30t180 47t145 62.5q-12 76 -41.5 151.5t-64.5 122.5z" />
<glyph unicode="&#x670;" horiz-adv-x="0" d="M176 1288q0 59 -5 106.5t-13 88.5q-12 59 -15 123l88 59q0 -41 2.5 -78t6.5 -74q2 -31 4 -70.5t2 -62.5t-17.5 -53.5t-35.5 -44.5z" />
<glyph unicode="&#x671;" horiz-adv-x="409" d="M281 1178q0 -121 4 -247t8 -249q6 -117 10 -221.5t4 -190.5q0 -82 -3 -118.5t-11 -65.5q-8 -25 -22.5 -57.5t-30.5 -61.5h-41q0 219 -9.5 377t-21.5 291q-10 127 -17.5 239.5t-7.5 247.5l138 115v-59zM41 1260q-12 27 -13 51q0 35 20.5 57.5t55.5 28.5q25 86 74 132 t115 46q47 0 77.5 -34t30.5 -87q0 -57 -46 -95t-142 -38q-41 0 -68 -2t-46 -9t-32.5 -19.5t-25.5 -30.5zM145 1403q18 -4 39 -4h39q115 0 115 47q0 25 -19.5 38t-48.5 13q-35 0 -70 -24.5t-55 -69.5z" />
<glyph unicode="&#x67e;" horiz-adv-x="1595" d="M1427 733q18 -25 36 -63.5t31 -84.5t21.5 -95.5t8.5 -96.5q0 -70 -36 -139.5t-114 -122.5q-61 -41 -144 -72.5t-178.5 -53t-199.5 -32t-209 -10.5q-164 0 -273.5 21.5t-175 64.5t-94 108.5t-28.5 155.5q0 78 18.5 140.5t40.5 76.5l39 25q-4 -23 -8 -52.5t-4 -45.5 q0 -86 27.5 -147.5t91 -100.5t165 -57.5t248.5 -18.5q106 0 211 10.5t201 30t180 47t145 62.5q-12 76 -41.5 151.5t-64.5 122.5zM741 -602q-37 14 -73.5 41t-59.5 55l86 119q25 -31 63 -55.5t79 -38.5zM799 -385q-29 12 -63 37t-58 51l-70 -102q-33 14 -72.5 41.5 t-64.5 62.5l94 125q20 -27 51 -55.5t60 -44.5l80 114q27 -31 67.5 -60.5t69.5 -43.5z" />
<glyph unicode="&#x686;" horiz-adv-x="1114" d="M90 557q-6 8 -9 18.5t-3 18.5q0 23 15.5 55.5t47.5 69.5q41 51 90.5 75.5t83.5 24.5q45 0 103.5 -19.5t156.5 -66.5q53 -25 99.5 -41t94.5 -25.5t106.5 -13.5t136.5 -4l-51 -143q-166 -4 -312.5 -48t-257 -119t-175 -176.5t-64.5 -219.5q0 -156 128 -245t363 -89 q129 0 228.5 13t201.5 46l-8 -43q-4 -18 -46 -49t-113.5 -61.5t-165 -53t-197.5 -22.5q-231 0 -366.5 107.5t-135.5 316.5q0 131 44 238.5t121 193.5t180 152.5t222 119.5q-76 43 -153.5 65.5t-155.5 31.5q-47 -14 -103.5 -44t-105.5 -63zM708 -217q-37 14 -73.5 41 t-59.5 55l86 119q25 -31 63 -55.5t79 -38.5zM766 0q-29 12 -63 37t-58 51l-70 -102q-33 14 -72.5 41.5t-64.5 62.5l94 125q20 -27 51 -55.5t60 -44.5l80 114q27 -31 67.5 -60.5t69.5 -43.5z" />
<glyph unicode="&#x698;" horiz-adv-x="727" d="M459 526q98 -111 142 -215t44 -215q0 -72 -24.5 -146.5t-69.5 -145t-108.5 -132t-141.5 -102.5l-262 33l-29 41q111 31 204 78t166 103t120 116.5t65 119.5q-16 66 -65 142t-127 147zM424 911q-12 4 -33 17.5t-40.5 31t-34.5 34t-21 26.5l98 121q18 -29 56 -64t69 -51z M553 700q-29 12 -63 37t-58 51l-70 -102q-33 14 -72.5 42t-64.5 62l94 125q20 -27 51 -55.5t60 -44.5l80 115q27 -31 67.5 -60.5t69.5 -44.5z" />
<glyph unicode="&#x6a1;" horiz-adv-x="1595" d="M170 543q-4 -25 -8 -49.5t-4 -40.5q0 -86 26.5 -147.5t87 -99.5t155.5 -55.5t232 -17.5q102 0 212 10.5t213.5 28.5t195.5 45t164 62q-4 39 -8 72.5t-9 56.5q-29 -35 -74.5 -58.5t-90.5 -23.5q-47 0 -88 17t-72 49t-48.5 75t-17.5 94q0 47 17.5 96.5t47 89t67.5 65.5 t81 26q51 0 100.5 -34t88.5 -95.5t62.5 -145.5t23.5 -182q0 -92 -36 -152.5t-128 -115.5q-53 -33 -138 -60.5t-186.5 -47t-213 -31t-216.5 -11.5q-152 0 -253 20.5t-164.5 62.5t-90 107.5t-26.5 155.5q0 78 19.5 140.5t41.5 76.5zM1106 563q23 -47 67 -69.5t101 -22.5 q37 0 76 10.5t55 22.5q-14 86 -64.5 133t-101.5 47q-47 0 -82 -34t-51 -87z" />
<glyph unicode="&#x6a4;" horiz-adv-x="1595" d="M170 543q-4 -25 -8 -49.5t-4 -40.5q0 -86 26.5 -147.5t87 -99.5t155.5 -55.5t232 -17.5q102 0 212 10.5t213.5 28.5t195.5 45t164 62q-4 39 -8 72.5t-9 56.5q-29 -35 -74.5 -58.5t-90.5 -23.5q-47 0 -88 17t-72 49t-48.5 75t-17.5 94q0 47 17.5 96.5t47 89t67.5 65.5 t81 26q51 0 100.5 -34t88.5 -95.5t62.5 -145.5t23.5 -182q0 -92 -36 -152.5t-128 -115.5q-53 -33 -138 -60.5t-186.5 -47t-213 -31t-216.5 -11.5q-152 0 -253 20.5t-164.5 62.5t-90 107.5t-26.5 155.5q0 78 19.5 140.5t41.5 76.5zM1106 563q23 -47 67 -69.5t101 -22.5 q37 0 76 10.5t55 22.5q-14 86 -64.5 133t-101.5 47q-47 0 -82 -34t-51 -87zM1194 1212q-12 4 -33 17.5t-40.5 31t-34.5 34t-21 26.5l98 121q18 -29 56 -64t69 -51zM1323 1001q-29 12 -63 37t-58 51l-70 -102q-33 14 -72.5 42t-64.5 62l94 125q20 -27 51 -55.5t60 -44.5 l80 115q27 -31 67.5 -60.5t69.5 -44.5z" />
<glyph unicode="&#x6a9;" horiz-adv-x="1634" d="M195 547q-8 -23 -11.5 -51.5t-3.5 -53.5q0 -80 18.5 -137t64.5 -96t122 -57.5t190 -18.5q242 0 389.5 25.5t209.5 60.5q-4 27 -32 86.5t-77 135t-120 163.5t-157 174q0 76 40 133.5t133 81.5l616 168l-82 -151l-590 -164q195 -197 276 -342.5t81 -227.5q0 -25 -8.5 -51 t-21.5 -53t-30.5 -48.5t-38.5 -35.5q-37 -25 -100.5 -48.5t-144 -39.5t-175 -26.5t-192.5 -10.5q-127 0 -215 22.5t-141.5 66.5t-77 108.5t-23.5 148.5q0 39 5 75t14.5 65.5t19.5 50t23 26.5l39 21v0z" />
<glyph unicode="&#x6af;" horiz-adv-x="1634" d="M195 547q-8 -23 -11.5 -51.5t-3.5 -53.5q0 -80 18.5 -137t64.5 -96t122 -57.5t190 -18.5q242 0 389.5 25.5t209.5 60.5q-4 27 -32 86.5t-77 135t-120 163.5t-157 174q0 76 40 133.5t133 81.5l616 168l-82 -151l-590 -164q195 -197 276 -342.5t81 -227.5q0 -25 -8.5 -51 t-21.5 -53t-30.5 -48.5t-38.5 -35.5q-37 -25 -100.5 -48.5t-144 -39.5t-175 -26.5t-192.5 -10.5q-127 0 -215 22.5t-141.5 66.5t-77 108.5t-23.5 148.5q0 39 5 75t14.5 65.5t19.5 50t23 26.5l39 21v0zM932 1200l690 197h13l-52 -107l-686 -192h-10z" />
<glyph unicode="&#x6c0;" horiz-adv-x="692" d="M319 725q57 -25 111.5 -73t96.5 -106.5t68 -125t26 -127.5q0 -68 -23 -124t-61.5 -97t-93 -63.5t-117.5 -22.5q-117 0 -185.5 71.5t-68.5 184.5q0 94 53 194.5t158 177.5zM319 526q-78 -59 -110.5 -120.5t-32.5 -126.5q0 -66 46 -99t106 -33q68 0 121 24t83 65 q-23 86 -78 165.5t-135 124.5zM397 1046q-31 18 -63 19q-29 0 -59.5 -17.5t-43.5 -48.5q18 -23 53 -35t70 -12q37 0 76 14.5t82 38.5l-27 -102q-35 -10 -73.5 -24.5t-77.5 -32t-76 -38t-68 -40.5q-4 16 -4 24q0 37 29 61.5t57 32.5q-90 23 -90 87q0 78 48 128t118 50 q55 0 96 -31z" />
<glyph unicode="&#x6cc;" horiz-adv-x="1302" d="M207 254q-16 -39 -24.5 -82t-8.5 -106q0 -76 21.5 -134.5t70.5 -98.5t129 -60.5t195 -20.5q399 0 493 209q-6 6 -17 11t-36.5 13.5t-70 16.5t-113.5 21q-115 18 -155 59t-40 96q0 70 34 149t91.5 145.5t134 110.5t162.5 44q49 0 89 -13.5t69 -33.5l-76 -152 q-29 14 -63.5 25.5t-85.5 11.5q-53 0 -101.5 -20.5t-85.5 -55.5t-61.5 -79t-32.5 -89q10 -8 23.5 -14t38 -12.5t62.5 -14.5t97 -16q127 -20 174 -45t47 -76q0 -84 -41 -167t-119.5 -148.5t-194.5 -105.5t-263 -40q-244 0 -356.5 106.5t-112.5 303.5q0 90 27.5 153.5 t60.5 83.5l39 25v0z" />
<glyph unicode="&#x6f0;" horiz-adv-x="626" d="M324 399q-29 41 -78 92.5t-98 86.5l159 157q27 -14 53.5 -35.5t50 -46t42 -50t30.5 -46.5z" />
<glyph unicode="&#x6f1;" horiz-adv-x="577" d="M184 1161h4q115 -195 176.5 -412t61.5 -425q0 -39 -1 -80t-3 -80t-5 -73t-5 -58l-91 -56h-4q4 49 5.5 101.5t3.5 138.5q4 188 -51.5 373.5t-180.5 398.5z" />
<glyph unicode="&#x6f2;" horiz-adv-x="802" d="M186 1161h6q27 -59 66 -104t84 -77t92 -48.5t88 -16.5q76 0 120 64.5t52 181.5l16 -8q18 -10 24.5 -49t6.5 -80q0 -47 -16.5 -94t-45 -85t-69.5 -61.5t-90 -23.5q-43 0 -88 11t-76 32l-2 -2q53 -117 85 -243t32 -234q0 -39 -1 -80t-3 -80t-5 -73t-5 -58l-91 -56h-4 q4 49 4 97.5t4 113.5q2 92 -10 182.5t-45 185.5t-85 201.5t-130 231.5z" />
<glyph unicode="&#x6f3;" d="M194 1161q27 -59 62 -104t70.5 -77t70.5 -48.5t62 -16.5q45 0 75.5 45.5t30.5 161.5l49 19q14 -37 19.5 -72t11.5 -63.5t18.5 -46t42.5 -17.5q45 0 74 62.5t33 156.5l16 -8q18 -10 24.5 -49t6.5 -80q0 -47 -13.5 -87t-36 -70.5t-52 -48t-62.5 -17.5q-31 0 -51.5 12 t-34.5 31h-4q-16 -35 -42 -59.5t-69 -24.5q-72 0 -137 43l-2 -2q53 -117 85 -243t32 -234q0 -39 -1 -80t-3 -80t-5 -73t-5 -58l-91 -56h-4q4 49 6 100.5t2 110.5q0 92 -13 182.5t-44 185.5t-83 201.5t-130 231.5l86 172h6z" />
<glyph unicode="&#x6f4;" horiz-adv-x="864" d="M182 1161h2q39 -55 65.5 -112.5t55.5 -133.5h4q33 121 91.5 183.5t123.5 62.5q53 0 98.5 -47t79.5 -133l-16 -23q-25 23 -59.5 36.5t-75.5 13.5q-35 0 -66.5 -15.5t-59.5 -42t-49.5 -61.5t-33.5 -74q29 -25 81 -42t112 -17q74 0 133 25.5t100 66.5l4 -2l-29 -158 q-35 -35 -78.5 -51t-91.5 -16q-57 0 -109 19t-83 48l-4 -2q18 -84 32.5 -168t14.5 -194q0 -39 -1 -80t-3 -80t-5 -73t-5 -58l-91 -56h-4q4 49 6.5 101.5t2.5 138.5q0 190 -53.5 374.5t-178.5 397.5z" />
<glyph unicode="&#x6f5;" horiz-adv-x="991" d="M463 1161h8q102 -90 180 -193.5t131.5 -210t80 -210t26.5 -191.5q0 -72 -19.5 -132t-51.5 -103t-71.5 -67.5t-80.5 -24.5q-47 0 -91.5 31.5t-68.5 82.5h-2q-49 -115 -139 -114q-45 0 -87 22.5t-74 63.5t-51.5 97t-19.5 124q0 143 74 303t233 367zM492 942 q-76 -111 -127.5 -193.5t-83 -150.5t-45 -123t-13.5 -108q0 -88 41 -133.5t98 -45.5q37 0 62 21.5t47 66.5q0 37 1 73t5 57l53 30h5q8 -76 21 -124t31.5 -75.5t41 -38t51.5 -10.5q51 0 85 48.5t34 125.5q0 121 -70.5 267.5t-236.5 312.5z" />
<glyph unicode="&#x6f6;" horiz-adv-x="870" d="M113 -18q45 176 112.5 324.5t153.5 258.5v4q-100 31 -164.5 103.5t-64.5 165.5q0 49 23.5 105t62 105.5t90 81t106.5 31.5q66 0 125 -52t102 -140l-32 -25q-35 27 -82 46.5t-101 19.5q-29 0 -60.5 -9.5t-61 -26t-54 -36.5t-39.5 -41q27 -90 90.5 -142.5t176.5 -70.5 q25 20 58.5 44t71.5 46.5t75.5 42t70.5 31.5l6 -6l-41 -162q-94 -51 -169.5 -107.5t-140.5 -132t-123 -177t-118 -238.5l-69 -43h-4v0z" />
<glyph unicode="&#x6f7;" horiz-adv-x="917" d="M848 981q-125 -154 -204 -378t-118 -544l-100 -79h-8q-16 330 -100.5 573.5t-252.5 427.5l70 180h4q66 -63 123 -158.5t100 -208t71 -235.5t38 -244h8q14 119 43 242t67 234.5t84 208t95 161.5h6z" />
<glyph unicode="&#x6f8;" horiz-adv-x="917" d="M776 -20h-6q-49 66 -95 162t-84 207.5t-66.5 234.5t-43.5 241h-8q-10 -121 -37.5 -243.5t-70.5 -235.5t-100.5 -208t-123.5 -158h-4l-69 180q168 184 252 427.5t100 573.5h8l100 -80q39 -319 118 -543.5t204 -377.5z" />
<glyph unicode="&#x6f9;" horiz-adv-x="790" d="M461 584q-10 -2 -20.5 -2h-20.5q-90 -2 -156.5 17t-109.5 56t-63.5 86.5t-20.5 106.5q0 61 18.5 117.5t51 99.5t73.5 69.5t88 26.5q45 0 90 -28.5t80 -88t56.5 -149.5t21.5 -213q0 -96 10 -170t31.5 -133.5t55.5 -111.5t81 -105l-49 -187h-6q-109 100 -161 246t-50 363z M459 737q-6 70 -25.5 122t-45 87t-55.5 52.5t-56 17.5q-25 0 -47.5 -15.5t-41 -42t-32 -59.5t-17.5 -65q27 -43 87.5 -70t158.5 -29h35t39 2z" />
<glyph unicode="&#x2000;" horiz-adv-x="1034" />
<glyph unicode="&#x2001;" horiz-adv-x="2068" />
<glyph unicode="&#x2002;" horiz-adv-x="1034" />
<glyph unicode="&#x2003;" horiz-adv-x="2068" />
<glyph unicode="&#x2004;" horiz-adv-x="689" />
<glyph unicode="&#x2005;" horiz-adv-x="517" />
<glyph unicode="&#x2006;" horiz-adv-x="344" />
<glyph unicode="&#x2007;" horiz-adv-x="344" />
<glyph unicode="&#x2008;" horiz-adv-x="258" />
<glyph unicode="&#x2009;" horiz-adv-x="413" />
<glyph unicode="&#x200a;" horiz-adv-x="114" />
<glyph unicode="&#x200c;" horiz-adv-x="0" />
<glyph unicode="&#x200d;" horiz-adv-x="0" />
<glyph unicode="&#x200e;" horiz-adv-x="0" />
<glyph unicode="&#x200f;" horiz-adv-x="0" />
<glyph unicode="&#x2010;" horiz-adv-x="645" d="M580 449q0 -49 -37 -69t-99 -20h-370v41q0 49 38 71t91 22h377v-45z" />
<glyph unicode="&#x2011;" horiz-adv-x="645" d="M580 449q0 -49 -37 -69t-99 -20h-370v41q0 49 38 71t91 22h377v-45z" />
<glyph unicode="&#x2012;" horiz-adv-x="645" d="M580 449q0 -49 -37 -69t-99 -20h-370v41q0 49 38 71t91 22h377v-45z" />
<glyph unicode="&#x2013;" horiz-adv-x="1024" d="M14 502h996v-113h-996v113z" />
<glyph unicode="&#x2014;" horiz-adv-x="2048" d="M41 502h1966v-113h-1966v113z" />
<glyph unicode="&#x2018;" horiz-adv-x="409" d="M135 748q-29 45 -42 81.5t-13 67.5q0 70 47 139.5t162 155.5l41 -45q-96 -131 -109 -234l47 -96z" />
<glyph unicode="&#x2019;" horiz-adv-x="391" d="M246 1188q35 -37 50 -79t15 -83q0 -66 -43 -135.5t-141 -157.5l-47 41q86 139 92 242l-53 94z" />
<glyph unicode="&#x201a;" horiz-adv-x="391" d="M246 176q35 -37 50 -79t15 -83q0 -66 -43 -135t-141 -158l-47 41q86 139 92 242l-53 94z" />
<glyph unicode="&#x201c;" horiz-adv-x="698" d="M424 748q-29 45 -42 81.5t-13 67.5q0 70 47 139.5t162 155.5l41 -45q-96 -131 -109 -234l47 -96zM135 748q-29 45 -42 81.5t-13 67.5q0 70 47 139.5t162 155.5l41 -45q-96 -131 -109 -234l47 -96z" />
<glyph unicode="&#x201d;" horiz-adv-x="675" d="M531 1188q35 -37 50 -79t15 -83q0 -66 -43 -135.5t-141 -157.5l-47 41q86 139 92 242l-53 94zM246 1188q35 -37 50 -79t15 -83q0 -66 -43 -135.5t-141 -157.5l-47 41q86 139 92 242l-53 94z" />
<glyph unicode="&#x201e;" horiz-adv-x="686" d="M541 176q35 -37 50 -79t15 -83q0 -66 -43 -135t-141 -158l-47 41q86 139 92 242l-53 94zM246 176q35 -37 50 -79t15 -83q0 -66 -43 -135t-141 -158l-47 41q86 139 92 242l-53 94z" />
<glyph unicode="&#x2020;" horiz-adv-x="796" d="M418 770l295 47q12 -12 22 -33.5t10 -42.5q0 -29 -15 -48t-50 -19q-41 0 -113.5 15.5t-148.5 43.5l55 -194l-59 -709h-41l-49 711l57 196l-295 -47q-12 12 -23.5 33.5t-11.5 42.5q0 31 15.5 50.5t50.5 19.5q41 0 113.5 -16.5t150.5 -45.5l-72 336q31 31 76 31 q37 0 61.5 -21.5t30.5 -60.5z" />
<glyph unicode="&#x2021;" horiz-adv-x="796" d="M381 737l-295 -47q-12 12 -23.5 33.5t-11.5 42.5q0 31 15.5 50.5t50.5 19.5q41 0 113.5 -16.5t150.5 -45.5l-72 336q31 31 76 31q37 0 61.5 -21.5t30.5 -60.5l-59 -289l295 47q12 -12 22 -33.5t10 -42.5q0 -29 -15 -48t-50 -19q-41 0 -113.5 15.5t-148.5 43.5l55 -250 l-55 -252l295 50q12 -14 22 -36t10 -42q0 -29 -15 -49.5t-50 -20.5q-39 0 -112.5 17.5t-149.5 46.5l69 -338q-16 -16 -35.5 -22.5t-37.5 -6.5q-78 0 -95 82l62 287l-295 -47q-12 14 -22.5 35.5t-10.5 39.5q0 29 15.5 49.5t50.5 20.5q39 0 111.5 -16.5t148.5 -42.5l-55 247z " />
<glyph unicode="&#x2022;" horiz-adv-x="710" d="M160 440q0 49 18.5 92t50 76t74.5 51.5t92 18.5t92 -18.5t76 -51.5t51.5 -76t18.5 -92t-18.5 -92t-51.5 -74.5t-76 -50t-92 -18.5t-92 18.5t-74.5 50t-50 74.5t-18.5 92z" />
<glyph unicode="&#x2026;" horiz-adv-x="1638" d="M145 100q0 113 113 113q53 0 81.5 -29.5t28.5 -83.5q0 -53 -27.5 -81.5t-82.5 -28.5q-113 -1 -113 110zM706 100q0 113 113 113q53 0 81.5 -29.5t28.5 -83.5q0 -53 -27.5 -81.5t-82.5 -28.5q-113 -1 -113 110zM1268 100q0 113 113 113q53 0 81.5 -29.5t28.5 -83.5 q0 -53 -27.5 -81.5t-82.5 -28.5q-113 -1 -113 110z" />
<glyph unicode="&#x202a;" horiz-adv-x="0" />
<glyph unicode="&#x202b;" horiz-adv-x="0" />
<glyph unicode="&#x202c;" horiz-adv-x="0" />
<glyph unicode="&#x202d;" horiz-adv-x="0" />
<glyph unicode="&#x202e;" horiz-adv-x="0" />
<glyph unicode="&#x202f;" horiz-adv-x="413" />
<glyph unicode="&#x2030;" horiz-adv-x="1939" d="M1573 -14q-102 0 -168 59t-66 199q0 139 65.5 198.5t168.5 59.5q51 0 94 -14.5t74 -45t48 -80t17 -118.5q0 -70 -17 -119t-48 -80t-74 -45t-94 -14zM1573 43q102 0 102 201q0 104 -24.5 151t-77.5 47t-76.5 -47t-23.5 -151q0 -201 100 -201zM1014 -14q-102 0 -168 59 t-66 199q0 139 65.5 198.5t168.5 59.5q51 0 94 -14.5t73.5 -45t48 -80t17.5 -118.5q0 -70 -17.5 -119t-48 -80t-73.5 -45t-94 -14zM1014 43q102 0 102 201q0 104 -24.5 151t-77.5 47t-77 -47t-24 -151q1 -201 101 -201zM1049 973l73 -62l-780 -952l-74 61zM367 428 q-104 0 -169 59.5t-65 198.5t65.5 197.5t168.5 58.5q51 0 94 -13.5t73.5 -44t48 -79.5t17.5 -119q0 -139 -66.5 -198.5t-166.5 -59.5zM367 485q100 0 100 201q0 104 -23.5 151.5t-76.5 47.5t-77 -47t-24 -152q1 -201 101 -201z" />
<glyph unicode="&#x2039;" horiz-adv-x="585" d="M143 451l295 290l4 -59l-129 -236l-98 -51l98 -51l129 -235l-4 -58l-295 291v109z" />
<glyph unicode="&#x203a;" horiz-adv-x="585" d="M442 342l-292 -291l-7 58l129 235l99 51l-99 51l-129 236l7 59l292 -290v-109z" />
<glyph unicode="&#x205f;" horiz-adv-x="517" />
<glyph unicode="&#x20ac;" d="M793 743h-7q-47 47 -102 70t-109 23q-31 0 -61.5 -4.5t-56.5 -14.5q-35 -33 -65 -95.5t-38 -127.5h414l-31 -92h-395q-2 -16 -3 -44t1 -50h367l-25 -95h-340q10 -109 76.5 -167t165.5 -58q76 0 138 29.5t105 75.5h2l45 -60v-2q-57 -66 -132.5 -105.5t-172.5 -39.5 q-160 0 -255 86t-124 241h-118l22 95h88q0 23 1 50t3 44h-137l31 92h131q53 184 158.5 266t267.5 82q76 0 141.5 -25.5t108.5 -66.5v-4z" />
<glyph unicode="&#x2122;" horiz-adv-x="1169" d="M512 637q35 4 46 16.5t15 36.5l27 293l-63 12l6 39h143l133 -295l133 295h140l-7 -39q-25 -4 -40 -14t-11 -31l37 -301l68 -12l-6 -39h-224l6 39q23 4 37.5 15.5t10.5 39.5l-19 139q-4 25 -4 40.5v29.5h-4q-4 -16 -8 -31.5t-15 -38.5l-96 -215h-49l-96 207q-20 45 -25 78 h-4q0 -10 -1 -29.5t-3 -37.5l-16 -185l57 -12l-6 -39h-170zM166 637q23 4 42 11t19 26v319l-100 -14l-10 -76h-54l-18 131h471l-18 -131h-52l-10 76l-102 14v-344l84 -12l-6 -39h-252z" />
<glyph unicode="&#x25cc;" horiz-adv-x="1067" d="M289 729q0 27 16.5 44.5t42.5 17.5q27 0 44.5 -17.5t17.5 -44.5t-17.5 -43t-44.5 -16t-43 16t-16 43zM150 594q0 27 16 44t43 17t44 -17t17 -44t-17 -43t-44 -16t-43 16t-16 43zM104 410q0 27 16.5 44t43.5 17t44 -17.5t17 -43.5q0 -27 -17.5 -43.5t-43.5 -16.5 q-27 0 -43.5 16.5t-16.5 43.5zM150 225q0 27 16 44.5t43 17.5t44 -17.5t17 -44.5t-17 -43t-44 -16t-43 16t-16 43zM289 86q0 27 16.5 44t42.5 17q27 0 44.5 -17t17.5 -44t-17.5 -43t-44.5 -16t-43 16t-16 43zM473 43q0 27 16.5 44t42.5 17q27 0 44.5 -17t17.5 -44t-17.5 -43 t-44.5 -16t-43 16t-16 43zM657 86q0 27 16.5 44t43.5 17t44 -17t17 -44t-17.5 -43t-43.5 -16q-27 0 -43.5 16t-16.5 43zM795 225q0 27 16 44.5t43 17.5t44 -17.5t17 -44.5t-17 -43t-44 -16t-43 16t-16 43zM842 410q0 27 16 44t43 17t44.5 -17.5t17.5 -43.5 q0 -27 -17.5 -43.5t-44.5 -16.5t-43 16.5t-16 43.5zM795 594q0 27 16 44t43 17t44 -17t17 -44t-17 -43t-44 -16t-43 16t-16 43zM657 729q0 27 16.5 44.5t43.5 17.5t44 -17.5t17 -44.5t-17.5 -43t-43.5 -16q-27 0 -43.5 16t-16.5 43zM473 774q0 27 16.5 44.5t42.5 17.5 q27 0 44.5 -17.5t17.5 -44.5t-17.5 -43t-44.5 -16t-43 16t-16 43z" />
<glyph unicode="&#x274a;" horiz-adv-x="845" d="M436 702q6 18 6 43q0 35 -22 80q-10 23 -19.5 43.5t-9.5 44.5q0 37 25.5 67t70.5 40l13 -12q-20 -29 -21 -70q0 -25 4 -44.5t11 -37.5q6 -18 10 -35.5t4 -40.5q0 -53 -57 -90zM455 676q41 6 65.5 34.5t46.5 63.5q16 25 39 42.5t60 17.5q47 0 90 -43l-6 -17h-11 q-29 0 -54.5 -14.5t-66.5 -54.5q-37 -37 -59 -50.5t-49 -13.5q-33 0 -59 16zM442 647q20 -23 45 -33t74 -14q33 -2 50.5 -5t33.5 -13q51 -33 51 -97q0 -20 -6 -41l-16 -4q-8 16 -17.5 27.5t-25 21t-39 17.5t-57.5 18q-57 16 -83 41t-28 76zM410 643q-6 -16 -7 -41 q0 -18 4.5 -34.5t18.5 -47.5q14 -27 21.5 -46t7.5 -40q0 -37 -26 -66.5t-71 -39.5l-12 12q12 16 16.5 32.5t4.5 37.5q0 39 -15 82q-12 37 -12 73q0 57 55 92zM389 670q-29 -4 -49.5 -20.5t-48.5 -57.5q-31 -45 -53.5 -61.5t-57.5 -16.5q-51 0 -90 43l4 16h12q29 0 53.5 13.5 t69.5 58.5q37 37 60.5 49.5t46.5 12.5q29 0 57 -17zM403 700q-16 23 -41.5 33t-72.5 15q-35 4 -54.5 7t-33.5 11q-23 14 -37 38.5t-14 55.5q0 20 6 43l16 4q16 -35 46 -51t95 -35q57 -16 83 -40.5t26 -73.5z" />
<glyph unicode="&#xe000;" horiz-adv-x="788" d="M0 788h788v-788h-788v788z" />
<glyph unicode="&#xfd3e;" horiz-adv-x="757" d="M211 469q-16 -14 -31 -41q-10 25 -10 53q0 33 10 56q4 -18 10.5 -36t20.5 -32zM530 666q-12 31 -39.5 64.5t-89.5 84.5q-63 53 -88.5 97t-25.5 98q0 55 25.5 110.5t74.5 104.5t123 87t172 54l23 -12l-123 -131q-104 -29 -158.5 -89.5t-54.5 -123.5q0 -51 16 -85t64 -83 q33 -35 58 -74t25 -86q0 -10 -2 -16zM258 1147q-31 -16 -49.5 -48t-18.5 -71q0 -29 7.5 -54.5t26 -51t50 -54t82.5 -65.5q35 -27 69 -54.5t60.5 -60.5t43 -74t16.5 -92q0 -82 -56.5 -139t-138.5 -57t-125 49q6 4 13 12q8 12 24 25q33 -27 86 -27q61 0 95 37t34 106 q0 78 -47 142.5t-147 128.5q-106 66 -148.5 116t-42.5 99q0 47 37 91t100 60zM403 668q-18 10 -31.5 14t-35.5 4q-63 0 -64 -43q0 -25 27 -45l-12 -18q-88 33 -88 82q0 29 24.5 45t67.5 16q29 0 53 -8t59 -47zM451 492q-4 -33 -25 -60q-31 25 -78 25q-68 0 -113 -43 t-55 -109q-6 25 -6 45q0 66 53.5 115t130.5 49q25 0 49 -5t44 -17zM530 395q14 -39 15 -76q0 -53 -16.5 -93t-43 -73.5t-60.5 -60t-69 -51.5q-51 -37 -82.5 -66.5t-50 -55t-26 -51.5t-7.5 -54q0 -39 18.5 -70t49.5 -47l-29 -21q-63 18 -100 61.5t-37 90.5t42 99.5t149 117.5 q100 61 147 126t47 142q0 20 -2 29q10 6 26.5 21.5t28.5 31.5zM403 174q-35 -39 -59.5 -47t-50.5 -8q-94 0 -94 63q0 47 88 80l12 -16q-27 -20 -27 -47q0 -41 64 -41q23 0 36 3t31 13zM530 178q0 -4 1 -9t1 -9q-2 -41 -21 -77t-62 -83q-47 -47 -63.5 -82t-16.5 -86 q0 -63 54 -123.5t159 -89.5l123 -129l-23 -12q-98 16 -172 53t-123 86t-74.5 104.5t-25.5 110.5t25.5 98t88.5 97q61 51 89 84.5t40 66.5z" />
<glyph unicode="&#xfd3f;" horiz-adv-x="757" d="M547 375q16 16 28 41q10 -27 11 -54q0 -14 -2 -27t-9 -30q-4 20 -10 38t-18 32zM225 178q12 -31 40 -64.5t89 -84.5q63 -53 89 -97.5t26 -99.5q0 -53 -25.5 -109.5t-75 -104.5t-123 -86t-171.5 -54l-23 12l123 131q104 29 158.5 88.5t54.5 122.5q0 51 -17.5 86t-62.5 82 q-33 35 -58.5 74t-25.5 86q0 12 2 18zM498 -303q31 16 49 47t18 72q0 29 -7 54.5t-25.5 51t-50 54t-83.5 65.5q-35 25 -68.5 52.5t-60 60t-43 72.5t-16.5 93q0 41 15.5 77t42 62.5t61.5 42t76 15.5q84 0 124 -47q-6 -6 -12 -14q-4 -6 -11 -12.5t-13 -10.5q-33 27 -86 27 q-61 0 -95 -37t-34 -109q0 -78 47 -142.5t147 -125.5q106 -66 148.5 -116t42.5 -99q0 -47 -37 -91t-101 -63zM352 174q18 -10 32.5 -13t37.5 -3q61 0 61 41q0 27 -26 47l12 16q88 -31 88 -80q0 -29 -24.5 -45t-67.5 -16q-29 0 -53.5 8t-59.5 45zM305 352q4 33 25 60 q29 -27 78 -27q68 0 112.5 44t54.5 110q6 -25 7 -47q0 -31 -14.5 -61t-39 -53.5t-58.5 -36.5t-73 -13q-53 -1 -92 24zM225 449q-6 16 -10 34.5t-4 40.5q0 51 16.5 92t43 74t60.5 60.5t68 52.5q51 37 83 65.5t50.5 55t25.5 51t7 53.5q0 41 -18.5 71.5t-48.5 47.5l28 18 q63 -16 100.5 -59t37.5 -90t-42 -99.5t-149 -117.5q-100 -61 -147 -126t-47 -145q0 -18 2 -28q-10 -6 -27 -20.5t-29 -30.5zM352 670q35 39 59.5 47t53.5 8q43 0 67.5 -17.5t24.5 -45.5q0 -23 -21.5 -43.5t-66.5 -36.5l-12 16q27 20 26 47q0 41 -61 41q-23 0 -37.5 -3 t-32.5 -13zM225 666q0 4 -1 8t-1 8q2 41 21.5 77t62.5 83q47 49 63.5 82.5t16.5 85.5q0 63 -54 124.5t-159 88.5l-123 131l23 12q98 -16 171.5 -54t123 -87t75 -104.5t25.5 -110.5q0 -53 -25.5 -97.5t-89.5 -97.5q-61 -51 -89 -84.5t-40 -64.5z" />
<glyph horiz-adv-x="141" d="M0 -14q-23 0 -42 21.5t-19 60.5t19 59t42 20h141q23 0 42.5 -20.5t19.5 -58.5q0 -39 -19.5 -60.5t-42.5 -21.5h-141z" />
<glyph horiz-adv-x="325" d="M0 -14q-23 0 -42 21.5t-19 60.5t19 59t42 20h326q23 0 42 -20.5t19 -58.5q0 -39 -19.5 -60.5t-41.5 -21.5h-326z" />
<glyph horiz-adv-x="1366" d="M1225 944q6 -94 16 -180t27 -180l10 -66q8 -47 12 -93t4 -93q0 -61 -11 -124t-37.5 -112t-67.5 -79.5t-101 -30.5q-82 0 -145.5 46t-89.5 148q-43 -109 -88 -151.5t-113 -42.5h-6q-72 2 -117 47t-55 137q-51 -66 -88 -92.5t-78 -26.5t-81 11.5t-71.5 34t-52 53 t-20.5 71.5q0 49 26.5 94t74.5 86t112.5 77t138.5 69l-23 78l103 118q18 -70 30.5 -156.5t20.5 -172.5q6 -74 14.5 -125t20.5 -82t32.5 -45.5t55.5 -14.5q45 0 82 31t59 86q-14 98 -28.5 218t-28.5 237l119 115q12 -211 28.5 -345.5t40 -210t55 -103.5t72.5 -28t75 11.5 t52 38.5q-4 63 -17 132.5t-29.5 146.5t-33 163t-24.5 180zM438 459q-41 -16 -84 -37t-82 -43.5t-69.5 -43t-46.5 -36.5q23 -53 69.5 -87t98.5 -34q47 0 77.5 12.5t57.5 38.5q-4 70 -7.5 122.5t-13.5 107.5zM958 1129q4 -12 7.5 -30.5t3.5 -41.5q0 -74 -33 -113.5t-72 -39.5 q-29 0 -47 16t-27 45q-23 -76 -48 -103.5t-50 -27.5q-29 0 -47 30.5t-18 78.5q0 29 5 57.5t15 52.5l37 29q-2 -10 -3 -22.5t-1 -22.5q0 -47 11 -67.5t28 -20.5q16 0 32.5 17t28.5 42q0 31 2 55.5t6 32.5l33 27q0 -66 13.5 -94.5t33.5 -28.5q27 0 37 21.5t10 70.5 q0 12 -1 27.5t-3 29.5zM754 1192q0 59 -5 106.5t-13 88.5q-12 59 -15 123l88 59q0 -41 2.5 -78t6.5 -74q2 -31 4 -70.5t2 -62.5t-17.5 -53.5t-35.5 -44.5z" />
<glyph horiz-adv-x="1366" d="M1225 944q6 -94 16 -180t27 -180l10 -66q8 -47 12 -93t4 -93q0 -61 -11 -124t-37.5 -112t-67.5 -79.5t-101 -30.5q-82 0 -145.5 46t-89.5 148q-43 -109 -88 -151.5t-113 -42.5h-6q-72 2 -117 47t-55 137q-51 -66 -88 -92.5t-78 -26.5t-81 11.5t-71.5 34t-52 53 t-20.5 71.5q0 49 26.5 94t74.5 86t112.5 77t138.5 69l-23 78l103 118q18 -70 30.5 -156.5t20.5 -172.5q6 -74 14.5 -125t20.5 -82t32.5 -45.5t55.5 -14.5q45 0 82 31t59 86q-14 98 -28.5 218t-28.5 237l119 115q12 -211 28.5 -345.5t40 -210t55 -103.5t72.5 -28t75 11.5 t52 38.5q-4 63 -17 132.5t-29.5 146.5t-33 163t-24.5 180zM438 459q-41 -16 -84 -37t-82 -43.5t-69.5 -43t-46.5 -36.5q23 -53 69.5 -87t98.5 -34q47 0 77.5 12.5t57.5 38.5q-4 70 -7.5 122.5t-13.5 107.5z" />
<glyph horiz-adv-x="0" d="M29 1309q-12 27 -13 51q0 35 20.5 57.5t55.5 28.5q25 86 74 132t115 46q47 0 77.5 -34t30.5 -87q0 -57 -46 -95t-142 -38q-41 0 -68 -2t-46 -9t-32.5 -19.5t-25.5 -30.5zM133 1452q18 -4 39 -4h39q115 0 115 47q0 25 -19.5 38t-48.5 13q-35 0 -70 -24.5t-55 -69.5z" />
<glyph horiz-adv-x="0" d="M358 1616q4 -12 7.5 -30.5t3.5 -41.5q0 -74 -33 -113.5t-72 -39.5q-29 0 -47 16t-27 45q-23 -76 -48 -103.5t-50 -27.5q-29 0 -47 30.5t-18 78.5q0 29 5 57.5t15 52.5l37 29q-2 -10 -3 -22.5t-1 -22.5q0 -47 11 -67.5t28 -20.5q16 0 32.5 17t28.5 42q0 31 2 55.5t6 32.5 l33 27q0 -66 13.5 -94.5t33.5 -28.5q27 0 37 21.5t10 70.5q0 12 -1 27.5t-3 29.5zM-12 1569q2 23 8 43t12 32q76 45 173.5 91.5t212.5 84.5l-29 -81q-88 -31 -186.5 -77t-190.5 -93zM0 1716q2 23 8.5 43.5t12.5 32.5q76 45 173 91t212 85l-29 -82q-88 -31 -186.5 -77 t-190.5 -93z" />
<glyph horiz-adv-x="0" d="M262 1546q-31 18 -63 19q-29 0 -59.5 -17.5t-43.5 -48.5q18 -23 53 -35t70 -12q37 0 76 14.5t82 38.5l-27 -102q-35 -10 -73.5 -24.5t-77.5 -32t-76 -38t-68 -40.5q-4 16 -4 24q0 37 29 61.5t57 32.5q-90 23 -90 87q0 78 48 128t118 50q55 0 96 -31zM-39 1622q2 23 8 43 t12 32q76 45 173.5 91.5t212.5 84.5l-29 -81q-88 -31 -186.5 -77t-190.5 -93zM-27 1769q2 23 8.5 43.5t12.5 32.5q76 45 173 91t212 85l-29 -82q-88 -31 -186.5 -77t-190.5 -93z" />
<glyph horiz-adv-x="0" d="M262 1546q-31 18 -63 19q-29 0 -59.5 -17.5t-43.5 -48.5q18 -23 53 -35t70 -12q37 0 76 14.5t82 38.5l-27 -102q-35 -10 -73.5 -24.5t-77.5 -32t-76 -38t-68 -40.5q-4 16 -4 24q0 37 29 61.5t57 32.5q-90 23 -90 87q0 78 48 128t118 50q55 0 96 -31zM-29 1620q2 23 8 43 t12 32q76 45 173.5 91.5t212.5 84.5l-29 -81q-88 -31 -186.5 -77t-190.5 -93z" />
<glyph horiz-adv-x="0" d="M262 1546q-31 18 -63 19q-29 0 -59.5 -17.5t-43.5 -48.5q18 -23 53 -35t70 -12q37 0 76 14.5t82 38.5l-27 -102q-35 -10 -73.5 -24.5t-77.5 -32t-76 -38t-68 -40.5q-4 16 -4 24q0 37 29 61.5t57 32.5q-90 23 -90 87q0 78 48 128t118 50q55 0 96 -31zM-109 1853 q23 29 48.5 44t62.5 15t60.5 -24.5t23.5 -63.5q0 -23 -5 -36t-16 -29q84 8 134 37q-53 25 -76 69.5t-23 102.5q0 49 22.5 74.5t55.5 25.5q63 0 101 -45t38 -98q0 -25 -4 -42.5t-8 -33.5q16 -2 25.5 -2h34.5l-39 -78h-30.5t-27.5 4q-88 -84 -282 -102q49 68 49 110 q0 20 -10.5 33.5t-30.5 13.5q-23 0 -41.5 -16t-38.5 -39zM256 1855q8 10 10 22.5t2 24.5q0 29 -21.5 52.5t-51.5 23.5q-49 0 -50 -33q0 -23 30 -49.5t81 -40.5z" />
<glyph horiz-adv-x="0" d="M262 1546q-31 18 -63 19q-29 0 -59.5 -17.5t-43.5 -48.5q18 -23 53 -35t70 -12q37 0 76 14.5t82 38.5l-27 -102q-35 -10 -73.5 -24.5t-77.5 -32t-76 -38t-68 -40.5q-4 16 -4 24q0 37 29 61.5t57 32.5q-90 23 -90 87q0 78 48 128t118 50q55 0 96 -31zM-68 1702 q133 41 201 82q-74 68 -74 152q0 47 26.5 79.5t63.5 32.5q31 0 55.5 -12t43 -30.5t28.5 -42t10 -48.5q0 -27 -5 -49t-25 -51q16 -4 33.5 -4h39.5l-37 -74q-35 0 -52 2t-40 10q-39 -33 -89 -58.5t-93 -25.5q-23 0 -41 13zM249 1903q-14 25 -40.5 40t-51.5 15q-41 0 -41 -39 q0 -29 24.5 -54t55.5 -36q37 31 53 74z" />
<glyph horiz-adv-x="0" d="M262 1546q-31 18 -63 19q-29 0 -59.5 -17.5t-43.5 -48.5q18 -23 53 -35t70 -12q37 0 76 14.5t82 38.5l-27 -102q-35 -10 -73.5 -24.5t-77.5 -32t-76 -38t-68 -40.5q-4 16 -4 24q0 37 29 61.5t57 32.5q-90 23 -90 87q0 78 48 128t118 50q55 0 96 -31zM195 2034 q51 0 86 -46t35 -112q0 -72 -37 -121t-92 -49t-87 37t-32 104q0 82 39 134.5t88 52.5zM269 1849q-12 47 -37 73t-54 26t-46 -24.5t-17 -59.5q0 -33 19.5 -49.5t50.5 -16.5q25 0 49.5 14t34.5 37z" />
<glyph horiz-adv-x="0" d="M262 -766q-31 18 -63 18q-29 0 -59.5 -17t-43.5 -48q18 -23 53 -35t70 -12q37 0 76 14.5t82 38.5l-27 -102q-35 -10 -73.5 -24.5t-77.5 -32t-76 -38t-68 -40.5q-4 16 -4 24q0 37 29 61.5t57 32.5q-90 23 -90 86q0 78 48 128t118 50q55 0 96 -30zM12 -1200q2 23 8.5 43 t12.5 32q76 45 173 91.5t212 84.5l-29 -81q-88 -31 -186.5 -77t-190.5 -93z" />
<glyph horiz-adv-x="0" d="M262 -766q-31 18 -63 18q-29 0 -59.5 -17t-43.5 -48q18 -23 53 -35t70 -12q37 0 76 14.5t82 38.5l-27 -102q-35 -10 -73.5 -24.5t-77.5 -32t-76 -38t-68 -40.5q-4 16 -4 24q0 37 29 61.5t57 32.5q-90 23 -90 86q0 78 48 128t118 50q55 0 96 -30zM0 -1356q2 23 8 43.5 t12 32.5q76 45 173.5 91t212.5 85l-29 -82q-88 -31 -186.5 -77t-190.5 -93zM12 -1208q2 23 8.5 43t12.5 32q76 45 173 91.5t212 84.5l-29 -81q-88 -31 -186.5 -77t-190.5 -93z" />
<glyph horiz-adv-x="770" d="M176 61q102 14 136 39t34 84v750l-2 2l-238 -137l-47 84l390 225l51 -29v-989l170 -29l-11 -61h-497z" />
<glyph horiz-adv-x="849" d="M49 930q61 80 153.5 123t203.5 43q66 0 123 -24.5t100 -65.5t68.5 -96.5t25.5 -116.5q0 -51 -11.5 -99.5t-46 -103.5t-99 -126t-171.5 -167l-227 -207l2 -4l608 86l4 -8l-43 -164h-696l12 106l219 222q98 98 154.5 167.5t85.5 121t37 90t8 79.5q0 37 -13.5 74t-36 67.5 t-50 53.5t-58.5 31q-55 -16 -119.5 -66.5t-123.5 -116.5h-2l-107 101v0z" />
<glyph horiz-adv-x="841" d="M84 969q127 127 319 127q66 0 121.5 -20.5t96.5 -54.5t63.5 -81t22.5 -98q0 -96 -66 -166t-213 -105v-4q160 -10 246 -82.5t86 -189.5q0 -63 -27.5 -119.5t-78 -98.5t-121 -66.5t-156.5 -24.5q-98 0 -174 24.5t-142 65.5l21 71l2 3q53 -25 120.5 -44.5t137.5 -19.5 q121 0 187.5 55.5t66.5 151.5q0 53 -25.5 95t-71.5 71.5t-108.5 48t-136.5 22.5l16 66q139 23 206 79t67 142q0 74 -37 125t-103 64q-53 -12 -109 -48t-112 -96h-2l-96 107v0z" />
<glyph horiz-adv-x="921" d="M539 1079h131v-764l180 11l6 -9l-22 -104h-164v-213h-150v213h-389l-70 51v10zM520 307v305v101.5t1 78t3 60.5t4 49l-2 2l-364 -614v-2z" />
<glyph horiz-adv-x="841" d="M150 1079h550l-26 -123h-436v-317h2q29 10 75.5 20.5t94.5 10.5q74 0 138 -23.5t111.5 -66.5t74 -101.5t26.5 -128.5q0 -78 -30 -144.5t-81 -115.5t-120.5 -76.5t-151.5 -27.5q-86 0 -168 24.5t-148 65.5l21 71l2 3q53 -25 120.5 -44.5t137.5 -19.5q123 0 188.5 68.5 t65.5 179.5t-79 179.5t-202 68.5q-41 0 -86 -7.5t-77 -17.5h-2v522z" />
<glyph horiz-adv-x="935" d="M737 971l-2 -2q-25 10 -64.5 19t-82.5 9q-59 0 -115.5 -28.5t-99.5 -83t-70 -131t-27 -170.5h3q51 41 120.5 66.5t135.5 25.5t122 -22.5t98 -63.5t65.5 -100.5t23.5 -133.5t-25.5 -141.5t-73 -117.5t-112 -80.5t-141.5 -30.5q-84 0 -153 27.5t-120 89t-78.5 158.5 t-27.5 235q0 131 36.5 241.5t100 190.5t148.5 124t182 44q53 0 105 -13.5t85 -31.5zM276 449q0 -195 61.5 -284t154.5 -89q92 0 142 72.5t50 195.5t-57.5 178.5t-145.5 55.5q-47 0 -103 -12.5t-102 -30.5v-86z" />
<glyph horiz-adv-x="788" d="M758 1079l-13 -108l-415 -971h-178v12l497 932v2h-575l-23 133h707z" />
<glyph horiz-adv-x="892" d="M328 535q-98 57 -142.5 122.5t-44.5 151.5q0 55 24.5 107.5t67.5 92.5t103.5 63.5t134.5 23.5q59 0 110.5 -20.5t89.5 -54.5t59.5 -80t21.5 -95q0 -78 -42 -147.5t-157 -120.5v-3q129 -70 180 -142.5t51 -158.5q0 -63 -24.5 -116.5t-68.5 -91t-106.5 -59t-135.5 -21.5 q-78 0 -139.5 19.5t-105.5 55t-67.5 84t-23.5 103.5q0 90 47 158.5t168 125.5v3zM381 498q-125 -80 -125 -224q0 -92 61.5 -145t153.5 -53q86 0 134 45t48 110q0 37 -13 69t-44 62.5t-83 63.5t-132 72zM494 610q59 47 86.5 99.5t27.5 117.5q0 84 -49 131.5t-115 47.5 q-74 0 -123 -47.5t-49 -116.5q0 -57 48.5 -111.5t173.5 -120.5z" />
<glyph horiz-adv-x="905" d="M139 129l2 2q45 -23 92.5 -34t102.5 -11q72 0 126 21.5t90 70.5t55.5 131t21.5 205q-6 -8 -30 -27.5t-73 -43t-120 -23.5q-70 0 -127.5 22.5t-99.5 64.5t-64.5 101.5t-22.5 132.5q0 72 26.5 136.5t74 112.5t111 77t134.5 29q76 0 140.5 -32t112.5 -97.5t75 -167 t27 -238.5q0 -143 -31 -250.5t-86 -180.5t-131 -108.5t-164 -35.5q-72 0 -142.5 18.5t-119.5 52.5zM629 598q0 115 -13.5 192.5t-38 126t-60.5 69t-79 20.5q-88 0 -140 -74t-52 -191q0 -111 50 -169t150 -58q63 0 105.5 14.5t77.5 42.5v27z" />
<glyph horiz-adv-x="966" d="M483 -14q-82 0 -149.5 30.5t-116.5 98t-76.5 173t-27.5 257.5q0 150 27.5 254t76.5 170.5t116.5 96.5t149.5 30q80 0 148.5 -30t118 -96.5t77 -171t27.5 -253.5q0 -152 -27.5 -257.5t-77 -173t-118 -98t-148.5 -30.5zM483 76q109 0 158 115.5t49 357.5q0 240 -50 348.5 t-157 108.5q-109 0 -158 -109t-49 -348q0 -242 49 -357.5t158 -115.5z" />
<glyph d="M266 72q121 6 164 31.5t43 84.5v588l-2 2l-315 -186l-47 84l466 274l52 -28v-832l202 -18l-10 -72h-569z" />
<glyph d="M129 793v2q147 147 346 147q57 0 109.5 -19.5t90.5 -54t60.5 -81t22.5 -101.5q0 -43 -10.5 -82t-36 -80t-70.5 -87t-113 -101l-299 -244l3 -4l581 80l4 -8l-43 -160h-665l10 90l229 229q76 76 124 129.5t75 93.5t37 71.5t10 66.5q0 61 -33 106t-86 66q-25 -6 -53.5 -21.5 t-59 -39t-61.5 -51t-55 -58.5h-2z" />
<glyph d="M147 -92v2q217 35 341 115.5t124 191.5q0 82 -82 132t-241 59l-5 4l15 65q133 31 202.5 94.5t69.5 130.5q0 51 -32.5 95.5t-92.5 54.5q-106 -29 -219 -154h-2l-102 105v2q66 66 150.5 101.5t183.5 35.5q55 0 106 -18.5t89 -50t60.5 -72.5t22.5 -86q0 -80 -76 -147.5 t-239 -108.5v-4q188 -6 272 -68.5t84 -157.5q0 -70 -42 -134t-118 -117.5t-181 -92.5t-232 -55z" />
</font>
</defs>
</svg>
